<svg width="16" height="17" viewBox="0 0 16 17" fill="none" xmlns="http://www.w3.org/2000/svg">
<path fill-rule="evenodd" clip-rule="evenodd" d="M10.8048 3.13354C9.69134 3.13354 8.78868 4.0362 8.78868 5.14968C8.78868 5.31827 8.80941 5.48221 8.84851 5.63899L6.60894 6.91849C6.24521 6.56067 5.74587 6.33964 5.19509 6.33964C4.08161 6.33964 3.17896 7.2423 3.17896 8.35577C3.17896 9.46925 4.08161 10.3719 5.19509 10.3719C5.74613 10.3719 6.24567 10.1507 6.60946 9.79255L8.84851 11.0725C8.80941 11.2293 8.78868 11.3933 8.78868 11.5619C8.78868 12.6754 9.69134 13.578 10.8048 13.578C11.9183 13.578 12.8209 12.6754 12.8209 11.5619C12.8209 10.4484 11.9183 9.54574 10.8048 9.54574C10.2538 9.54574 9.75422 9.76697 9.39044 10.1251L7.15138 8.84512C7.19049 8.68833 7.21122 8.52438 7.21122 8.35577C7.21122 8.18717 7.19049 8.02324 7.15139 7.86646L9.39095 6.58696C9.75469 6.94478 10.254 7.16581 10.8048 7.16581C11.9183 7.16581 12.8209 6.26315 12.8209 5.14968C12.8209 4.0362 11.9183 3.13354 10.8048 3.13354ZM9.88013 5.14968C9.88013 4.63899 10.2941 4.22499 10.8048 4.22499C11.3155 4.22499 11.7295 4.63899 11.7295 5.14968C11.7295 5.66036 11.3155 6.07436 10.8048 6.07436C10.2941 6.07436 9.88013 5.66036 9.88013 5.14968ZM4.2704 8.35577C4.2704 7.84508 4.6844 7.43109 5.19509 7.43109C5.70577 7.43109 6.11977 7.84508 6.11977 8.35577C6.11977 8.86646 5.70577 9.28046 5.19509 9.28046C4.6844 9.28046 4.2704 8.86646 4.2704 8.35577ZM9.88013 11.5619C9.88013 11.0512 10.2941 10.6372 10.8048 10.6372C11.3155 10.6372 11.7295 11.0512 11.7295 11.5619C11.7295 12.0726 11.3155 12.4866 10.8048 12.4866C10.2941 12.4866 9.88013 12.0726 9.88013 11.5619Z" fill="#949494"/>
</svg>
