<svg width="25" height="25" viewBox="0 0 25 25" fill="none" xmlns="http://www.w3.org/2000/svg">
<path fill-rule="evenodd" clip-rule="evenodd" d="M4.25112 12.9873C3.61868 12.3473 3.60415 11.3608 4.21477 10.6999C5.75836 9.02921 8.95953 6.14392 12.6583 6.14392C16.357 6.14392 19.5581 9.02921 21.1017 10.6999C21.7123 11.3609 21.6978 12.3473 21.0654 12.9873C19.5083 14.5632 16.3282 17.2336 12.6582 17.2336C8.98832 17.2336 5.80823 14.5632 4.25112 12.9873ZM16.1582 11.6887C16.1582 13.6217 14.5912 15.1887 12.6582 15.1887C10.7253 15.1887 9.15825 13.6217 9.15825 11.6887C9.15825 9.75573 10.7253 8.18873 12.6582 8.18873C14.5912 8.18873 16.1582 9.75573 16.1582 11.6887ZM12.6582 14.2112C14.0389 14.2112 15.1582 13.0919 15.1582 11.7112C15.1582 10.3305 14.0389 9.21118 12.6582 9.21118C11.2775 9.21118 10.1582 10.3305 10.1582 11.7112C10.1582 13.0919 11.2775 14.2112 12.6582 14.2112Z" fill="#949494"/>
</svg>
