<svg width="25" height="25" viewBox="0 0 25 25" fill="none" xmlns="http://www.w3.org/2000/svg">
<path fill-rule="evenodd" clip-rule="evenodd" d="M6.63843 4.94531C5.53386 4.94531 4.63843 5.84074 4.63843 6.94531V10.1804H4.64453V19.6645C4.64453 20.3272 5.18179 20.8645 5.84453 20.8645H19.4445C20.1073 20.8645 20.6445 20.3272 20.6445 19.6645V9.35308C20.6445 8.69033 20.1073 8.15308 19.4445 8.15308H13.0396L10.4176 5.5311C10.0425 5.15603 9.53383 4.94531 9.0034 4.94531H6.63843ZM10.7768 8.15308L9.28624 6.66247C9.21123 6.58746 9.10949 6.54531 9.0034 6.54531H6.63843C6.41751 6.54531 6.23843 6.7244 6.23843 6.94531V8.15308H10.7768ZM6.24453 19.2645V9.75308H19.0445V19.2645H6.24453Z" fill="#949494"/>
</svg>
