<svg width="24" height="25" viewBox="0 0 24 25" fill="none" xmlns="http://www.w3.org/2000/svg">
<path fill-rule="evenodd" clip-rule="evenodd" d="M10.5237 16.964V18.9987L14.0414 16.964H18C18.2209 16.964 18.4 16.785 18.4 16.564V8.52173C18.4 8.30081 18.2209 8.12173 18 8.12173H6C5.77908 8.12173 5.6 8.30081 5.6 8.52173V16.564C5.6 16.785 5.77909 16.964 6 16.964H10.5237ZM4 8.52173C4 7.41716 4.89543 6.52173 6 6.52173H18C19.1046 6.52173 20 7.41716 20 8.52173V16.564C20 17.6686 19.1046 18.564 18 18.564H14.4708L10.7246 20.7309C9.92457 21.1937 8.92374 20.6164 8.92374 19.6922V18.564H6C4.89543 18.564 4 17.6686 4 16.564V8.52173Z" fill="#949494"/>
</svg>
