<svg width="25" height="25" viewBox="0 0 25 25" fill="none" xmlns="http://www.w3.org/2000/svg">
<path fill-rule="evenodd" clip-rule="evenodd" d="M5.6897 10.8918C5.6897 10.45 6.04787 10.0918 6.4897 10.0918L19.0566 10.0918C19.4984 10.0918 19.8566 10.45 19.8566 10.8918C19.8566 11.3336 19.4984 11.6918 19.0566 11.6918L6.4897 11.6918C6.04787 11.6918 5.6897 11.3336 5.6897 10.8918Z" fill="#949494"/>
<path fill-rule="evenodd" clip-rule="evenodd" d="M5.6897 14.8918C5.6897 14.45 6.04787 14.0918 6.4897 14.0918L19.0566 14.0918C19.4984 14.0918 19.8566 14.45 19.8566 14.8918C19.8566 15.3336 19.4984 15.6918 19.0566 15.6918L6.4897 15.6918C6.04787 15.6918 5.6897 15.3336 5.6897 14.8918Z" fill="#949494"/>
</svg>
