<svg width="24" height="25" viewBox="0 0 24 25" fill="none" xmlns="http://www.w3.org/2000/svg">
<path fill-rule="evenodd" clip-rule="evenodd" d="M12 19.2918C15.5346 19.2918 18.4 16.4265 18.4 12.8918C18.4 9.35722 15.5346 6.49185 12 6.49185C8.46538 6.49185 5.6 9.35722 5.6 12.8918C5.6 16.4265 8.46538 19.2918 12 19.2918ZM12 20.8918C16.4183 20.8918 20 17.3101 20 12.8918C20 8.47357 16.4183 4.89185 12 4.89185C7.58172 4.89185 4 8.47357 4 12.8918C4 17.3101 7.58172 20.8918 12 20.8918Z" fill="#949494"/>
<path d="M13.0591 9.49585C13.0591 10.0481 12.6114 10.4958 12.0591 10.4958C11.5068 10.4958 11.0591 10.0481 11.0591 9.49585C11.0591 8.94356 11.5068 8.49585 12.0591 8.49585C12.6114 8.49585 13.0591 8.94356 13.0591 9.49585Z" fill="#949494"/>
<path fill-rule="evenodd" clip-rule="evenodd" d="M12.0591 11.6958C12.5009 11.6958 12.8591 12.054 12.8591 12.4958L12.8591 16.4958C12.8591 16.9377 12.5009 17.2958 12.0591 17.2958C11.6173 17.2958 11.2591 16.9377 11.2591 16.4958L11.2591 12.4958C11.2591 12.054 11.6173 11.6958 12.0591 11.6958Z" fill="#949494"/>
</svg>
