<svg width="24" height="25" viewBox="0 0 24 25" fill="none" xmlns="http://www.w3.org/2000/svg">
<path fill-rule="evenodd" clip-rule="evenodd" d="M4.19995 6.8918C4.19995 6.44997 4.55812 6.0918 4.99995 6.0918H19C19.4418 6.0918 19.8 6.44997 19.8 6.8918C19.8 7.33362 19.4418 7.6918 19 7.6918L4.99995 7.6918C4.55812 7.6918 4.19995 7.33363 4.19995 6.8918ZM4.19995 12.8918C4.19995 12.45 4.55812 12.0918 4.99995 12.0918L19 12.0918C19.4418 12.0918 19.8 12.45 19.8 12.8918C19.8 13.3336 19.4418 13.6918 19 13.6918L4.99995 13.6918C4.55812 13.6918 4.19995 13.3336 4.19995 12.8918ZM4.99995 18.0918C4.55812 18.0918 4.19995 18.45 4.19995 18.8918C4.19995 19.3336 4.55812 19.6918 4.99995 19.6918L19 19.6918C19.4418 19.6918 19.8 19.3336 19.8 18.8918C19.8 18.45 19.4418 18.0918 19 18.0918L4.99995 18.0918Z" fill="#949494"/>
</svg>
