<svg width="25" height="25" viewBox="0 0 25 25" fill="none" xmlns="http://www.w3.org/2000/svg">
<path d="M12.0579 5.73877C12.4997 5.73897 12.8577 6.0973 12.8575 6.53913L12.8572 8.18475C12.8571 9.21378 12.8569 10.8316 12.8569 13.3181L15.6631 10.5119C15.9755 10.1995 16.4821 10.1995 16.7945 10.5119C17.1069 10.8243 17.1069 11.3308 16.7945 11.6433L12.6226 15.8152C12.4725 15.9652 12.269 16.0495 12.0569 16.0495C11.8447 16.0495 11.6412 15.9652 11.4912 15.8152L7.31926 11.6433C7.00684 11.3308 7.00684 10.8243 7.31926 10.5119C7.63168 10.1995 8.13821 10.1995 8.45063 10.5119L11.2569 13.3182C11.2569 10.8315 11.2571 9.21365 11.2572 8.18454L11.2575 6.53841C11.2577 6.09659 11.6161 5.73857 12.0579 5.73877Z" fill="#949494"/>
<path d="M5.69497 13.6046C5.69497 13.1627 5.3368 12.8046 4.89497 12.8046C4.45314 12.8046 4.09497 13.1627 4.09497 13.6046V18.8728C4.09497 19.9774 4.9904 20.8728 6.09497 20.8728H18.0202C19.1247 20.8728 20.0202 19.9774 20.0202 18.8728V13.6046C20.0202 13.1627 19.662 12.8046 19.2202 12.8046C18.7783 12.8046 18.4202 13.1627 18.4202 13.6046V18.8728C18.4202 19.0937 18.2411 19.2728 18.0202 19.2728H6.09497C5.87406 19.2728 5.69497 19.0937 5.69497 18.8728V13.6046Z" fill="#949494"/>
</svg>
