<svg width="17" height="16" viewBox="0 0 17 16" fill="none" xmlns="http://www.w3.org/2000/svg">
<path fill-rule="evenodd" clip-rule="evenodd" d="M8.44736 13.3186C8.7235 13.3186 8.94736 13.0947 8.94736 12.8186L8.94734 4.39046L11.7258 7.16887C11.921 7.36414 12.2376 7.36414 12.4329 7.16887C12.6281 6.97361 12.6281 6.65703 12.4329 6.46177L8.80089 2.8298C8.70712 2.73603 8.57994 2.68335 8.44733 2.68335C8.31472 2.68335 8.18755 2.73603 8.09378 2.8298L4.46187 6.46176C4.26661 6.65703 4.26662 6.97361 4.46188 7.16887C4.65714 7.36413 4.97373 7.36413 5.16899 7.16886L7.94734 4.39047L7.94736 12.8186C7.94736 13.0947 8.17122 13.3186 8.44736 13.3186Z" fill="#949494"/>
</svg>
