<svg width="17" height="17" viewBox="0 0 17 17" fill="none" xmlns="http://www.w3.org/2000/svg">
<path fill-rule="evenodd" clip-rule="evenodd" d="M3.75415 4.71167C3.75415 4.43553 3.97801 4.21167 4.25415 4.21167H13.5875C13.8636 4.21167 14.0875 4.43553 14.0875 4.71167C14.0875 4.98781 13.8636 5.21167 13.5875 5.21167L4.25415 5.21167C3.97801 5.21167 3.75415 4.98781 3.75415 4.71167ZM3.75415 8.71167C3.75415 8.43553 3.97801 8.21167 4.25415 8.21167L13.5875 8.21167C13.8636 8.21167 14.0875 8.43553 14.0875 8.71167C14.0875 8.98781 13.8636 9.21167 13.5875 9.21167L4.25415 9.21167C3.97801 9.21167 3.75415 8.98781 3.75415 8.71167ZM4.25415 12.2117C3.97801 12.2117 3.75415 12.4355 3.75415 12.7117C3.75415 12.9878 3.97801 13.2117 4.25415 13.2117L13.5875 13.2117C13.8636 13.2117 14.0875 12.9878 14.0875 12.7117C14.0875 12.4355 13.8636 12.2117 13.5875 12.2117L4.25415 12.2117Z" fill="#949494"/>
</svg>
