<svg width="17" height="17" viewBox="0 0 17 17" fill="none" xmlns="http://www.w3.org/2000/svg">
<path fill-rule="evenodd" clip-rule="evenodd" d="M8.23787 3.54492C5.29236 3.54492 2.90454 5.93274 2.90454 8.87825C2.90454 11.8238 5.29236 14.2116 8.23787 14.2116C11.1834 14.2116 13.5712 11.8238 13.5712 8.87826C13.5712 5.93274 11.1834 3.54492 8.23787 3.54492ZM8.19897 9.66667C7.92283 9.66667 7.69897 9.44281 7.69897 9.16667L7.69897 6.5C7.69897 6.22386 7.92283 6 8.19897 6C8.47512 6 8.69897 6.22386 8.69897 6.5L8.69897 9.16667C8.69897 9.44281 8.47512 9.66667 8.19897 9.66667ZM7.55664 11.2812C7.55664 10.9266 7.84411 10.6391 8.19873 10.6391C8.55335 10.6391 8.84082 10.9266 8.84082 11.2812C8.84082 11.6358 8.55335 11.9233 8.19873 11.9233C7.84411 11.9233 7.55664 11.6358 7.55664 11.2812Z" fill="#949494"/>
<path fill-rule="evenodd" clip-rule="evenodd" d="M6.24942 5.71796C5.20103 6.37899 4.50454 7.54729 4.50454 8.87825C4.50454 10.1197 5.11044 11.2195 6.04265 11.8983C5.98663 11.7022 5.95664 11.4952 5.95664 11.2812C5.95664 10.8384 6.08498 10.4256 6.30648 10.078C6.17351 9.80235 6.09897 9.49321 6.09897 9.16667L6.09897 6.5C6.09897 6.2236 6.15238 5.95966 6.24942 5.71796ZM10.1218 5.65441C10.2357 5.91312 10.299 6.19917 10.299 6.5L10.299 9.16667C10.299 9.49338 10.2244 9.80267 10.0913 10.0784C10.3126 10.426 10.4408 10.8386 10.4408 11.2812C10.4408 11.5209 10.4032 11.7518 10.3336 11.9683C11.3219 11.2967 11.9712 10.1633 11.9712 8.87826C11.9712 7.50353 11.2282 6.30234 10.1218 5.65441ZM7.2689 11.05C7.25056 11.124 7.24082 11.2015 7.24082 11.2812C7.24082 11.8102 7.66969 12.2391 8.19873 12.2391C8.72777 12.2391 9.15664 11.8102 9.15664 11.2812C9.15664 11.2015 9.14692 11.1242 9.12861 11.0502C9.03334 11.0973 8.93398 11.1374 8.8312 11.1698C8.7785 10.8684 8.51551 10.6392 8.19897 10.6391C8.19889 10.6391 8.19906 10.6391 8.19897 10.6391C7.88238 10.6391 7.61906 10.8682 7.56629 11.1697C7.46352 11.1373 7.36416 11.0971 7.2689 11.05ZM8.69897 6.5C8.69897 6.22386 8.47512 6 8.19897 6C7.92283 6 7.69897 6.22386 7.69897 6.5L7.69897 9.16667C7.69897 9.44273 7.9227 9.66654 8.19873 9.66667C8.19881 9.66667 8.19865 9.66667 8.19873 9.66667C8.47487 9.66667 8.69897 9.44281 8.69897 9.16667L8.69897 6.5ZM2.90454 8.87825C2.90454 5.93274 5.29236 3.54492 8.23787 3.54492C11.1834 3.54492 13.5712 5.93274 13.5712 8.87826C13.5712 11.8238 11.1834 14.2116 8.23787 14.2116C5.29236 14.2116 2.90454 11.8238 2.90454 8.87825Z" fill="#949494"/>
</svg>
