<svg width="17" height="16" viewBox="0 0 17 16" fill="none" xmlns="http://www.w3.org/2000/svg">
<path fill-rule="evenodd" clip-rule="evenodd" d="M3.1154 9.16698L3.09469 9.13973C2.5167 8.37915 2.07593 7.55204 2.07593 6.38036C2.07593 4.1937 3.65211 2.32178 5.80744 2.32178C6.9365 2.32178 7.82018 3.03678 8.40388 3.79368C8.9842 3.02737 9.87018 2.28918 11.0102 2.28918C13.1802 2.28918 14.7426 4.21668 14.7426 6.38599C14.7426 7.55881 14.2999 8.38132 13.7228 9.14007L13.7024 9.16692L10.0683 13.3297C9.19192 14.3336 7.63141 14.334 6.75448 13.3307L3.1154 9.16698ZM3.89088 8.53468C3.38824 7.87326 3.07593 7.25519 3.07593 6.38036C3.07593 4.64659 4.2988 3.32178 5.80744 3.32178C6.60418 3.32178 7.32061 3.92617 7.81974 4.6984C8.03953 5.03844 8.7764 5.03776 8.99366 4.6961C9.49289 3.91103 10.2112 3.28918 11.0102 3.28918C12.5185 3.28918 13.7426 4.65288 13.7426 6.38599C13.7426 7.26015 13.43 7.87326 12.9269 8.53468L9.31496 12.6721C8.83694 13.2196 7.98575 13.2199 7.50743 12.6726L3.89088 8.53468Z" fill="#949494"/>
</svg>
