<svg width="17" height="17" viewBox="0 0 17 17" fill="none" xmlns="http://www.w3.org/2000/svg">
<path d="M7.06543 7.65247C7.34157 7.65247 7.56543 7.87632 7.56543 8.15247L7.56543 11.4269C7.56543 11.703 7.34157 11.9269 7.06543 11.9269C6.78929 11.9269 6.56543 11.703 6.56543 11.4269L6.56543 8.15247C6.56543 7.87632 6.78929 7.65247 7.06543 7.65247Z" fill="#949494"/>
<path d="M9.99316 8.15247C9.99316 7.87632 9.76931 7.65247 9.49316 7.65247C9.21702 7.65247 8.99316 7.87632 8.99316 8.15247L8.99316 11.4269C8.99316 11.703 9.21702 11.9269 9.49316 11.9269C9.76931 11.9269 9.99316 11.703 9.99316 11.4269L9.99316 8.15247Z" fill="#949494"/>
<path fill-rule="evenodd" clip-rule="evenodd" d="M11.1966 4.94145L9.9846 3.72942C9.75956 3.50438 9.45468 3.3783 9.13642 3.3783H7.42253C7.10426 3.3783 6.79937 3.50438 6.57433 3.72944L5.36236 4.94145H4.14604C3.4833 4.94145 2.94604 5.47871 2.94604 6.14145V6.26163C2.94604 6.72958 3.21389 7.13496 3.60464 7.33284L3.88799 12.8879C3.92055 13.5261 4.44745 14.0268 5.08644 14.0268H11.4774C12.1144 14.0268 12.6403 13.5291 12.6756 12.8932L12.9847 7.31682C13.3588 7.11361 13.6127 6.71728 13.6127 6.26163V6.14145C13.6127 5.47871 13.0755 4.94145 12.4127 4.94145H11.1966ZM11.1966 5.94145C10.9314 5.94145 10.6771 5.83609 10.4895 5.64855L9.2775 4.43653C9.24029 4.39933 9.18989 4.3783 9.13642 4.3783H7.42253C7.36905 4.3783 7.31865 4.39933 7.28145 4.43653L6.06948 5.64854C5.88194 5.83609 5.62759 5.94145 5.36236 5.94145H4.14604C4.03559 5.94145 3.94604 6.03099 3.94604 6.14145V6.26163C3.94604 6.33818 3.98884 6.40649 4.05642 6.44072C4.37638 6.60275 4.58507 6.92372 4.60334 7.2819L4.8867 12.837C4.89212 12.9433 4.97994 13.0268 5.08644 13.0268H11.4774C11.5836 13.0268 11.6712 12.9438 11.6771 12.8378L11.9862 7.26147C12.0054 6.91521 12.2026 6.60361 12.5073 6.43808C12.5723 6.40282 12.6127 6.33621 12.6127 6.26163V6.14145C12.6127 6.03099 12.5232 5.94145 12.4127 5.94145H11.1966Z" fill="#949494"/>
</svg>
