<svg width="24" height="25" viewBox="0 0 24 25" fill="none" xmlns="http://www.w3.org/2000/svg">
<path fill-rule="evenodd" clip-rule="evenodd" d="M3.98694 14.7056L3.9538 14.662C3.07927 13.5112 2.40527 12.2497 2.40527 10.4625C2.40527 7.13719 4.80487 4.27459 8.10255 4.27459C9.29522 4.27459 10.3092 4.80536 11.0777 5.46055C11.4142 5.74746 11.7209 6.07188 11.9965 6.41813C12.2724 6.06484 12.58 5.73309 12.9179 5.43945C13.6828 4.77468 14.7013 4.22571 15.9067 4.22571C19.2278 4.22571 21.6053 7.17334 21.6053 10.4709C21.6053 12.26 20.9283 13.5147 20.0552 14.6626L20.0226 14.7055L14.1174 21.4698C13.002 22.7474 11.0159 22.7479 9.89983 21.471L3.98694 14.7056ZM5.2277 13.6939C4.47374 12.7018 4.00527 11.7747 4.00527 10.4625C4.00527 7.86182 5.83957 5.87459 8.10255 5.87459C9.50445 5.87459 10.7406 7.1221 11.4793 8.56008C11.6643 8.92023 12.344 8.91979 12.5273 8.55878C13.2655 7.10508 14.503 5.82571 15.9067 5.82571C18.1692 5.82571 20.0053 7.87125 20.0053 10.4709C20.0053 11.7822 19.5364 12.7018 18.7817 13.6939L12.9121 20.4175C12.4341 20.9651 11.5829 20.9653 11.1046 20.418L5.2277 13.6939Z" fill="#949494"/>
</svg>
