<svg width="25" height="25" viewBox="0 0 25 25" fill="none" xmlns="http://www.w3.org/2000/svg">
<path fill-rule="evenodd" clip-rule="evenodd" d="M15.8939 6.10143C16.2328 5.2907 17.0399 4.73657 17.9607 4.73657C19.1898 4.73657 20.1944 5.72069 20.2114 6.94968C20.2597 10.4482 20.2323 13.0692 20.1957 16.5578C20.1827 17.7972 19.1743 18.7969 17.9349 18.7969C17.0753 18.7969 16.3128 18.3139 15.9429 17.5881C15.7981 17.568 15.6545 17.5462 15.5121 17.5226L15.5004 17.5207C14.9462 17.4284 14.4114 17.3095 13.9004 17.1665V19.623C13.9004 20.2857 13.3631 20.823 12.7004 20.823H10.0701C9.40737 20.823 8.87011 20.2857 8.87011 19.623V14.7666H7.32129C5.66444 14.7666 4.32129 13.4235 4.32129 11.7666C4.32129 10.1097 5.66444 8.7666 7.32129 8.7666H9.62648C11.0077 7.45169 13.2481 6.47531 15.8939 6.10143ZM16.1436 14.9607C16.1436 15.292 16.4122 15.5607 16.7436 15.5607C17.0749 15.5607 17.3436 15.292 17.3436 14.9607V8.30588C17.3436 7.97451 17.0749 7.70588 16.7436 7.70588C16.4122 7.70588 16.1436 7.97451 16.1436 8.30588V14.9607Z" fill="#949494"/>
</svg>
