<svg width="25" height="25" viewBox="0 0 25 25" fill="none" xmlns="http://www.w3.org/2000/svg">
<path fill-rule="evenodd" clip-rule="evenodd" d="M13.3302 9.39185C13.3302 11.3248 11.7632 12.8918 9.83016 12.8918C7.89717 12.8918 6.33016 11.3248 6.33016 9.39185C6.33016 7.45885 7.89717 5.89185 9.83016 5.89185C11.7632 5.89185 13.3302 7.45885 13.3302 9.39185ZM11.7302 9.39185C11.7302 10.4412 10.8795 11.2918 9.83016 11.2918C8.78082 11.2918 7.93016 10.4412 7.93016 9.39185C7.93016 8.3425 8.78082 7.49185 9.83016 7.49185C10.8795 7.49185 11.7302 8.3425 11.7302 9.39185Z" fill="#949494"/>
<path fill-rule="evenodd" clip-rule="evenodd" d="M15.2782 20.873C16.031 20.873 16.7548 20.2333 16.6343 19.3559C16.1988 16.1839 13.267 13.8276 9.82988 13.8276C6.39274 13.8276 3.46099 16.1839 3.02542 19.3559C2.90492 20.2333 3.62877 20.873 4.38154 20.873L15.2782 20.873ZM9.82988 15.4276C12.4486 15.4276 14.5429 17.1297 14.9968 19.273L4.66295 19.273C5.11687 17.1297 7.2112 15.4276 9.82988 15.4276Z" fill="#949494"/>
<path d="M14.4877 12.3821C14.4877 11.9403 14.8459 11.5821 15.2877 11.5821H16.9877V9.89185C16.9877 9.45002 17.3459 9.09185 17.7877 9.09185C18.2295 9.09185 18.5877 9.45002 18.5877 9.89185V11.5821H20.2877C20.7295 11.5821 21.0877 11.9403 21.0877 12.3821C21.0877 12.8239 20.7295 13.1821 20.2877 13.1821H18.5877V14.8918C18.5877 15.3337 18.2295 15.6918 17.7877 15.6918C17.3459 15.6918 16.9877 15.3337 16.9877 14.8918V13.1821H15.2877C14.8459 13.1821 14.4877 12.8239 14.4877 12.3821Z" fill="#949494"/>
</svg>
