<svg width="145" height="159" viewBox="0 0 145 159" fill="none" xmlns="http://www.w3.org/2000/svg">
<path d="M13.9005 86.7167C14.3838 85.9365 15.1367 85.3609 16.0163 85.0989L16.9795 84.8121C26.6418 81.9345 35.8957 90.3695 33.9231 100.256L31.5117 112.342C30.2631 118.6 24.7694 123.106 18.3879 123.106L15.3889 123.106C4.90139 123.106 -1.5106 111.591 4.01291 102.676L13.9005 86.7167Z" fill="#D998AE"/>
<path d="M110.723 81.3875C112.04 73.4622 119.272 67.9121 127.268 68.6903C135.496 69.4911 141.593 76.6933 141.024 84.9404L139.632 105.149C139.003 114.277 130.961 121.085 121.854 120.198C112.495 119.288 105.863 110.645 107.404 101.37L110.723 81.3875Z" fill="#DC95AE"/>
<path fill-rule="evenodd" clip-rule="evenodd" d="M93.2961 135.491C119.735 125.335 141.597 101.413 141.597 73.833C141.597 22.5401 99.6623 4.85156 63.0049 4.85156C26.3476 4.85156 6.66024 35.1546 3.81933 68.208C1.59033 94.1416 22.8697 129.913 52.6356 138.684L52.5609 139.787C51.891 149.681 59.7354 158.074 69.6513 158.074H76.3136C85.9633 158.074 93.7085 150.107 93.4363 140.461L93.2961 135.491Z" fill="#FBAEC9"/>
<path fill-rule="evenodd" clip-rule="evenodd" d="M93.2961 135.491C119.735 125.335 141.597 101.413 141.597 73.833C141.597 22.5401 99.6623 4.85156 63.0049 4.85156C26.3476 4.85156 6.66024 35.1546 3.81933 68.208C1.59033 94.1416 22.8697 129.913 52.6356 138.684L52.5609 139.787C51.891 149.681 59.7354 158.074 69.6513 158.074H76.3136C85.9633 158.074 93.7085 150.107 93.4363 140.461L93.2961 135.491Z" fill="url(#paint0_radial_3768_58504)"/>
<path fill-rule="evenodd" clip-rule="evenodd" d="M92.7503 135.127L93.1041 134.991C119.409 124.887 141.061 101.123 141.061 73.833C141.061 48.3557 130.658 31.2734 115.735 20.542C100.787 9.79296 81.2596 5.38686 63.0049 5.38686C44.8414 5.38686 30.9026 12.8873 21.1404 24.4796C11.3675 36.0847 5.76588 51.8114 4.35266 68.2538C3.25111 81.07 7.9614 96.3778 16.6762 109.587C25.3886 122.793 38.056 133.83 52.7869 138.171L53.1986 138.292L53.0949 139.824C52.446 149.408 60.0453 157.539 69.6513 157.539H76.3136C85.6617 157.539 93.1649 149.821 92.9013 140.477L92.7503 135.127ZM93.2961 135.491L93.4363 140.461C93.7085 150.107 85.9633 158.074 76.3136 158.074H69.6513C59.7354 158.074 51.891 149.681 52.5609 139.787L52.6356 138.684C22.8697 129.913 1.59033 94.1416 3.81933 68.208C6.66024 35.1546 26.3476 4.85156 63.0049 4.85156C99.6623 4.85156 141.597 22.5401 141.597 73.833C141.597 101.413 119.735 125.335 93.2961 135.491Z" fill="#F4BDD1"/>
<path d="M141.597 73.833C141.597 110.49 102.977 140.685 66.3194 140.685C29.662 140.685 1.2614 97.9686 3.81933 68.208C6.66024 35.1546 26.3476 4.85156 63.0049 4.85156C99.6623 4.85156 141.597 22.5401 141.597 73.833Z" fill="url(#paint1_linear_3768_58504)"/>
<path fill-rule="evenodd" clip-rule="evenodd" d="M93.2967 135.469C84.5949 138.811 75.3972 140.663 66.3199 140.663C61.606 140.663 57.0287 139.957 52.6361 138.662L52.5614 139.765C51.8915 149.658 59.736 158.052 69.6519 158.052H76.3141C85.9638 158.052 93.7091 150.085 93.4369 140.439L93.2967 135.469Z" fill="url(#paint2_linear_3768_58504)" fill-opacity="0.5"/>
<path fill-rule="evenodd" clip-rule="evenodd" d="M133.646 86.7837C130.955 96.4722 122.056 104.413 113.468 104.785L115.232 107.567L108.047 104.001C107.062 103.703 106.163 103.356 105.344 102.966C98.1808 100.07 94.7204 90.2651 98.07 78.2069C100.748 68.5672 106.757 61.2565 113.027 59.0956C116.366 57.9156 120.025 57.9771 123.713 59.5486L134.318 63.7431L129.327 63.4082C132.966 67.7008 136.313 77.1826 133.646 86.7837Z" fill="url(#paint3_linear_3768_58504)"/>
<path fill-rule="evenodd" clip-rule="evenodd" d="M123.815 59.303L134.417 63.4962L134.301 64.0121L129.922 63.7184C133.455 68.2701 136.502 77.5083 133.905 86.8573C132.544 91.7548 129.617 96.2055 125.947 99.4796C122.406 102.638 118.158 104.716 113.938 105.028L115.971 108.235L107.949 104.252C106.963 103.953 106.061 103.605 105.236 103.213C97.8893 100.236 94.4495 90.2442 97.8126 78.1372C100.504 68.4484 106.557 61.0451 112.939 58.8449C116.342 57.6428 120.069 57.7074 123.815 59.303ZM123.608 59.7969C119.981 58.251 116.391 58.1929 113.116 59.3499L113.115 59.3506C106.958 61.4727 100.992 68.6904 98.3284 78.2805C94.9935 90.2858 98.471 99.9001 105.445 102.72L105.452 102.723L105.459 102.726C106.266 103.11 107.152 103.452 108.125 103.747L108.147 103.753L114.493 106.903L112.994 104.54L113.456 104.52C117.674 104.337 121.99 102.293 125.591 99.0802C129.19 95.8689 132.058 91.505 133.389 86.714C136.031 77.2034 132.708 67.8124 129.124 63.5833L128.715 63.1009L132.625 63.3632L123.608 59.7969Z" fill="url(#paint4_linear_3768_58504)" fill-opacity="0.5"/>
<path fill-rule="evenodd" clip-rule="evenodd" d="M119.067 82.9321C116.286 82.3152 113.597 86.5325 113.276 91.4993C112.956 96.4661 114.923 101.404 116.129 102.856C117.631 104.664 119.005 104.933 120.14 104.203C122.123 103.621 123.654 99.7555 123.723 94.7284C123.749 92.8101 123.56 90.9628 123.206 89.3292C122.883 86.2028 121.83 83.5452 119.067 82.9321Z" fill="#DC8CA8"/>
<path fill-rule="evenodd" clip-rule="evenodd" d="M114.115 82.1353C111.334 81.5183 108.645 85.7357 108.324 90.7025C108.003 95.6693 109.971 100.607 111.177 102.059C112.679 103.867 114.052 104.136 115.188 103.406C117.171 102.824 118.702 98.9586 118.771 93.9315C118.797 92.0132 118.607 90.1659 118.254 88.5323C117.93 85.4059 116.878 82.7483 114.115 82.1353Z" fill="#AC6D83"/>
<path fill-rule="evenodd" clip-rule="evenodd" d="M135.068 68.69C132.288 68.073 129.598 72.2904 129.278 77.2572C128.957 82.224 130.924 87.162 132.131 88.6141C133.633 90.4221 135.006 90.6907 136.142 89.9605C138.124 89.3785 139.655 85.5133 139.724 80.4862C139.751 78.5679 139.561 76.7206 139.208 75.087C138.884 71.9606 137.831 69.303 135.068 68.69Z" fill="#DC8CA8"/>
<path fill-rule="evenodd" clip-rule="evenodd" d="M130.785 68.1587C128.005 67.5418 125.316 71.7591 124.995 76.7259C124.674 81.6927 126.641 86.6308 127.848 88.0828C129.35 89.8908 130.723 90.1595 131.859 89.4293C133.841 88.8473 135.373 84.9821 135.442 79.955C135.468 78.0366 135.278 76.1893 134.925 74.5558C134.601 71.4293 133.549 68.7718 130.785 68.1587Z" fill="#AC6D83"/>
<path fill-rule="evenodd" clip-rule="evenodd" d="M120.454 109.688C130.057 111.771 140.697 102.042 143.781 90.9383C146.866 79.8345 141.966 68.889 137.804 65.8263C132.769 62.1213 127.588 61.4201 123.005 63.0389C116.688 65.2159 110.632 72.5825 107.934 82.2962C105.437 91.2838 106.695 99.0289 110.441 103.633C112.362 106.451 115.521 108.618 120.454 109.688ZM119.361 82.5035C116.58 81.8866 113.891 86.1039 113.57 91.0707C113.25 96.0375 115.217 100.976 116.423 102.428C117.925 104.236 119.299 104.504 120.435 103.774C122.417 103.192 123.948 99.3269 124.017 94.2998C124.043 92.3815 123.854 90.5342 123.5 88.9006C123.177 85.7742 122.124 83.1166 119.361 82.5035ZM129.269 77.2687C129.505 72.2972 132.122 68.0347 134.913 68.6043C135.407 68.7051 135.848 68.8717 136.241 69.0951C136.565 69.2507 136.875 69.4913 137.166 69.806C137.841 70.4854 138.316 71.391 138.646 72.4333C139.434 74.5863 139.855 77.5094 139.708 80.5979C139.538 84.1849 138.642 87.1543 137.415 88.746C136.157 90.5894 134.375 90.9721 132.314 88.5755C131.084 87.1442 129.033 82.2402 129.269 77.2687Z" fill="#F4A4C0"/>
<path fill-rule="evenodd" clip-rule="evenodd" d="M120.454 109.688C130.057 111.771 140.697 102.042 143.781 90.9383C146.866 79.8345 141.966 68.889 137.804 65.8263C132.769 62.1213 127.588 61.4201 123.005 63.0389C116.688 65.2159 110.632 72.5825 107.934 82.2962C105.437 91.2838 106.695 99.0289 110.441 103.633C112.362 106.451 115.521 108.618 120.454 109.688ZM119.361 82.5035C116.58 81.8866 113.891 86.1039 113.57 91.0707C113.25 96.0375 115.217 100.976 116.423 102.428C117.925 104.236 119.299 104.504 120.435 103.774C122.417 103.192 123.948 99.3269 124.017 94.2998C124.043 92.3815 123.854 90.5342 123.5 88.9006C123.177 85.7742 122.124 83.1166 119.361 82.5035ZM129.269 77.2687C129.505 72.2972 132.122 68.0347 134.913 68.6043C135.407 68.7051 135.848 68.8717 136.241 69.0951C136.565 69.2507 136.875 69.4913 137.166 69.806C137.841 70.4854 138.316 71.391 138.646 72.4333C139.434 74.5863 139.855 77.5094 139.708 80.5979C139.538 84.1849 138.642 87.1543 137.415 88.746C136.157 90.5894 134.375 90.9721 132.314 88.5755C131.084 87.1442 129.033 82.2402 129.269 77.2687Z" fill="url(#paint5_radial_3768_58504)" fill-opacity="0.2"/>
<path fill-rule="evenodd" clip-rule="evenodd" d="M123.18 63.545L123.18 63.545C117.088 65.6443 111.12 72.825 108.45 82.4394C105.982 91.3241 107.256 98.8702 110.856 103.295L110.87 103.313L110.883 103.331C112.712 106.015 115.741 108.118 120.567 109.165C125.152 110.159 130.048 108.344 134.218 104.848C138.383 101.356 141.753 96.2406 143.265 90.795C144.776 85.3568 144.333 79.949 142.998 75.5215C141.656 71.0729 139.438 67.6936 137.486 66.2574C132.577 62.6451 127.58 61.9905 123.184 63.5437L123.18 63.545ZM115.097 84.3974C116.198 82.7378 117.755 81.599 119.477 81.981C121.026 82.3248 122.097 83.2507 122.81 84.4933C123.508 85.7103 123.863 87.2295 124.03 88.8162C124.388 90.4839 124.579 92.3613 124.552 94.3072C124.517 96.8679 124.11 99.156 123.443 100.895C122.804 102.562 121.869 103.869 120.66 104.265C119.987 104.676 119.222 104.808 118.412 104.565C117.601 104.322 116.799 103.718 116.011 102.77C115.341 101.962 114.522 100.285 113.911 98.2191C113.295 96.1374 112.871 93.597 113.036 91.0363C113.201 88.4753 113.977 86.0856 115.097 84.3974ZM120.435 103.774C119.299 104.504 117.925 104.236 116.423 102.428C115.217 100.976 113.25 96.0375 113.57 91.0707C113.891 86.1039 116.58 81.8866 119.361 82.5035C122.124 83.1166 123.177 85.7742 123.5 88.9006C123.854 90.5342 124.043 92.3815 124.017 94.2998C123.948 99.3269 122.417 103.192 120.435 103.774ZM130.682 70.5703C131.754 68.8923 133.292 67.7272 135.02 68.0798C135.56 68.1901 136.049 68.3729 136.489 68.6208C136.878 68.8104 137.233 69.0912 137.553 69.4354C138.3 70.1904 138.808 71.1738 139.153 72.2605C139.967 74.4915 140.392 77.4831 140.243 80.6233C140.071 84.2505 139.167 87.3416 137.848 89.0606C137.173 90.045 136.28 90.7519 135.182 90.7858C134.087 90.8196 132.985 90.1761 131.909 88.9245C131.224 88.1286 130.377 86.465 129.731 84.4102C129.08 82.3394 128.612 79.8064 128.734 77.2433C128.856 74.6799 129.591 72.2773 130.682 70.5703ZM137.415 88.746C138.642 87.1543 139.538 84.1849 139.708 80.5979C139.855 77.5094 139.434 74.5863 138.646 72.4333C138.316 71.391 137.841 70.4854 137.166 69.806C136.875 69.4913 136.565 69.2507 136.241 69.0951C135.848 68.8717 135.407 68.7051 134.913 68.6043C132.122 68.0347 129.505 72.2972 129.269 77.2687C129.033 82.2402 131.084 87.1442 132.314 88.5755C134.375 90.9721 136.157 90.5894 137.415 88.746ZM143.781 90.9383C140.697 102.042 130.057 111.771 120.454 109.688C115.521 108.618 112.362 106.451 110.441 103.633C106.695 99.0289 105.437 91.2838 107.934 82.2962C110.632 72.5825 116.688 65.2159 123.005 63.0389C127.588 61.4201 132.769 62.1213 137.804 65.8263C141.966 68.889 146.866 79.8345 143.781 90.9383Z" fill="url(#paint6_linear_3768_58504)" fill-opacity="0.5"/>
<path d="M95.8596 60.2003C96.1247 62.3235 95.0305 64.2082 93.4157 64.4098C91.8009 64.6114 90.2769 63.0537 90.0118 60.9304C89.7466 58.8072 90.8408 56.9225 92.4557 56.7209C94.0705 56.5192 95.5945 58.077 95.8596 60.2003Z" fill="#664F57"/>
<path d="M121.259 44.9486C121.333 46.8864 120.32 48.4987 118.995 48.5498C117.67 48.6009 116.536 47.0714 116.461 45.1336C116.386 43.1959 117.4 41.5836 118.725 41.5325C120.049 41.4814 121.184 43.0109 121.259 44.9486Z" fill="#664F57"/>
<path fill-rule="evenodd" clip-rule="evenodd" d="M48.1297 12.3687C48.468 11.5689 50.2017 10.9592 51.427 11.4774L71.1232 19.8071C72.3485 20.3252 72.9217 21.7386 72.4035 22.9639C71.8854 24.1892 70.472 24.7625 69.2467 24.2443L49.3255 15.1873C48.1002 14.6691 47.7914 13.1684 48.1297 12.3687Z" fill="#D28CA5"/>
<path fill-rule="evenodd" clip-rule="evenodd" d="M48.9862 9.89294C49.8668 9.63021 51.0063 9.55904 52.0521 10.0013L71.7483 18.331C73.7904 19.1947 74.7458 21.5503 73.8822 23.5925C73.0185 25.6346 70.6629 26.59 68.6207 25.7264L68.601 25.718L48.6772 16.6598C47.5802 16.1875 46.9285 15.2881 46.6243 14.4148C46.3324 13.577 46.2965 12.5823 46.6502 11.7461C46.8908 11.1773 47.313 10.7749 47.6899 10.5094C48.0822 10.233 48.5318 10.0285 48.9862 9.89294ZM49.6073 13.0929C49.6779 13.0533 49.7778 13.0084 49.9044 12.9707C50.2816 12.8582 50.6216 12.8835 50.8011 12.9595L70.4972 21.2891C70.9057 21.4619 71.0968 21.933 70.924 22.3414C70.7533 22.745 70.2913 22.9364 69.8863 22.7742L49.9703 13.7195L49.9506 13.7112C49.8358 13.6627 49.7272 13.5589 49.6573 13.3583C49.6251 13.2656 49.6096 13.1722 49.6073 13.0929Z" fill="url(#paint7_linear_3768_58504)"/>
<path d="M122.36 1.66752C111.595 -3.7378 102.461 6.55802 100.951 12.599C99.7082 17.569 102.687 20.9047 105.29 23.1967C106.44 24.2094 108.236 24.0119 109.187 22.8104L123.02 5.33388C123.97 4.13389 123.727 2.3543 122.36 1.66752Z" fill="#F8C7D8"/>
<path d="M121.882 3.01588C128.51 3.06454 121.182 26.0882 121.183 27.977C121.184 29.8657 102.856 25.3655 105.207 17.6812C107.557 9.99694 115.254 2.96721 121.882 3.01588Z" fill="#DC8CA8"/>
<path d="M121.882 3.01588C128.51 3.06454 121.182 26.0882 121.183 27.977C121.184 29.8657 102.856 25.3655 105.207 17.6812C107.557 9.99694 115.254 2.96721 121.882 3.01588Z" fill="url(#paint8_linear_3768_58504)" fill-opacity="0.2"/>
<path fill-rule="evenodd" clip-rule="evenodd" d="M122.255 27.9882C122.255 27.9882 122.255 27.9869 122.255 27.9845C122.255 28.6438 121.815 29.0387 121.47 29.2166C121.153 29.38 120.795 29.4409 120.493 29.4668C119.867 29.5206 119.059 29.4541 118.184 29.3102C116.412 29.0189 114.11 28.3674 111.891 27.4101C109.684 26.4584 107.464 25.1638 105.933 23.5395C104.383 21.8937 103.447 19.7866 104.184 17.3761C105.424 13.3237 108.055 9.48286 111.229 6.65714C114.389 3.84478 118.216 1.92643 121.891 1.95341C123.095 1.96225 124.023 2.52251 124.641 3.43084C125.218 4.27855 125.503 5.3909 125.634 6.56025C125.896 8.91122 125.579 11.9762 125.075 14.9911C124.566 18.0296 123.85 21.1169 123.266 23.5453C123.167 23.9566 123.072 24.3474 122.983 24.7155C122.807 25.4415 122.652 26.0796 122.529 26.6134C122.436 27.0146 122.364 27.3429 122.316 27.5948C122.292 27.7206 122.276 27.8193 122.266 27.8935C122.256 27.9607 122.255 27.9882 122.255 27.9882ZM121.944 24.4554C123.629 17.5057 127.131 3.06251 121.883 3.02398C115.255 2.97531 107.559 10.005 105.208 17.6893C102.857 25.3736 121.185 29.8738 121.184 27.9851C121.184 27.5919 121.501 26.2827 121.944 24.4554Z" fill="#FCCCDD"/>
<path d="M108.53 19.1031C105.09 18.6117 102.848 18.2105 103.973 20.9664C105.099 23.7223 107.562 25.5551 111.7 27.3912C116.738 29.8503 118.822 29.8657 122.181 29.2306C117.896 22.7409 114.635 20.6161 108.53 19.1031Z" fill="#F8C7D8"/>
<path fill-rule="evenodd" clip-rule="evenodd" d="M53.9885 72.3928C50.8381 70.1058 46.5334 64.0303 49.3291 53.7796C52.3969 42.5311 60.0081 37.9031 63.4302 36.9951C66.2804 36.1084 72.6556 35.098 75.8537 37.9489C77.5526 38.6387 79.3032 39.7866 80.9318 41.4152C82.1838 42.6672 80.2197 44.4658 77.1043 47.3186C71.6736 52.2917 62.7444 60.4684 61.2533 74.5379C61.0707 76.2611 59.0834 77.2804 57.7365 76.1901C56.0388 74.8158 54.8211 73.5942 53.9885 72.3928Z" fill="#F8C7D8"/>
<path fill-rule="evenodd" clip-rule="evenodd" d="M53.9885 72.3928C50.8381 70.1058 46.5334 64.0303 49.3291 53.7796C52.3969 42.5311 60.0081 37.9031 63.4302 36.9951C66.2804 36.1084 72.6556 35.098 75.8537 37.9489C77.5526 38.6387 79.3032 39.7866 80.9318 41.4152C82.1838 42.6672 80.2197 44.4658 77.1043 47.3186C71.6736 52.2917 62.7444 60.4684 61.2533 74.5379C61.0707 76.2611 59.0834 77.2804 57.7365 76.1901C56.0388 74.8158 54.8211 73.5942 53.9885 72.3928Z" fill="url(#paint9_radial_3768_58504)" fill-opacity="0.2"/>
<path fill-rule="evenodd" clip-rule="evenodd" d="M53.9885 72.3928C50.8381 70.1058 46.5334 64.0303 49.3291 53.7796C52.3969 42.5311 60.0081 37.9031 63.4302 36.9951C66.2804 36.1084 72.6556 35.098 75.8537 37.9489C77.5526 38.6387 79.3032 39.7866 80.9318 41.4152C82.1838 42.6672 80.2197 44.4658 77.1043 47.3186C71.6736 52.2917 62.7444 60.4684 61.2533 74.5379C61.0707 76.2611 59.0834 77.2804 57.7365 76.1901C56.0388 74.8158 54.8211 73.5942 53.9885 72.3928Z" fill="url(#paint10_linear_3768_58504)" fill-opacity="0.5"/>
<path fill-rule="evenodd" clip-rule="evenodd" d="M75.9975 37.7203C77.719 38.4265 79.4835 39.5898 81.1217 41.228C81.4913 41.5976 81.6351 42.0281 81.5655 42.5053C81.4991 42.9609 81.2416 43.4358 80.8703 43.9295C80.1315 44.9121 78.8475 46.0878 77.3086 47.497L77.2856 47.5181C71.8553 52.4908 62.9996 60.6075 61.5201 74.5681C61.4183 75.528 60.8142 76.2905 60.049 76.6619C59.2805 77.0349 58.3334 77.0192 57.5687 76.4002C55.8785 75.0319 54.6471 73.803 53.7951 72.5846C50.5622 70.2147 46.256 64.0343 49.0714 53.7113C52.1631 42.3751 59.8412 37.6754 63.3566 36.7399C64.803 36.2906 67.1332 35.8119 69.5113 35.8048C71.8671 35.7977 74.3249 36.2532 75.9975 37.7203ZM69.5129 36.3401C67.1942 36.3471 64.9146 36.8158 63.5103 37.2527L63.5049 37.2544L63.4994 37.2559C60.1681 38.1397 52.6302 42.697 49.5879 53.8521C46.8226 63.9913 51.0825 69.954 54.1464 72.1783L54.1832 72.205L54.2091 72.2424C55.0214 73.4145 56.2176 74.6177 57.9055 75.9841C58.4877 76.4554 59.2077 76.4752 59.8152 76.1803C60.4261 75.8839 60.9068 75.2751 60.9878 74.5117C62.4895 60.3415 71.4828 52.1061 76.9148 47.1318L76.9241 47.1233C78.4904 45.6889 79.7371 44.5458 80.4425 43.6077C80.7952 43.1387 80.9887 42.7508 81.0358 42.428C81.0797 42.1267 80.9995 41.8628 80.7432 41.6065C79.1376 40.0009 77.4165 38.8741 75.7536 38.1989L75.7107 38.1815L75.6762 38.1507C74.1513 36.7914 71.8404 36.333 69.5129 36.3401Z" fill="#FCCCDD"/>
<path d="M55.3104 57.5421C54.7721 61.2097 55.5133 68.1352 58.7425 73.0859C59.7212 74.5863 61.7273 73.7272 61.9196 71.9463C64.0134 52.5501 79.3904 44.1426 79.3904 43.2302C79.3904 42.251 73.884 38.2749 71.1235 37.773C67.4341 36.1917 56.9577 46.3175 55.3104 57.5421Z" fill="#DC7E9F"/>
<path d="M55.3104 57.5421C54.7721 61.2097 55.5133 68.1352 58.7425 73.0859C59.7212 74.5863 61.7273 73.7272 61.9196 71.9463C64.0134 52.5501 79.3904 44.1426 79.3904 43.2302C79.3904 42.251 73.884 38.2749 71.1235 37.773C67.4341 36.1917 56.9577 46.3175 55.3104 57.5421Z" fill="url(#paint11_linear_3768_58504)" fill-opacity="0.2"/>
<defs>
<radialGradient id="paint0_radial_3768_58504" cx="0" cy="0" r="1" gradientUnits="userSpaceOnUse" gradientTransform="translate(72.6279 15.0074) rotate(100.113) scale(118.354 106.547)">
<stop stop-color="white" stop-opacity="0.5"/>
<stop offset="0.953125" stop-color="#E098B1" stop-opacity="0.5"/>
</radialGradient>
<linearGradient id="paint1_linear_3768_58504" x1="99.5607" y1="41.2882" x2="17.0602" y2="81.0546" gradientUnits="userSpaceOnUse">
<stop stop-color="#FBAEC9" stop-opacity="0"/>
<stop offset="1" stop-color="#DA98AF"/>
</linearGradient>
<linearGradient id="paint2_linear_3768_58504" x1="72.6285" y1="93.3128" x2="72.6285" y2="158.052" gradientUnits="userSpaceOnUse">
<stop/>
<stop offset="1" stop-opacity="0"/>
</linearGradient>
<linearGradient id="paint3_linear_3768_58504" x1="115.696" y1="58.2812" x2="115.696" y2="107.567" gradientUnits="userSpaceOnUse">
<stop stop-color="#FFD6E4"/>
<stop offset="0.0001" stop-color="#FFD5E4" stop-opacity="0.96875"/>
<stop offset="1" stop-color="#E6A3BA"/>
</linearGradient>
<linearGradient id="paint4_linear_3768_58504" x1="115.697" y1="58.2833" x2="115.697" y2="107.569" gradientUnits="userSpaceOnUse">
<stop stop-color="white"/>
<stop offset="1" stop-color="white" stop-opacity="0"/>
</linearGradient>
<radialGradient id="paint5_radial_3768_58504" cx="0" cy="0" r="1" gradientUnits="userSpaceOnUse" gradientTransform="translate(123.52 77.3022) rotate(75.4889) scale(30.2908 24.1761)">
<stop stop-color="#7C7C7C"/>
<stop offset="1" stop-color="white" stop-opacity="0.4"/>
</radialGradient>
<linearGradient id="paint6_linear_3768_58504" x1="125.694" y1="62.2188" x2="125.694" y2="109.971" gradientUnits="userSpaceOnUse">
<stop stop-color="white"/>
<stop offset="1" stop-color="white" stop-opacity="0"/>
</linearGradient>
<linearGradient id="paint7_linear_3768_58504" x1="56.4441" y1="25.2065" x2="57.2971" y2="16.9604" gradientUnits="userSpaceOnUse">
<stop stop-color="#FCECF2"/>
<stop offset="1" stop-color="#FCECF2" stop-opacity="0"/>
</linearGradient>
<linearGradient id="paint8_linear_3768_58504" x1="114.827" y1="7.19142" x2="114.827" y2="18.0758" gradientUnits="userSpaceOnUse">
<stop stop-opacity="0.6"/>
<stop offset="1" stop-opacity="0"/>
</linearGradient>
<radialGradient id="paint9_radial_3768_58504" cx="0" cy="0" r="1" gradientUnits="userSpaceOnUse" gradientTransform="translate(63.021 40.3009) rotate(118.217) scale(22.0024 17.836)">
<stop stop-color="#FACCDC"/>
<stop offset="1" stop-color="#F0ACC4"/>
</radialGradient>
<linearGradient id="paint10_linear_3768_58504" x1="53.4627" y1="74.281" x2="61.1456" y2="44.0618" gradientUnits="userSpaceOnUse">
<stop stop-color="#AC7387"/>
<stop offset="1" stop-color="white"/>
</linearGradient>
<linearGradient id="paint11_linear_3768_58504" x1="67.2704" y1="37.6094" x2="67.2704" y2="76.3746" gradientUnits="userSpaceOnUse">
<stop stop-color="white"/>
<stop offset="0.46938" stop-opacity="0"/>
</linearGradient>
</defs>
</svg>
