<svg width="24" height="25" viewBox="0 0 24 25" fill="none" xmlns="http://www.w3.org/2000/svg">
<path fill-rule="evenodd" clip-rule="evenodd" d="M11.4548 8.38128C11.827 8.48602 12.0438 8.8726 11.939 9.24475L11.7158 10.038H13.2559L13.5767 8.86973C13.679 8.49693 14.0642 8.2777 14.437 8.38007C14.8098 8.48244 15.0291 8.86764 14.9267 9.24044L14.7077 10.038H15.5324C15.919 10.038 16.2324 10.3514 16.2324 10.738C16.2324 11.1246 15.919 11.438 15.5324 11.438H14.3233L13.8276 13.2429H14.8603C15.2469 13.2429 15.5603 13.5563 15.5603 13.9429C15.5603 14.3295 15.2469 14.6429 14.8603 14.6429H13.4432L13.1635 15.6614C13.0611 16.0342 12.6759 16.2534 12.3031 16.1511C11.9303 16.0487 11.7111 15.6635 11.8135 15.2907L11.9914 14.6429H10.4197L10.1319 15.6657C10.0272 16.0378 9.64057 16.2546 9.26843 16.1499C8.89629 16.0451 8.67951 15.6586 8.78425 15.2864L8.96535 14.6429H8.41597C8.02937 14.6429 7.71597 14.3295 7.71597 13.9429C7.71597 13.5563 8.02937 13.2429 8.41597 13.2429H9.35937L9.86736 11.438H9.08809C8.70149 11.438 8.38809 11.1246 8.38809 10.738C8.38809 10.3514 8.70149 10.038 9.08809 10.038H10.2614L10.5914 8.86546C10.6961 8.49332 11.0827 8.27655 11.4548 8.38128ZM11.3217 11.438L10.8138 13.2429H12.3758L12.8714 11.438H11.3217Z" fill="#949494"/>
<path fill-rule="evenodd" clip-rule="evenodd" d="M12.0645 4.10156C7.64618 4.10156 4.06445 7.68328 4.06445 12.1016C4.06445 16.5198 7.64618 20.1016 12.0645 20.1016C16.4827 20.1016 20.0645 16.5198 20.0645 12.1016C20.0645 7.68328 16.4827 4.10156 12.0645 4.10156ZM12.0645 5.70156C8.52983 5.70156 5.66445 8.56694 5.66445 12.1016C5.66445 15.6362 8.52983 18.5016 12.0645 18.5016C15.5991 18.5016 18.4645 15.6362 18.4645 12.1016C18.4645 8.56694 15.5991 5.70156 12.0645 5.70156Z" fill="#949494"/>
</svg>
