<svg width="25" height="25" viewBox="0 0 25 25" fill="none" xmlns="http://www.w3.org/2000/svg">
<path fill-rule="evenodd" clip-rule="evenodd" d="M9.42358 9.73589C9.42358 9.34929 9.73698 9.03589 10.1236 9.03589H12.3904C13.721 9.03589 14.7997 10.1145 14.7997 11.4451C14.7997 12.7757 13.721 13.8543 12.3904 13.8543H10.8236V16.0479C10.8236 16.4345 10.5102 16.7479 10.1236 16.7479C9.73698 16.7479 9.42358 16.4345 9.42358 16.0479V9.73589ZM10.8236 12.4543V10.4359H12.3904C12.9478 10.4359 13.3997 10.8877 13.3997 11.4451C13.3997 12.0025 12.9478 12.4543 12.3904 12.4543H10.8236Z" fill="#949494"/>
<path fill-rule="evenodd" clip-rule="evenodd" d="M12.0645 4.89185C7.64618 4.89185 4.06445 8.47357 4.06445 12.8918C4.06445 17.3101 7.64617 20.8918 12.0645 20.8918C16.4827 20.8918 20.0645 17.3101 20.0645 12.8918C20.0645 8.47357 16.4827 4.89185 12.0645 4.89185ZM12.0645 6.49185C8.52983 6.49185 5.66445 9.35722 5.66445 12.8918C5.66445 16.4265 8.52983 19.2918 12.0645 19.2918C15.5991 19.2918 18.4645 16.4265 18.4645 12.8918C18.4645 9.35722 15.5991 6.49185 12.0645 6.49185Z" fill="#949494"/>
</svg>
