<svg width="17" height="17" viewBox="0 0 17 17" fill="none" xmlns="http://www.w3.org/2000/svg">
<path d="M7.71053 11.1931C7.71053 10.8392 7.99742 10.5523 8.35132 10.5523C8.70522 10.5523 8.99211 10.8392 8.99211 11.1931C8.99211 11.547 8.70522 11.8339 8.35132 11.8339C7.99742 11.8339 7.71053 11.547 7.71053 11.1931Z" fill="#949494"/>
<path d="M6.68156 6.90583C6.68156 7.18197 6.90542 7.40583 7.18156 7.40583C7.4577 7.40583 7.68156 7.18197 7.68156 6.90583C7.68156 6.74185 7.75261 6.6162 7.87932 6.51796C8.01618 6.41185 8.20877 6.34905 8.39144 6.34905C8.38974 6.34885 8.39008 6.34905 8.39144 6.34905C8.39796 6.3498 8.42663 6.35325 8.46854 6.36694C8.51763 6.38299 8.5703 6.40853 8.61715 6.44507C8.69352 6.50465 8.79591 6.62277 8.79591 6.90583C8.79591 7.01823 8.76921 7.10907 8.73021 7.18337C8.68007 7.27891 8.61282 7.38307 8.52876 7.50701L8.46951 7.59381C8.40333 7.69049 8.32976 7.79796 8.26293 7.904C8.09155 8.17596 7.89145 8.54614 7.89145 8.97286V9.30619C7.89145 9.58234 8.1153 9.80619 8.39145 9.80619C8.66759 9.80619 8.89145 9.58234 8.89145 9.30619V8.97286C8.89145 8.8473 8.95376 8.68343 9.10896 8.43715C9.16473 8.34865 9.22291 8.26363 9.28635 8.17094C9.30897 8.13789 9.33226 8.10385 9.35635 8.06834C9.44287 7.94078 9.53748 7.79707 9.61567 7.6481C9.72723 7.43553 9.79591 7.18578 9.79591 6.90583C9.79591 6.31795 9.55408 5.90769 9.23223 5.65661C8.93695 5.42626 8.59989 5.34905 8.39144 5.34905C8.00468 5.34905 7.59232 5.47513 7.2666 5.72766C6.93073 5.98806 6.68156 6.39081 6.68156 6.90583Z" fill="#949494"/>
<path fill-rule="evenodd" clip-rule="evenodd" d="M8.23861 3.37842C5.29309 3.37842 2.90527 5.76623 2.90527 8.71175C2.90527 11.6573 5.29309 14.0451 8.23861 14.0451C11.1841 14.0451 13.5719 11.6573 13.5719 8.71175C13.5719 5.76623 11.1841 3.37842 8.23861 3.37842ZM8.23861 4.37842C5.84537 4.37842 3.90527 6.31852 3.90527 8.71175C3.90527 11.105 5.84537 13.0451 8.23861 13.0451C10.6318 13.0451 12.5719 11.105 12.5719 8.71175C12.5719 6.31852 10.6318 4.37842 8.23861 4.37842Z" fill="#949494"/>
</svg>
