<svg width="17" height="16" viewBox="0 0 17 16" fill="none" xmlns="http://www.w3.org/2000/svg">
<path fill-rule="evenodd" clip-rule="evenodd" d="M3.04932 8.00084C3.04932 7.7247 3.27318 7.50084 3.54932 7.50084L11.9774 7.50086L9.19902 4.72245C9.00375 4.52719 9.00375 4.21061 9.19902 4.01534C9.39428 3.82008 9.71086 3.82008 9.90612 4.01534L13.5381 7.64731C13.6319 7.74108 13.6845 7.86826 13.6845 8.00087C13.6845 8.13348 13.6319 8.26066 13.5381 8.35442L9.90613 11.9863C9.71086 12.1816 9.39428 12.1816 9.19902 11.9863C9.00376 11.7911 9.00376 11.4745 9.19903 11.2792L11.9774 8.50086L3.54931 8.50084C3.27317 8.50084 3.04932 8.27698 3.04932 8.00084Z" fill="#949494"/>
</svg>
