<svg width="25" height="25" viewBox="0 0 25 25" fill="none" xmlns="http://www.w3.org/2000/svg">
<path d="M18.3428 5.54939C18.3428 5.10756 17.9846 4.74939 17.5428 4.74939C17.1009 4.74939 16.7428 5.10756 16.7428 5.54939V14.0059C16.7428 14.4477 16.3846 14.8059 15.9428 14.8059H6.24794L9.64814 11.4057C9.96057 11.0933 9.96057 10.5868 9.64816 10.2744C9.33574 9.96194 8.82921 9.96193 8.51679 10.2743L4.34244 14.4486C3.79568 14.9953 3.79569 15.8818 4.34244 16.4285L8.51679 20.6027C8.82922 20.9151 9.33575 20.9151 9.64816 20.6027C9.96057 20.2903 9.96057 19.7837 9.64814 19.4713L6.58255 16.4059H15.9428C17.2682 16.4059 18.3428 15.3313 18.3428 14.0059V5.54939Z" fill="#949494"/>
</svg>
