<svg width="24" height="25" viewBox="0 0 24 25" fill="none" xmlns="http://www.w3.org/2000/svg">
<path d="M10.978 16.4961C10.978 15.9642 11.4092 15.533 11.9412 15.533C12.4731 15.533 12.9043 15.9642 12.9043 16.4961C12.9043 17.028 12.4731 17.4592 11.9412 17.4592C11.4092 17.4592 10.978 17.028 10.978 16.4961Z" fill="#949494"/>
<path d="M11.1409 13.3245C11.1409 13.7663 11.499 14.1245 11.9409 14.1245C12.3827 14.1245 12.7409 13.7663 12.7409 13.3245L12.7409 9.32451C12.7409 8.88268 12.3827 8.52451 11.9409 8.52451C11.499 8.52451 11.1409 8.88268 11.1409 9.32451L11.1409 13.3245Z" fill="#949494"/>
<path fill-rule="evenodd" clip-rule="evenodd" d="M12 4.89185C7.58172 4.89185 4 8.47357 4 12.8918C4 17.3101 7.58172 20.8918 12 20.8918C16.4183 20.8918 20 17.3101 20 12.8918C20 8.47357 16.4183 4.89185 12 4.89185ZM12 6.49185C8.46538 6.49185 5.6 9.35722 5.6 12.8918C5.6 16.4265 8.46538 19.2918 12 19.2918C15.5346 19.2918 18.4 16.4265 18.4 12.8918C18.4 9.35722 15.5346 6.49185 12 6.49185Z" fill="#949494"/>
</svg>
