<svg width="17" height="17" viewBox="0 0 17 17" fill="none" xmlns="http://www.w3.org/2000/svg">
<path fill-rule="evenodd" clip-rule="evenodd" d="M5.04058 3.44739C4.10169 3.44739 3.34058 4.2085 3.34058 5.14739V6.48776C3.3214 6.57293 3.31128 6.66153 3.31128 6.75249V12.8268C3.31128 13.4895 3.84854 14.0268 4.51128 14.0268H12.7779C13.4407 14.0268 13.9779 13.4895 13.9779 12.8268V6.75249C13.9779 6.08975 13.4407 5.55249 12.7779 5.55249H8.8608L7.25362 3.94531C6.93481 3.62649 6.50241 3.44739 6.05154 3.44739H5.04058ZM7.44659 5.55249L6.54651 4.65241C6.41524 4.52114 6.23719 4.44739 6.05154 4.44739H5.04058C4.65398 4.44739 4.34058 4.76079 4.34058 5.14739V5.56454C4.39633 5.5566 4.45333 5.55249 4.51128 5.55249H7.44659ZM4.31128 6.90411H4.34058V6.64822C4.37572 6.5908 4.43903 6.55249 4.51128 6.55249H12.7779C12.8884 6.55249 12.9779 6.64203 12.9779 6.75249V12.8268C12.9779 12.9372 12.8884 13.0268 12.7779 13.0268H4.51128C4.40082 13.0268 4.31128 12.9372 4.31128 12.8268V6.90411Z" fill="#949494"/>
</svg>
