<svg width="24" height="25" viewBox="0 0 24 25" fill="none" xmlns="http://www.w3.org/2000/svg">
<path fill-rule="evenodd" clip-rule="evenodd" d="M8.16712 6.12481C7.87424 5.83191 7.87424 5.35704 8.16714 5.06415C8.46003 4.77126 8.93491 4.77126 9.2278 5.06416L11.2122 7.04858H12.7826L14.7666 5.06462C15.0595 4.77174 15.5344 4.77175 15.8273 5.06466C16.1202 5.35756 16.1202 5.83243 15.8273 6.12532L14.9039 7.04858H18.8C19.4627 7.04858 20 7.58584 20 8.24858V9.84858C20 10.2653 19.7876 10.6324 19.4651 10.8475C19.2203 11.0109 18.9937 11.2493 18.9937 11.5435V19.6064C18.9937 20.2691 18.4564 20.8064 17.7937 20.8064H6.19365C5.53091 20.8064 4.99365 20.2691 4.99365 19.6064V11.5359C4.99365 11.244 4.77056 11.0069 4.52878 10.8434C4.20974 10.6278 4 10.2627 4 9.84858V8.24858C4 7.58584 4.53726 7.04858 5.2 7.04858H9.09088L8.16712 6.12481ZM5.4 9.7448V8.44858H11.3V19.4064H6.39365V11.5359C6.39365 10.592 5.75906 10.0066 5.4 9.7448ZM12.7 19.4064V8.44858H18.6V9.74405C18.2375 10.0051 17.5937 10.5921 17.5937 11.5435V19.4064H12.7Z" fill="#949494"/>
</svg>
