<svg width="25" height="25" viewBox="0 0 25 25" fill="none" xmlns="http://www.w3.org/2000/svg">
<path fill-rule="evenodd" clip-rule="evenodd" d="M6.00586 10.4037C6.00586 6.96161 8.79621 4.17126 12.2383 4.17126C15.6804 4.17126 18.4707 6.96161 18.4707 10.4037C18.4707 11.9857 17.8813 13.43 16.9101 14.529C16.881 14.5834 16.8483 14.6371 16.8119 14.6899L13.5192 19.4638C12.8832 20.3859 11.521 20.3859 10.885 19.4638L7.59221 14.6899C7.51524 14.5783 7.45476 14.4625 7.40965 14.3445C6.53219 13.2706 6.00586 11.8986 6.00586 10.4037ZM12.2383 7.41053C10.6251 7.41053 9.31739 8.71826 9.31739 10.3314C9.31739 11.9446 10.6251 13.2523 12.2383 13.2523C13.8514 13.2523 15.1592 11.9446 15.1592 10.3314C15.1592 8.71826 13.8514 7.41053 12.2383 7.41053Z" fill="#949494"/>
</svg>
