<svg width="24" height="25" viewBox="0 0 24 25" fill="none" xmlns="http://www.w3.org/2000/svg">
<path fill-rule="evenodd" clip-rule="evenodd" d="M12.0218 5.99209L5.64103 10.8397C5.52898 10.9249 5.46318 11.0575 5.46318 11.1982L5.463 19.8302L9.27609 19.8303L9.27609 14.2113C9.27609 13.4655 9.88075 12.8608 10.6266 12.8608H13.4266C14.1725 12.8608 14.7771 13.4655 14.7771 14.2113L14.7771 19.8303L18.5371 19.8303L18.5373 11.196C18.5373 11.0558 18.472 10.9236 18.3606 10.8384L12.0218 5.99209ZM12.8424 4.73053L12.3876 5.3254L12.8424 4.73053L19.272 9.64629C19.7547 10.0154 20.0379 10.5884 20.0379 11.1961L20.0377 19.9804C20.0377 20.7263 19.4331 21.3309 18.6872 21.3309L14.6271 21.3309C13.8812 21.3309 13.2765 20.7263 13.2765 19.9804L13.2765 14.3614H10.7767L10.7767 19.9804C10.7767 20.7245 10.1748 21.3309 9.42718 21.3309L5.31288 21.3308C4.56697 21.3308 3.96239 20.7261 3.9624 19.9803L3.96258 11.1982C3.9626 10.5884 4.24772 10.0137 4.73325 9.64486L11.2051 4.72803L11.659 5.32547L11.2051 4.72803C11.6892 4.36024 12.3594 4.36126 12.8424 4.73053Z" fill="#949494"/>
</svg>
