<svg width="24" height="25" viewBox="0 0 24 25" fill="none" xmlns="http://www.w3.org/2000/svg">
<path d="M11.9731 8.59185C12.415 8.59185 12.7731 8.95002 12.7731 9.39185V12.0918H15.4731C15.915 12.0918 16.2731 12.45 16.2731 12.8918C16.2731 13.3337 15.915 13.6918 15.4731 13.6918H12.7731V16.3918C12.7731 16.8337 12.415 17.1918 11.9731 17.1918C11.5313 17.1918 11.1731 16.8337 11.1731 16.3918V13.6918H8.47314C8.03132 13.6918 7.67314 13.3337 7.67314 12.8918C7.67314 12.45 8.03132 12.0918 8.47314 12.0918H11.1731V9.39185C11.1731 8.95002 11.5313 8.59185 11.9731 8.59185Z" fill="#949494"/>
<path fill-rule="evenodd" clip-rule="evenodd" d="M3.97314 6.19634C3.97314 5.5336 4.5104 4.99634 5.17314 4.99634H18.7731C19.4359 4.99634 19.9731 5.5336 19.9731 6.19634V19.7963C19.9731 20.4591 19.4359 20.9963 18.7731 20.9963H5.17314C4.5104 20.9963 3.97314 20.4591 3.97314 19.7963V6.19634ZM5.57314 19.3963V6.59634H18.3731V19.3963H5.57314Z" fill="#949494"/>
</svg>
