<svg width="17" height="17" viewBox="0 0 17 17" fill="none" xmlns="http://www.w3.org/2000/svg">
<path d="M7.92805 6.03675C8.1934 5.96031 8.34655 5.68323 8.27011 5.41788C8.19367 5.15253 7.9166 4.99938 7.65125 5.07582C6.62469 5.37152 5.91772 6.31088 5.91772 7.37918V8.2258C5.91772 8.50194 6.14158 8.7258 6.41772 8.7258C6.69387 8.7258 6.91772 8.50194 6.91772 8.2258V7.37918C6.91772 6.75656 7.32975 6.20909 7.92805 6.03675Z" fill="#949494"/>
<path fill-rule="evenodd" clip-rule="evenodd" d="M11.4406 13.7829L4.75199 13.7828C3.65017 13.7828 2.7561 12.8896 2.7561 11.7878C2.7561 10.8781 3.36635 10.1067 4.2037 9.8742V7.26648C4.2037 5.09051 5.96767 3.32654 8.14364 3.32654C10.3196 3.32654 12.0836 5.09051 12.0836 7.26648V9.92565C12.8632 10.1936 13.4228 10.9329 13.4228 11.8014C13.4228 12.8957 12.5349 13.7829 11.4406 13.7829ZM4.47125 10.8377C4.52449 10.823 4.57571 10.804 4.62461 10.7814L11.566 10.7814C11.626 10.8176 11.6904 10.8479 11.7586 10.8714C12.147 11.0048 12.4228 11.3732 12.4228 11.8014C12.4228 12.343 11.9831 12.7829 11.4406 12.7829L4.752 12.7828C4.20188 12.7828 3.7561 12.3368 3.7561 11.7878C3.7561 11.3339 4.06037 10.9518 4.47125 10.8377ZM11.0836 7.26648V9.78137L5.2037 9.78137V7.26648C5.2037 5.6428 6.51995 4.32654 8.14364 4.32654C9.76732 4.32654 11.0836 5.6428 11.0836 7.26648Z" fill="#949494"/>
</svg>
