<svg width="17" height="16" viewBox="0 0 17 16" fill="none" xmlns="http://www.w3.org/2000/svg">
<path fill-rule="evenodd" clip-rule="evenodd" d="M6.60987 9.71965L6.54557 9.39187L6.29719 9.16853C5.65332 8.58957 5.25073 7.75326 5.25073 6.82157C5.25073 5.07914 6.66325 3.66663 8.40568 3.66663C10.1481 3.66663 11.5606 5.07914 11.5606 6.82157C11.5606 7.77474 11.1392 8.62834 10.469 9.20836L10.3114 9.42134L10.1493 9.73836C10.134 9.80448 10.1049 9.87493 10.0549 9.9474L8.87555 11.6574C8.63706 12.0031 8.12623 12.0031 7.88773 11.6574L6.70829 9.94742C6.65385 9.86849 6.62399 9.79163 6.60987 9.71965ZM8.40568 2.66663C6.11097 2.66663 4.25073 4.52686 4.25073 6.82157C4.25073 8.04868 4.78268 9.15154 5.62856 9.91213C5.66905 10.1185 5.75267 10.3232 5.88512 10.5152L7.06456 12.2252C7.70056 13.1472 9.06277 13.1472 9.69874 12.2251L10.8781 10.5152C10.9178 10.4577 10.9366 10.4195 10.954 10.3841C10.9898 10.3113 11.02 10.25 11.2145 10.0555C12.0948 9.29365 12.5606 8.07713 12.5606 6.82157C12.5606 4.52686 10.7004 2.66663 8.40568 2.66663ZM7.4585 6.77344C7.4585 6.25028 7.8826 5.82617 8.40576 5.82617C8.92892 5.82617 9.35303 6.25028 9.35303 6.77344C9.35303 7.2966 8.92892 7.7207 8.40576 7.7207C7.8826 7.7207 7.4585 7.2966 7.4585 6.77344ZM6.4585 6.77344C6.4585 5.69799 7.33032 4.82617 8.40576 4.82617C9.48121 4.82617 10.353 5.69799 10.353 6.77344C10.353 7.84888 9.48121 8.7207 8.40576 8.7207C7.33032 8.7207 6.4585 7.84888 6.4585 6.77344Z" fill="#949494"/>
</svg>
