<svg width="24" height="25" viewBox="0 0 24 25" fill="none" xmlns="http://www.w3.org/2000/svg">
<path fill-rule="evenodd" clip-rule="evenodd" d="M14.3226 6.49243L14.3223 8.52204H18.4049V19.292H5.60488V8.52204H9.60487L9.60517 6.49353L14.3226 6.49243ZM5.20488 6.92204H8.00511L8.00523 6.09344C8.00533 5.43088 8.54239 4.89378 9.20495 4.89362L14.7224 4.89233C15.3794 4.89218 15.9132 5.4201 15.9225 6.0749L15.9227 6.09251L15.9225 6.92204H18.8049C19.4676 6.92204 20.0049 7.4593 20.0049 8.12204V19.692C20.0049 20.3547 19.4676 20.892 18.8049 20.892H5.20488C4.54214 20.892 4.00488 20.3547 4.00488 19.692V8.12204C4.00488 7.4593 4.54214 6.92204 5.20488 6.92204ZM14.7335 13.7922C14.7335 15.2992 13.5119 16.5208 12.0049 16.5208C10.4979 16.5208 9.27627 15.2992 9.27627 13.7922C9.27627 12.2853 10.4979 11.0636 12.0049 11.0636C13.5119 11.0636 14.7335 12.2853 14.7335 13.7922ZM16.3335 13.7922C16.3335 16.1829 14.3955 18.1208 12.0049 18.1208C9.61426 18.1208 7.67627 16.1829 7.67627 13.7922C7.67627 11.4016 9.61426 9.46362 12.0049 9.46362C14.3955 9.46362 16.3335 11.4016 16.3335 13.7922Z" fill="#949494"/>
</svg>
