<svg width="17" height="17" viewBox="0 0 17 17" fill="none" xmlns="http://www.w3.org/2000/svg">
<path d="M5.75543 3.89846C5.56018 3.70318 5.56019 3.3866 5.75546 3.19135C5.95074 2.9961 6.26732 2.99611 6.46257 3.19139L7.70611 4.43506C7.83435 4.56331 7.87835 4.74389 7.83814 4.90805V13.8597H4.86707C4.20433 13.8597 3.66707 13.3225 3.66707 12.6597V7.59787C3.66707 7.37094 3.52926 7.17209 3.36681 7.01363C3.14337 6.79569 3.00464 6.49131 3.00464 6.15453V5.88787C3.00464 5.22512 3.5419 4.68787 4.20464 4.68787H6.54475L5.75543 3.89846Z" fill="#949494"/>
<path d="M10.9175 3.20005C11.1128 3.39531 11.1128 3.7119 10.9175 3.90715L10.1367 4.68787H12.4713C13.134 4.68787 13.6713 5.22512 13.6713 5.88787V6.15453C13.6713 6.49353 13.5307 6.7997 13.3047 7.01792C13.1402 7.17674 13.0004 7.37672 13.0004 7.60536V12.6597C13.0004 13.3225 12.4631 13.8597 11.8004 13.8597H8.83814V4.88475C8.82576 4.82131 8.82576 4.75592 8.83814 4.69248V4.68787C8.8571 4.59522 8.90344 4.50692 8.97532 4.43505L10.2104 3.20002C10.4057 3.00477 10.7223 3.00478 10.9175 3.20005Z" fill="#949494"/>
</svg>
