<svg width="25" height="25" viewBox="0 0 25 25" fill="none" xmlns="http://www.w3.org/2000/svg">
<path d="M22.4006 10.9829C22.4006 7.61302 20.0482 4.61877 16.781 4.61877C15.0645 4.61877 13.7305 5.7655 12.8568 6.95591C11.9779 5.78012 10.6474 4.6694 8.94745 4.6694C5.70227 4.6694 3.3291 7.57731 3.3291 10.9742C3.3291 12.7718 3.97637 14.048 4.83313 15.2199C4.89723 15.3076 4.96648 15.3883 5.03913 15.4618L10.5487 21.0341C11.8373 22.3373 13.8998 22.3367 15.1876 21.0327L20.6903 15.461C20.7625 15.3879 20.8312 15.3078 20.8948 15.2209C21.7505 14.0517 22.4006 12.7824 22.4006 10.9829Z" fill="#949494"/>
</svg>
