<svg width="17" height="17" viewBox="0 0 17 17" fill="none" xmlns="http://www.w3.org/2000/svg">
<path d="M8.23942 11.1145C8.23942 10.7599 8.52689 10.4725 8.88151 10.4725C9.23613 10.4725 9.5236 10.7599 9.5236 11.1145C9.5236 11.4692 9.23613 11.7566 8.88151 11.7566C8.52689 11.7566 8.23942 11.4692 8.23942 11.1145Z" fill="#949494"/>
<path d="M8.38151 9.00016C8.38151 9.27631 8.60537 9.50016 8.88151 9.50016C9.15765 9.50016 9.38151 9.27631 9.38151 9.00016L9.38151 6.3335C9.38151 6.05735 9.15765 5.8335 8.88151 5.8335C8.60537 5.8335 8.38151 6.05735 8.38151 6.3335L8.38151 9.00016Z" fill="#949494"/>
<path fill-rule="evenodd" clip-rule="evenodd" d="M8.92074 3.37842C5.97522 3.37842 3.5874 5.76623 3.5874 8.71175C3.5874 11.6573 5.97522 14.0451 8.92074 14.0451C11.8663 14.0451 14.2541 11.6573 14.2541 8.71175C14.2541 5.76623 11.8663 3.37842 8.92074 3.37842ZM8.92074 4.37842C6.5275 4.37842 4.5874 6.31852 4.5874 8.71175C4.5874 11.105 6.5275 13.0451 8.92074 13.0451C11.314 13.0451 13.2541 11.105 13.2541 8.71175C13.2541 6.31852 11.314 4.37842 8.92074 4.37842Z" fill="#949494"/>
</svg>
