<svg width="25" height="25" viewBox="0 0 25 25" fill="none" xmlns="http://www.w3.org/2000/svg">
<path d="M11.767 14.8246C11.3252 14.8246 10.967 14.4664 10.967 14.0246V11.0929C10.967 10.6511 11.3252 10.2929 11.767 10.2929C12.2089 10.2929 12.567 10.6511 12.567 11.0929L12.567 14.0246C12.567 14.4664 12.2089 14.8246 11.767 14.8246Z" fill="#949494"/>
<path d="M10.8047 16.7235C10.8047 16.1916 11.2359 15.7604 11.7678 15.7604C12.2997 15.7604 12.731 16.1916 12.731 16.7235C12.731 17.2554 12.2997 17.6866 11.7678 17.6866C11.2359 17.6866 10.8047 17.2554 10.8047 16.7235Z" fill="#949494"/>
<path fill-rule="evenodd" clip-rule="evenodd" d="M13.2826 5.89303C12.5834 4.63394 10.7621 4.6651 10.1063 5.94736L3.10556 19.6368C2.97915 19.884 2.98993 20.1791 3.13404 20.4163C3.27815 20.6536 3.53498 20.7993 3.8126 20.8011L20.2567 20.9085C20.541 20.9104 20.805 20.7612 20.95 20.5165C21.095 20.2719 21.0993 19.9687 20.9613 19.7201L13.2826 5.89303ZM11.5309 6.67586C11.6037 6.53339 11.8061 6.52993 11.8838 6.66983L18.8976 19.2996L5.12114 19.2096L11.5309 6.67586Z" fill="#949494"/>
</svg>
