<svg width="17" height="16" viewBox="0 0 17 16" fill="none" xmlns="http://www.w3.org/2000/svg">
<path fill-rule="evenodd" clip-rule="evenodd" d="M6.8192 2.66766L9.69749 2.66699C10.319 2.66685 10.8302 3.13918 10.8916 3.74446C10.8954 3.78231 10.8975 3.82069 10.8977 3.85951L10.8978 3.86718L10.8977 4.02005H12.4193L12.4431 4.02028C13.0949 4.03297 13.6193 4.56527 13.6193 5.22006V12.1334C13.6193 12.7962 13.082 13.3334 12.4193 13.3334H4.15264C3.4899 13.3334 2.95264 12.7962 2.95264 12.1334V5.22006C2.95264 4.55731 3.4899 4.02005 4.15264 4.02005H5.61906L5.61948 3.8675C5.61958 3.20493 6.15663 2.66782 6.8192 2.66766ZM8.28613 11.486C9.87988 11.486 11.1719 10.194 11.1719 8.60022C11.1719 7.00647 9.87988 5.71448 8.28613 5.71448C6.69238 5.71448 5.40039 7.00647 5.40039 8.60022C5.40039 10.194 6.69238 11.486 8.28613 11.486Z" fill="#949494"/>
</svg>
