<svg width="25" height="25" viewBox="0 0 25 25" fill="none" xmlns="http://www.w3.org/2000/svg">
<path fill-rule="evenodd" clip-rule="evenodd" d="M14.6203 5.24274C14.3953 5.0177 14.0906 4.89185 13.7724 4.89185H10.7045C10.3862 4.89185 10.0815 5.0177 9.8565 5.24276L7.86276 7.23657H5.43828C4.77554 7.23657 4.23828 7.77383 4.23828 8.43657V9.81685C4.23828 10.4104 4.66915 10.9032 5.23515 10.9997L5.68025 19.7257C5.7128 20.3638 6.23971 20.8646 6.87869 20.8646H17.603C18.24 20.8646 18.7659 20.3669 18.8012 19.731L19.2856 10.9913C19.8297 10.8773 20.2383 10.3948 20.2383 9.81685V8.43657C20.2383 7.77383 19.701 7.23657 19.0383 7.23657H16.6142L14.6203 5.24274ZM10.4175 11.2529C10.8594 11.2529 11.2175 11.6111 11.2175 12.0529L11.2175 16.9646C11.2175 17.4064 10.8594 17.7646 10.4175 17.7646C9.9757 17.7646 9.61753 17.4064 9.61753 16.9646L9.61753 12.0529C9.61753 11.6111 9.9757 11.2529 10.4175 11.2529ZM14.8591 12.0529C14.8591 11.6111 14.501 11.2529 14.0591 11.2529C13.6173 11.2529 13.2591 11.6111 13.2591 12.0529V16.9646C13.2591 17.4064 13.6173 17.7646 14.0591 17.7646C14.501 17.7646 14.8591 17.4064 14.8591 16.9646V12.0529Z" fill="#949494"/>
</svg>
