<svg width="25" height="25" viewBox="0 0 25 25" fill="none" xmlns="http://www.w3.org/2000/svg">
<path fill-rule="evenodd" clip-rule="evenodd" d="M5.26738 5.1084C4.60464 5.1084 4.06738 5.64566 4.06738 6.3084V19.9084C4.06738 20.5711 4.60464 21.1084 5.26738 21.1084H18.8674C19.5301 21.1084 20.0674 20.5711 20.0674 19.9084V6.3084C20.0674 5.64566 19.5301 5.1084 18.8674 5.1084H5.26738ZM15.588 9.18267C15.818 8.80543 16.3103 8.68607 16.6875 8.91608C17.0648 9.14608 17.1841 9.63835 16.9541 10.0156L13.0005 16.5001C12.3131 17.6276 10.7409 17.7911 9.83613 16.8293L7.25123 14.0815C6.9485 13.7597 6.96396 13.2534 7.28578 12.9506C7.60759 12.6479 8.11389 12.6634 8.41662 12.9852L11.0015 15.733C11.1825 15.9254 11.4969 15.8927 11.6344 15.6672L15.588 9.18267Z" fill="#949494"/>
</svg>
