<svg width="24" height="25" viewBox="0 0 24 25" fill="none" xmlns="http://www.w3.org/2000/svg">
<path d="M12.3629 19.2545C11.9211 19.2545 11.5629 19.6127 11.5629 20.0545C11.5629 20.4963 11.9211 20.8545 12.3629 20.8545H17.6312C18.7357 20.8545 19.6312 19.9591 19.6312 18.8545V6.92932C19.6312 5.82475 18.7357 4.92932 17.6312 4.92932H13.5629C12.4584 4.92932 11.5629 5.82475 11.5629 6.92932V7.17682C11.5629 7.61865 11.9211 7.97682 12.3629 7.97682C12.8048 7.97682 13.1629 7.61865 13.1629 7.17682V6.92932C13.1629 6.70841 13.342 6.52932 13.5629 6.52932L17.6312 6.52932C17.8521 6.52932 18.0312 6.70841 18.0312 6.92932V18.8545C18.0312 19.0754 17.8521 19.2545 17.6312 19.2545H12.3629Z" fill="#949494"/>
<path d="M14.8078 12.8916C14.8076 12.4498 14.4493 12.0918 14.0075 12.0919L12.3618 12.0923C11.3328 12.0924 9.71499 12.0925 7.22846 12.0926L10.0347 9.28637C10.3471 8.97395 10.3471 8.46742 10.0347 8.155C9.72227 7.84258 9.21574 7.84258 8.90332 8.155L4.73138 12.3269C4.58136 12.477 4.49707 12.6804 4.49707 12.8926C4.49707 13.1048 4.58136 13.3083 4.73138 13.4583L8.90332 17.6302C9.21574 17.9426 9.72227 17.9426 10.0347 17.6302C10.3471 17.3178 10.3471 16.8113 10.0347 16.4989L7.22842 13.6926C9.71503 13.6925 11.3329 13.6924 12.362 13.6923L14.0082 13.6919C14.45 13.6918 14.808 13.3334 14.8078 12.8916Z" fill="#949494"/>
</svg>
