<svg width="25" height="25" viewBox="0 0 25 25" fill="none" xmlns="http://www.w3.org/2000/svg">
<path d="M10.2437 11.2529C10.6855 11.2529 11.0437 11.6111 11.0437 12.0529L11.0437 16.9646C11.0437 17.4064 10.6855 17.7646 10.2437 17.7646C9.80187 17.7646 9.4437 17.4064 9.4437 16.9646L9.4437 12.0529C9.4437 11.6111 9.80187 11.2529 10.2437 11.2529Z" fill="#949494"/>
<path d="M14.6853 12.0529C14.6853 11.6111 14.3271 11.2529 13.8853 11.2529C13.4435 11.2529 13.0853 11.6111 13.0853 12.0529V16.9646C13.0853 17.4064 13.4435 17.7646 13.8853 17.7646C14.3271 17.7646 14.6853 17.4064 14.6853 16.9646V12.0529Z" fill="#949494"/>
<path fill-rule="evenodd" clip-rule="evenodd" d="M16.4403 7.23657L14.4465 5.24274C14.2215 5.0177 13.9168 4.89185 13.5985 4.89185H10.5306C10.2124 4.89185 9.90772 5.0177 9.68268 5.24276L7.68893 7.23657H5.26445C4.60171 7.23657 4.06445 7.77383 4.06445 8.43657V9.81685C4.06445 10.4104 4.49532 10.9032 5.06132 10.9997L5.50642 19.7257C5.53898 20.3638 6.06588 20.8646 6.70487 20.8646H17.4292C18.0661 20.8646 18.5921 20.3669 18.6273 19.731L19.1118 10.9913C19.6559 10.8773 20.0645 10.3948 20.0645 9.81685V8.43657C20.0645 7.77383 19.5272 7.23657 18.8645 7.23657H16.4403ZM16.4403 8.83657C16.016 8.83657 15.609 8.668 15.309 8.36794L13.4329 6.49185H10.6963L8.82032 8.36792C8.52026 8.66799 8.11329 8.83657 7.68893 8.83657H5.66445V9.51759C6.23019 9.74759 6.62709 10.288 6.65924 10.9182L7.08498 19.2646H17.0507L17.5142 10.9028C17.548 10.2935 17.9231 9.76726 18.4645 9.52798V8.83657H16.4403Z" fill="#949494"/>
</svg>
