<svg width="17" height="17" viewBox="0 0 17 17" fill="none" xmlns="http://www.w3.org/2000/svg">
<path d="M5.78487 6.4017C5.98014 6.20643 6.29672 6.20643 6.49198 6.4017L8.13257 8.04228L9.77316 6.4017C9.96842 6.20643 10.285 6.20643 10.4803 6.4017C10.6755 6.59696 10.6755 6.91354 10.4803 7.1088L8.83968 8.74939L10.4046 10.3144C10.5999 10.5096 10.5999 10.8262 10.4046 11.0215C10.2094 11.2167 9.8928 11.2167 9.69753 11.0215L8.13257 9.4565L6.5676 11.0215C6.37234 11.2167 6.05576 11.2167 5.8605 11.0215C5.66524 10.8262 5.66524 10.5096 5.8605 10.3144L7.42546 8.74939L5.78487 7.1088C5.58961 6.91354 5.58961 6.59696 5.78487 6.4017Z" fill="#949494"/>
<path fill-rule="evenodd" clip-rule="evenodd" d="M2.79907 4.5783C2.79907 3.91555 3.33633 3.3783 3.99907 3.3783H12.2657C12.9285 3.3783 13.4657 3.91555 13.4657 4.5783V12.845C13.4657 13.5077 12.9285 14.045 12.2657 14.045H3.99907C3.33633 14.045 2.79907 13.5077 2.79907 12.845V4.5783ZM3.99907 4.3783H12.2657C12.3762 4.3783 12.4657 4.46784 12.4657 4.5783V12.845C12.4657 12.9554 12.3762 13.045 12.2657 13.045H3.99907C3.88862 13.045 3.79907 12.9554 3.79907 12.845V4.5783C3.79907 4.46784 3.88862 4.3783 3.99907 4.3783Z" fill="#949494"/>
</svg>
