<svg width="24" height="25" viewBox="0 0 24 25" fill="none" xmlns="http://www.w3.org/2000/svg">
<path fill-rule="evenodd" clip-rule="evenodd" d="M15.5043 7.93042C15.5043 9.86342 13.9373 11.4304 12.0043 11.4304C10.0713 11.4304 8.50428 9.86342 8.50428 7.93042C8.50428 5.99742 10.0713 4.43042 12.0043 4.43042C13.9373 4.43042 15.5043 5.99742 15.5043 7.93042ZM13.9043 7.93042C13.9043 8.97976 13.0536 9.83042 12.0043 9.83042C10.9549 9.83042 10.1043 8.97976 10.1043 7.93042C10.1043 6.88108 10.9549 6.03042 12.0043 6.03042C13.0536 6.03042 13.9043 6.88108 13.9043 7.93042Z" fill="#949494"/>
<path fill-rule="evenodd" clip-rule="evenodd" d="M17.4024 21.1411C18.1679 21.1411 18.846 20.5037 18.7796 19.6702C18.4596 15.6537 15.6433 12.2666 11.9515 12.2666C8.25963 12.2666 5.44338 15.6537 5.1234 19.6702C5.05699 20.5037 5.73507 21.1411 6.50056 21.1411L17.4024 21.1411ZM11.9515 13.8666C14.4877 13.8666 16.7913 16.2087 17.1603 19.5411L6.74271 19.5411C7.11163 16.2087 9.41526 13.8666 11.9515 13.8666Z" fill="#949494"/>
</svg>
