<svg width="25" height="25" viewBox="0 0 25 25" fill="none" xmlns="http://www.w3.org/2000/svg">
<path d="M11.2759 16.6139C11.2759 16.083 11.7062 15.6527 12.2371 15.6527C12.7679 15.6527 13.1982 16.083 13.1982 16.6139C13.1982 17.1447 12.7679 17.5751 12.2371 17.5751C11.7062 17.5751 11.2759 17.1447 11.2759 16.6139Z" fill="#949494"/>
<path d="M9.68237 10.1831C9.68237 10.6249 10.0405 10.9831 10.4824 10.9831C10.9242 10.9831 11.2824 10.6249 11.2824 10.1831C11.2824 9.95465 11.38 9.78004 11.5597 9.64079C11.7555 9.48895 12.0334 9.3979 12.2972 9.3979L12.2938 9.39797C12.2938 9.39803 12.2954 9.39767 12.2972 9.3979C12.3071 9.3992 12.3429 9.40448 12.3973 9.42227C12.4664 9.44485 12.54 9.48065 12.605 9.53136C12.7073 9.61115 12.8539 9.77373 12.8539 10.1831C12.8539 10.4482 12.7483 10.6425 12.6081 10.7824L12.6056 10.7849C12.4163 10.9739 12.15 11.2396 11.9352 11.5438C11.7202 11.8482 11.4972 12.2721 11.4972 12.7836V13.7836C11.4972 14.2254 11.8554 14.5836 12.2972 14.5836C12.739 14.5836 13.0972 14.2254 13.0972 13.7836V12.7836C13.0972 12.7428 13.1168 12.6443 13.2421 12.4668C13.3666 12.2905 13.5369 12.1159 13.7384 11.9149C14.1371 11.5169 14.4539 10.9292 14.4539 10.1831C14.4539 9.28602 14.0842 8.65601 13.5891 8.26982C13.1366 7.9168 12.6199 7.7979 12.2972 7.7979C11.7068 7.7979 11.0773 7.99019 10.5793 8.37631C10.065 8.77502 9.68237 9.39299 9.68237 10.1831Z" fill="#949494"/>
<path fill-rule="evenodd" clip-rule="evenodd" d="M12.0679 4.89185C7.64959 4.89185 4.06787 8.47357 4.06787 12.8918C4.06787 17.3101 7.64959 20.8918 12.0679 20.8918C16.4861 20.8918 20.0679 17.3101 20.0679 12.8918C20.0679 8.47357 16.4861 4.89185 12.0679 4.89185ZM12.0679 6.49185C8.53325 6.49185 5.66787 9.35722 5.66787 12.8918C5.66787 16.4265 8.53325 19.2918 12.0679 19.2918C15.6025 19.2918 18.4679 16.4265 18.4679 12.8918C18.4679 9.35722 15.6025 6.49185 12.0679 6.49185Z" fill="#949494"/>
</svg>
