<svg width="25" height="25" viewBox="0 0 25 25" fill="none" xmlns="http://www.w3.org/2000/svg">
<path fill-rule="evenodd" clip-rule="evenodd" d="M11.9565 20.8918C16.3748 20.8918 19.9565 17.3101 19.9565 12.8918C19.9565 8.47357 16.3748 4.89185 11.9565 4.89185C7.53827 4.89185 3.95654 8.47357 3.95654 12.8918C3.95654 17.3101 7.53827 20.8918 11.9565 20.8918ZM13.0151 9.49585C13.0151 10.0481 12.5674 10.4958 12.0151 10.4958C11.4629 10.4958 11.0151 10.0481 11.0151 9.49585C11.0151 8.94356 11.4629 8.49585 12.0151 8.49585C12.5674 8.49585 13.0151 8.94356 13.0151 9.49585ZM12.8152 12.4958C12.8152 12.054 12.457 11.6958 12.0152 11.6958C11.5734 11.6958 11.2152 12.054 11.2152 12.4958L11.2152 16.4958C11.2152 16.9376 11.5734 17.2958 12.0152 17.2958C12.457 17.2958 12.8152 16.9376 12.8152 16.4958L12.8152 12.4958Z" fill="#949494"/>
</svg>
