<svg width="25" height="25" viewBox="0 0 25 25" fill="none" xmlns="http://www.w3.org/2000/svg">
<path fill-rule="evenodd" clip-rule="evenodd" d="M12.8034 4.77768C13.0747 3.98104 14.0605 3.70387 14.7072 4.24237L19.6214 8.33421C20.2672 8.87189 20.1746 9.88965 19.4424 10.302L16.0608 12.2064C15.8176 12.3433 15.6297 12.5608 15.5296 12.8213L13.5028 18.0925C13.2079 18.8595 12.2466 19.1099 11.615 18.5841L9.2677 16.63L6.00289 19.8948C5.69047 20.2073 5.18394 20.2073 4.87152 19.8948C4.5591 19.5824 4.5591 19.0759 4.87152 18.7635L8.0329 15.6021L5.62556 13.5981C4.95818 13.0425 5.08358 11.9839 5.8623 11.5997L10.9678 9.08038C11.2528 8.93978 11.4703 8.69191 11.5728 8.39114L12.8034 4.77768ZM13.0873 8.90697L14.1304 5.84417L18.1518 9.19254L15.2757 10.8122C14.7082 11.1318 14.2699 11.6392 14.0361 12.2471L12.2097 16.9973L7.12225 12.7622L11.6758 10.5152C12.3407 10.1871 12.8483 9.60878 13.0873 8.90697Z" fill="#949494"/>
</svg>
