<svg width="17" height="17" viewBox="0 0 17 17" fill="none" xmlns="http://www.w3.org/2000/svg">
<path fill-rule="evenodd" clip-rule="evenodd" d="M3.7598 7.2716C3.27644 6.89861 2.96509 6.31357 2.96509 5.6558C2.96509 4.5293 3.8783 3.61609 5.0048 3.61609C5.59908 3.61609 6.134 3.87024 6.5068 4.27577C7.11788 4.00962 7.79247 3.86202 8.50155 3.86202C9.231 3.86202 9.92397 4.01823 10.5488 4.29901C10.9224 3.87997 11.4663 3.61609 12.0719 3.61609C13.1984 3.61609 14.1116 4.5293 14.1116 5.6558C14.1116 6.33999 13.7747 6.9455 13.2578 7.31551C13.416 7.8025 13.5015 8.32227 13.5015 8.86202C13.5015 10.1228 13.0349 11.2745 12.265 12.154L13.0375 12.9266C13.3499 13.239 13.3499 13.7455 13.0375 14.0579C12.7251 14.3704 12.2186 14.3704 11.9062 14.0579L11.1052 13.257C11.079 13.2308 11.0551 13.2033 11.0333 13.1746C10.2907 13.6115 9.42539 13.862 8.50155 13.862C7.57438 13.862 6.70616 13.6097 5.96182 13.1699C5.93243 13.2145 5.89812 13.2568 5.85888 13.296L5.09699 14.0579C4.78457 14.3703 4.27804 14.3703 3.96562 14.0579C3.6532 13.7455 3.6532 13.239 3.96562 12.9265L4.7275 12.1647L4.73822 12.1541C3.9682 11.2746 3.50155 10.1228 3.50155 8.86202C3.50155 8.30602 3.5923 7.77121 3.7598 7.2716ZM10.3279 7.3302C10.547 7.16205 10.8609 7.20331 11.029 7.42235C11.1972 7.64139 11.1559 7.95528 10.9369 8.12343L9.51013 9.21868C9.07345 9.5539 8.53833 9.73562 7.98781 9.73562H6.44468C6.16853 9.73562 5.94468 9.51176 5.94468 9.23562C5.94468 8.95947 6.16853 8.73562 6.44468 8.73562H7.98781C8.31812 8.73562 8.63919 8.62659 8.9012 8.42545L10.3279 7.3302Z" fill="#949494"/>
</svg>
