<svg width="17" height="17" viewBox="0 0 17 17" fill="none" xmlns="http://www.w3.org/2000/svg">
<path fill-rule="evenodd" clip-rule="evenodd" d="M6.62413 8.71171C7.9128 8.71171 8.95746 7.66704 8.95746 6.37838C8.95746 5.08971 7.9128 4.04504 6.62413 4.04504C5.33547 4.04504 4.2908 5.08971 4.2908 6.37838C4.2908 7.66704 5.33547 8.71171 6.62413 8.71171ZM6.62413 7.71171C7.36051 7.71171 7.95746 7.11476 7.95746 6.37838C7.95746 5.642 7.36051 5.04504 6.62413 5.04504C5.88775 5.04504 5.2908 5.642 5.2908 6.37838C5.2908 7.11476 5.88775 7.71171 6.62413 7.71171Z" fill="#949494"/>
<path fill-rule="evenodd" clip-rule="evenodd" d="M11.0885 12.7954C11.2279 13.4955 10.637 13.9991 10.0527 13.9991L3.19509 13.9991C2.61083 13.9991 2.01991 13.4955 2.15932 12.7954C2.55356 10.8157 4.4301 9.36889 6.62391 9.36889C8.81773 9.36889 10.6943 10.8157 11.0885 12.7954ZM10.1061 12.9822C9.81148 11.5259 8.392 10.3689 6.62391 10.3689C4.85583 10.3689 3.43635 11.5259 3.14176 12.9822C3.15049 12.9895 3.16856 12.9991 3.19509 12.9991L10.0527 12.9991C10.0793 12.9991 10.0973 12.9895 10.1061 12.9822Z" fill="#949494"/>
<path d="M13.8993 6.97631C14.072 6.76085 14.0374 6.44617 13.8219 6.27345C13.6064 6.10073 13.2918 6.13537 13.119 6.35082L11.5649 8.2895L10.4173 7.14191C10.222 6.94665 9.90543 6.94665 9.71017 7.14191C9.51491 7.33717 9.51491 7.65375 9.71017 7.84902L11.2524 9.39122C11.3529 9.49172 11.4914 9.5447 11.6333 9.53692C11.7752 9.52913 11.9071 9.46131 11.996 9.35041L13.8993 6.97631Z" fill="#949494"/>
</svg>
