<svg width="25" height="25" viewBox="0 0 25 25" fill="none" xmlns="http://www.w3.org/2000/svg">
<path fill-rule="evenodd" clip-rule="evenodd" d="M19.6745 6.52132C19.987 6.20891 19.987 5.70237 19.6745 5.38995C19.3621 5.07753 18.8556 5.07753 18.5432 5.38995L16.5602 7.37295C16.5566 7.37097 16.553 7.36898 16.5494 7.36701L14.7079 9.20853C14.7107 9.21131 14.7135 9.21409 14.7163 9.21687L13.9979 9.93524C13.9951 9.93248 13.9923 9.92972 13.9895 9.92696L10.4541 13.4623C10.4569 13.4651 10.4596 13.4679 10.4624 13.4707L9.76652 14.1666C9.76374 14.1638 9.76096 14.1611 9.75818 14.1583L7.8652 16.0513C7.86884 16.0532 7.87248 16.0551 7.87612 16.057L5.81526 18.1179C5.50284 18.4303 5.50284 18.9368 5.81526 19.2492C6.12768 19.5617 6.63421 19.5617 6.94663 19.2492L9.4523 16.7436C10.3328 17.0471 11.2685 17.2336 12.2383 17.2336C15.9083 17.2336 19.0883 14.5631 20.6455 12.9873C21.2779 12.3472 21.2924 11.3608 20.6818 10.6999C20.0329 9.99752 19.091 9.08051 17.9424 8.25346L19.6745 6.52132ZM15.5731 10.6228L14.7267 11.4692C14.7344 11.5488 14.7383 11.6295 14.7383 11.7111C14.7383 13.0918 13.619 14.2111 12.2383 14.2111C12.1566 14.2111 12.0759 14.2072 11.9963 14.1996L11.1725 15.0234C11.5085 15.1307 11.8667 15.1887 12.2383 15.1887C14.1713 15.1887 15.7383 13.6217 15.7383 11.6887C15.7383 11.317 15.6804 10.9589 15.5731 10.6228Z" fill="#949494"/>
<path d="M12.2383 6.14387C13.2743 6.14387 14.2713 6.37023 15.2037 6.73286L13.5098 8.42678C13.1157 8.27305 12.6869 8.18868 12.2383 8.18868C10.3053 8.18868 8.73833 9.75568 8.73833 11.6887C8.73833 12.1372 8.82269 12.566 8.97643 12.9601L6.62515 15.3114C5.45676 14.5325 4.49604 13.6601 3.8312 12.9873C3.19875 12.3472 3.18423 11.3608 3.79485 10.6999C5.33844 9.02916 8.53961 6.14387 12.2383 6.14387Z" fill="#949494"/>
<path d="M12.2383 9.21113C12.3909 9.21113 12.5404 9.22482 12.6855 9.25103L9.77817 12.1584C9.75197 12.0133 9.73828 11.8638 9.73828 11.7111C9.73828 10.3304 10.8576 9.21113 12.2383 9.21113Z" fill="#949494"/>
</svg>
