<svg width="24" height="25" viewBox="0 0 24 25" fill="none" xmlns="http://www.w3.org/2000/svg">
<path d="M8.06445 12.7122C8.06445 13.5406 7.39288 14.2122 6.56445 14.2122C5.73603 14.2122 5.06445 13.5406 5.06445 12.7122C5.06445 11.8837 5.73603 11.2122 6.56445 11.2122C7.39288 11.2122 8.06445 11.8837 8.06445 12.7122Z" fill="#949494"/>
<path d="M13.5645 12.7122C13.5645 13.5406 12.8929 14.2122 12.0645 14.2122C11.236 14.2122 10.5645 13.5406 10.5645 12.7122C10.5645 11.8837 11.236 11.2122 12.0645 11.2122C12.8929 11.2122 13.5645 11.8837 13.5645 12.7122Z" fill="#949494"/>
<path d="M17.5645 14.2122C18.3929 14.2122 19.0645 13.5406 19.0645 12.7122C19.0645 11.8837 18.3929 11.2122 17.5645 11.2122C16.736 11.2122 16.0645 11.8837 16.0645 12.7122C16.0645 13.5406 16.736 14.2122 17.5645 14.2122Z" fill="#949494"/>
</svg>
