<svg width="17" height="17" viewBox="0 0 17 17" fill="none" xmlns="http://www.w3.org/2000/svg">
<path d="M6.03643 4.04495C6.03643 3.71358 5.7678 3.44495 5.43643 3.44495C5.10505 3.44495 4.83643 3.71358 4.83643 4.04495V4.87816L4.29277 4.8783C3.63003 4.8783 3.09277 5.41555 3.09277 6.0783V12.345C3.09277 13.0077 3.63003 13.545 4.29277 13.545H12.5594C13.2222 13.545 13.7594 13.0077 13.7594 12.345V8.48047H3.11043V7.48047H13.7594V6.0783C13.7594 5.41555 13.2222 4.8783 12.5594 4.8783H12.3543V4.04495C12.3543 3.71358 12.0857 3.44495 11.7543 3.44495C11.4229 3.44495 11.1543 3.71358 11.1543 4.04495V4.87816L6.03643 4.8783V4.04495Z" fill="#949494"/>
</svg>
