<svg width="25" height="25" viewBox="0 0 25 25" fill="none" xmlns="http://www.w3.org/2000/svg">
<path fill-rule="evenodd" clip-rule="evenodd" d="M14.5097 16.5581C13.4157 17.3948 12.0481 17.8918 10.5645 17.8918C6.9746 17.8918 4.06445 14.9817 4.06445 11.3918C4.06445 7.80199 6.9746 4.89185 10.5645 4.89185C14.1543 4.89185 17.0645 7.80199 17.0645 11.3918C17.0645 12.9214 16.5362 14.3275 15.6521 15.4377L19.0842 18.8699C19.3967 19.1823 19.3967 19.6888 19.0842 20.0013C18.7718 20.3137 18.2653 20.3137 17.9529 20.0013L14.5097 16.5581ZM15.4645 11.3918C15.4645 14.098 13.2706 16.2918 10.5645 16.2918C7.85826 16.2918 5.66445 14.098 5.66445 11.3918C5.66445 8.68565 7.85826 6.49185 10.5645 6.49185C13.2706 6.49185 15.4645 8.68565 15.4645 11.3918Z" fill="#949494"/>
</svg>
