<svg width="25" height="25" viewBox="0 0 25 25" fill="none" xmlns="http://www.w3.org/2000/svg">
<path d="M15.096 11.8113C15.3724 11.4666 15.3169 10.9631 14.9722 10.6867C14.6275 10.4104 14.124 10.4658 13.8476 10.8105L11.5513 13.675L9.86936 11.9931C9.55694 11.6807 9.05041 11.6807 8.73799 11.9931C8.42557 12.3055 8.42557 12.812 8.73799 13.1245L11.0513 15.4378C11.2121 15.5986 11.4337 15.6833 11.6608 15.6709C11.8879 15.6584 12.0989 15.5499 12.2412 15.3725L15.096 11.8113Z" fill="#949494"/>
<path fill-rule="evenodd" clip-rule="evenodd" d="M16.0612 5.43173L14.8558 5.89011L14.3276 4.71363C13.4086 2.66691 10.5028 2.66691 9.58382 4.71363L9.05559 5.89011L7.85018 5.43173C5.75312 4.63428 3.69837 6.68903 4.49582 8.78609L4.9542 9.9915L3.77772 10.5197C1.731 11.4387 1.73099 14.3445 3.77772 15.2635L4.9542 15.7917L4.49582 16.9971C3.69837 19.0942 5.75312 21.149 7.85018 20.3515L9.05559 19.8931L9.58382 21.0696C10.5028 23.1163 13.4086 23.1163 14.3276 21.0696L14.8558 19.8931L16.0612 20.3515C18.1583 21.149 20.213 19.0942 19.4156 16.9971L18.9572 15.7917L20.1337 15.2635C22.1804 14.3446 22.1804 11.4387 20.1337 10.5197L18.9572 9.9915L19.4156 8.78609C20.213 6.68903 18.1583 4.63428 16.0612 5.43173ZM11.0434 5.36899C11.3969 4.58179 12.5145 4.58179 12.868 5.36899L13.628 7.06164C13.8448 7.54471 14.4007 7.77496 14.8957 7.58674L16.6299 6.92725C17.4365 6.62054 18.2268 7.41083 17.9201 8.21739L17.2606 9.95166C17.0724 10.4466 17.3026 11.0025 17.7857 11.2194L19.4783 11.9794C20.2655 12.3328 20.2655 13.4504 19.4783 13.8039L17.7857 14.5639C17.3026 14.7808 17.0724 15.3366 17.2606 15.8316L17.9201 17.5659C18.2268 18.3724 17.4365 19.1627 16.6299 18.856L14.8957 18.1965C14.4007 18.0083 13.8448 18.2385 13.628 18.7216L12.868 20.4142C12.5145 21.2015 11.3969 21.2014 11.0434 20.4142L10.2835 18.7216C10.0666 18.2385 9.5107 18.0083 9.01575 18.1965L7.28147 18.856C6.47491 19.1627 5.68462 18.3724 5.99133 17.5659L6.65083 15.8316C6.83904 15.3366 6.6088 14.7808 6.12573 14.5639L4.43308 13.8039C3.64588 13.4504 3.64588 12.3328 4.43308 11.9794L6.12573 11.2194C6.6088 11.0025 6.83904 10.4466 6.65083 9.95166L5.99133 8.21739C5.68462 7.41083 6.47491 6.62054 7.28147 6.92725L9.01575 7.58674C9.5107 7.77496 10.0666 7.54471 10.2835 7.06164L11.0434 5.36899Z" fill="#949494"/>
</svg>
