<svg width="17" height="17" viewBox="0 0 17 17" fill="none" xmlns="http://www.w3.org/2000/svg">
<path d="M12.5837 8.87826C12.5837 11.3819 10.5541 13.4116 8.05037 13.4116C5.54668 13.4116 3.51704 11.3819 3.51704 8.87826C3.51704 6.37456 5.54668 4.34492 8.05037 4.34492C10.5541 4.34492 12.5837 6.37456 12.5837 8.87826ZM9.04211 7.72954C9.35675 7.46053 9.55618 7.06071 9.55618 6.6143C9.55618 5.80428 8.89954 5.14763 8.08952 5.14763C7.2795 5.14763 6.62285 5.80428 6.62285 6.6143C6.62285 7.06075 6.82233 7.46061 7.13701 7.72961C6.92143 7.96164 6.7896 8.27255 6.7896 8.61426L6.7896 11.2809C6.7896 11.9989 7.37162 12.5809 8.0896 12.5809C8.80756 12.5809 9.3896 11.9989 9.3896 11.2809L9.3896 8.61426C9.3896 8.27252 9.25774 7.96157 9.04211 7.72954Z" fill="#949494" stroke="#949494" stroke-width="1.6"/>
</svg>
