<svg width="17" height="17" viewBox="0 0 17 17" fill="none" xmlns="http://www.w3.org/2000/svg">
<path d="M10.443 6.74955C10.443 6.47341 10.2191 6.24955 9.94295 6.24955C9.66681 6.24955 9.44295 6.47341 9.44295 6.74955V9.65574L7.54562 6.93496C7.04182 6.21251 5.90739 6.56899 5.90739 7.44976V10.8032C5.90739 11.0794 6.13125 11.3032 6.40739 11.3032C6.68353 11.3032 6.90739 11.0794 6.90739 10.8032V7.76798L8.80473 10.4888C9.30852 11.2112 10.443 10.8547 10.443 9.97396V6.74955Z" fill="#949494"/>
<path fill-rule="evenodd" clip-rule="evenodd" d="M2.78809 8.65926C2.78809 5.71374 5.1759 3.32593 8.12142 3.32593C11.0669 3.32593 13.4548 5.71374 13.4548 8.65926C13.4548 11.6048 11.0669 13.9926 8.12142 13.9926C5.1759 13.9926 2.78809 11.6048 2.78809 8.65926ZM3.78809 8.65926C3.78809 6.26603 5.72819 4.32593 8.12142 4.32593C10.5147 4.32593 12.4548 6.26603 12.4548 8.65926C12.4548 11.0525 10.5147 12.9926 8.12142 12.9926C5.72819 12.9926 3.78809 11.0525 3.78809 8.65926Z" fill="#949494"/>
</svg>
