<svg width="25" height="25" viewBox="0 0 25 25" fill="none" xmlns="http://www.w3.org/2000/svg">
<path fill-rule="evenodd" clip-rule="evenodd" d="M12.4197 4.81421C9.15573 4.81421 6.50977 7.46017 6.50977 10.7241V14.6357C6.20942 14.7191 5.92855 14.8487 5.67502 15.0163C5.13337 15.3745 4.7165 15.906 4.50103 16.531C4.39559 16.8368 4.33838 17.165 4.33838 17.5061C4.33838 19.1589 5.67947 20.4987 7.3322 20.4986L17.3651 20.4988C18.3927 20.4987 19.2989 19.9773 19.833 19.1845C20.0454 18.8692 20.199 18.5109 20.2779 18.1255C20.3176 17.932 20.3384 17.7317 20.3384 17.5265C20.3384 16.5495 19.8663 15.6814 19.1368 15.1388C18.8937 14.958 18.622 14.8133 18.3296 14.7129V10.7241C18.3296 7.46017 15.6836 4.81421 12.4197 4.81421ZM11.7695 8.60366C12.141 8.49665 12.3554 8.10875 12.2484 7.73726C12.1414 7.36576 11.7535 7.15136 11.382 7.25837C9.86357 7.69576 8.81787 9.0852 8.81787 10.6654V11.9353C8.81787 12.3219 9.13127 12.6353 9.51787 12.6353C9.90447 12.6353 10.2179 12.3219 10.2179 11.9353V10.6654C10.2179 9.70915 10.8507 8.86835 11.7695 8.60366Z" fill="#949494"/>
</svg>
