<svg width="17" height="17" viewBox="0 0 17 17" fill="none" xmlns="http://www.w3.org/2000/svg">
<path d="M7.20313 11.2661C7.20313 10.9115 7.4906 10.624 7.84522 10.624C8.19983 10.624 8.4873 10.9115 8.4873 11.2661C8.4873 11.6207 8.19983 11.9082 7.84522 11.9082C7.4906 11.9082 7.20313 11.6207 7.20313 11.2661Z" fill="#949494"/>
<path d="M7.34473 9.4668C7.34473 9.74294 7.56858 9.9668 7.84473 9.9668C8.12087 9.9668 8.34473 9.74294 8.34473 9.4668V7.51237C8.34473 7.23623 8.12087 7.01237 7.84473 7.01237C7.56858 7.01237 7.34473 7.23623 7.34473 7.51237V9.4668Z" fill="#949494"/>
<path fill-rule="evenodd" clip-rule="evenodd" d="M8.82586 4.06205C8.37266 3.24597 7.19221 3.26617 6.76719 4.09726L2.1 13.2236C2.021 13.3781 2.02773 13.5625 2.1178 13.7108C2.20787 13.8591 2.36839 13.9501 2.5419 13.9512L13.5046 14.0229C13.6823 14.024 13.8473 13.9308 13.938 13.7779C14.0286 13.625 14.0313 13.4355 13.945 13.2801L8.82586 4.06205ZM7.65752 4.55258C7.71824 4.43385 7.88688 4.43096 7.95162 4.54755L12.6552 13.0173L3.35974 12.9565L7.65752 4.55258Z" fill="#949494"/>
</svg>
