<svg width="17" height="16" viewBox="0 0 17 16" fill="none" xmlns="http://www.w3.org/2000/svg">
<path fill-rule="evenodd" clip-rule="evenodd" d="M10.0208 4.01991L10.0206 5.02006H11.0208H12.5423C12.6528 5.02006 12.7424 5.1096 12.7424 5.22006V12.1334C12.7424 12.2438 12.6528 12.3334 12.5424 12.3334H4.27568C4.16523 12.3334 4.07568 12.2438 4.07568 12.1334V5.22006C4.07568 5.1096 4.16523 5.02006 4.27568 5.02006H5.7425H6.74235L6.7425 4.02021L6.74252 3.86763C6.74254 3.75721 6.83205 3.66769 6.94248 3.66766L9.82077 3.66699C9.93126 3.66697 10.0208 3.75654 10.0208 3.86702L10.0208 4.01991ZM4.27568 4.02006H5.7421H5.7425L5.74252 3.86748C5.74262 3.20492 6.27968 2.66782 6.94224 2.66766L9.82054 2.66699C10.4809 2.66684 11.0168 3.20011 11.0208 3.8595L11.0208 3.86717L11.0208 4.02006H12.0208H12.5423C13.2051 4.02006 13.7424 4.55732 13.7424 5.22006V12.1334C13.7424 12.7961 13.2051 13.3334 12.5424 13.3334H4.27568C3.61294 13.3334 3.07568 12.7961 3.07568 12.1334V5.22006C3.07568 4.55732 3.61294 4.02006 4.27568 4.02006ZM10.2947 8.60022C10.2947 9.64169 9.4504 10.486 8.40894 10.486C7.36747 10.486 6.52319 9.64169 6.52319 8.60022C6.52319 7.55875 7.36747 6.71448 8.40894 6.71448C9.4504 6.71448 10.2947 7.55875 10.2947 8.60022ZM11.2947 8.60022C11.2947 10.194 10.0027 11.486 8.40894 11.486C6.81518 11.486 5.52319 10.194 5.52319 8.60022C5.52319 7.00647 6.81518 5.71448 8.40894 5.71448C10.0027 5.71448 11.2947 7.00647 11.2947 8.60022Z" fill="#949494"/>
</svg>
