<svg width="17" height="17" viewBox="0 0 17 17" fill="none" xmlns="http://www.w3.org/2000/svg">
<path d="M8.87189 4.26746C9.30149 4.69704 9.30149 5.39354 8.8719 5.82312L7.62937 7.06562C7.43411 7.26088 7.11752 7.26087 6.92226 7.06561C6.727 6.87034 6.72701 6.55376 6.92227 6.3585L7.73169 5.54911C5.87749 5.63762 4.40137 7.16896 4.40137 9.04507C4.40137 10.9781 5.96837 12.5451 7.90137 12.5451C9.83436 12.5451 11.4014 10.9781 11.4014 9.04507C11.4014 8.76893 11.6252 8.54507 11.9014 8.54507C12.1775 8.54507 12.4014 8.76893 12.4014 9.04507C12.4014 11.5303 10.3866 13.5451 7.90137 13.5451C5.41609 13.5451 3.40137 11.5303 3.40137 9.04507C3.40137 6.61442 5.32849 4.63387 7.73818 4.54797L6.92228 3.7321C6.72701 3.53684 6.727 3.22026 6.92226 3.02499C7.11752 2.82973 7.4341 2.82972 7.62937 3.02498L8.87189 4.26746Z" fill="#949494"/>
</svg>
