<svg width="24" height="25" viewBox="0 0 24 25" fill="none" xmlns="http://www.w3.org/2000/svg">
<path fill-rule="evenodd" clip-rule="evenodd" d="M12.0026 4.86682C11.5607 4.86682 11.2026 5.225 11.2026 5.66682L11.2026 18.1883L7.12032 14.106C6.8079 13.7936 6.30137 13.7936 5.98895 14.106C5.67653 14.4184 5.67653 14.925 5.98895 15.2374L11.4369 20.6853C11.5869 20.8354 11.7904 20.9197 12.0026 20.9197C12.2148 20.9197 12.4183 20.8354 12.5683 20.6853L18.0161 15.2374C18.3286 14.925 18.3286 14.4184 18.0161 14.106C17.7037 13.7936 17.1972 13.7936 16.8848 14.106L12.8026 18.1883L12.8026 5.66682C12.8026 5.22499 12.4444 4.86682 12.0026 4.86682Z" fill="#949494"/>
</svg>
