<svg width="17" height="17" viewBox="0 0 17 17" fill="none" xmlns="http://www.w3.org/2000/svg">
<path fill-rule="evenodd" clip-rule="evenodd" d="M3.71563 3.3783C3.05288 3.3783 2.51562 3.91555 2.51562 4.5783V12.845C2.51562 13.5077 3.05288 14.045 3.71563 14.045H5.01213C5.67487 14.045 6.21213 13.5077 6.21213 12.845V4.5783C6.21213 3.91555 5.67487 3.3783 5.01213 3.3783H3.71563ZM5.01213 4.3783H3.71563C3.60517 4.3783 3.51562 4.46784 3.51562 4.5783V12.845C3.51562 12.9554 3.60517 13.045 3.71563 13.045H5.01213C5.12259 13.045 5.21213 12.9554 5.21213 12.845V4.5783C5.21213 4.46784 5.12259 4.3783 5.01213 4.3783Z" fill="#949494"/>
<path fill-rule="evenodd" clip-rule="evenodd" d="M7.86724 5.30151C7.20449 5.30151 6.66724 5.83877 6.66724 6.50151V12.845C6.66724 13.5077 7.2045 14.045 7.86724 14.045H9.16374C9.82648 14.045 10.3637 13.5077 10.3637 12.845V6.50151C10.3637 5.83877 9.82648 5.30151 9.16374 5.30151H7.86724ZM9.16374 6.30151H7.86724C7.75678 6.30151 7.66724 6.39106 7.66724 6.50151V12.845C7.66724 12.9555 7.75678 13.045 7.86724 13.045H9.16374C9.2742 13.045 9.36374 12.9555 9.36374 12.845V6.50151C9.36374 6.39106 9.2742 6.30151 9.16374 6.30151Z" fill="#949494"/>
<path fill-rule="evenodd" clip-rule="evenodd" d="M10.8191 8.63201C10.8191 7.96926 11.3563 7.43201 12.0191 7.43201H13.3156C13.9783 7.43201 14.5156 7.96926 14.5156 8.63201V12.845C14.5156 13.5077 13.9783 14.045 13.3156 14.045H12.0191C11.3564 14.045 10.8191 13.5077 10.8191 12.845V8.63201ZM12.0191 8.43201H13.3156C13.4261 8.43201 13.5156 8.52155 13.5156 8.63201V12.845C13.5156 12.9554 13.4261 13.045 13.3156 13.045H12.0191C11.9086 13.045 11.8191 12.9554 11.8191 12.845V8.63201C11.8191 8.52155 11.9086 8.43201 12.0191 8.43201Z" fill="#949494"/>
</svg>
