<svg width="17" height="16" viewBox="0 0 17 16" fill="none" xmlns="http://www.w3.org/2000/svg">
<path fill-rule="evenodd" clip-rule="evenodd" d="M9.74203 4.69234C9.74203 5.42872 9.14508 6.02568 8.4087 6.02568C7.67232 6.02568 7.07536 5.42872 7.07536 4.69234C7.07536 3.95596 7.67232 3.35901 8.4087 3.35901C9.14508 3.35901 9.74203 3.95596 9.74203 4.69234ZM10.742 4.69234C10.742 5.98101 9.69736 7.02568 8.4087 7.02568C7.12003 7.02568 6.07536 5.98101 6.07536 4.69234C6.07536 3.40368 7.12003 2.35901 8.4087 2.35901C9.69736 2.35901 10.742 3.40368 10.742 4.69234ZM11.8775 12.4162C11.8783 12.4231 11.8773 12.4265 11.8766 12.4285C11.8757 12.4312 11.8733 12.4361 11.8677 12.4419C11.856 12.4542 11.8343 12.4662 11.8048 12.4662L4.94198 12.4662C4.91244 12.4662 4.89079 12.4542 4.879 12.4419C4.87342 12.4361 4.87107 12.4312 4.87011 12.4285C4.8694 12.4265 4.86847 12.4231 4.86926 12.4162C5.1231 10.1869 6.66378 8.61651 8.37338 8.61651C10.083 8.61651 11.6237 10.1869 11.8775 12.4162ZM11.8048 13.4662C12.4027 13.4662 12.9465 12.9656 12.8711 12.3031C12.5789 9.73752 10.7451 7.61651 8.37338 7.61651C6.00162 7.61651 4.1678 9.73752 3.87568 12.3031C3.80024 12.9656 4.34406 13.4662 4.94198 13.4662L11.8048 13.4662Z" fill="#949494"/>
</svg>
