<svg width="17" height="16" viewBox="0 0 17 16" fill="none" xmlns="http://www.w3.org/2000/svg">
<path fill-rule="evenodd" clip-rule="evenodd" d="M8.42697 3.1793L4.17479 6.40977C4.10012 6.4665 4.05628 6.55488 4.05627 6.64865L4.05615 12.4011L6.5972 12.4011L6.5972 8.65662C6.5972 8.15957 7.00015 7.75662 7.4972 7.75662H9.3631C9.86016 7.75662 10.2631 8.15957 10.2631 8.65662L10.2631 12.4011L12.7688 12.4011L12.7689 6.64721C12.7689 6.55376 12.7253 6.46564 12.6511 6.40888L8.42697 3.1793ZM8.97379 2.33859L13.2585 5.61446C13.5802 5.86043 13.7689 6.24227 13.7689 6.64723L13.7688 12.5011C13.7688 12.9982 13.3658 13.4011 12.8688 13.4011L10.1631 13.4011C9.66604 13.4011 9.2631 12.9982 9.2631 12.5011L9.2631 8.75662H7.5972L7.5972 12.5011C7.5972 12.997 7.19608 13.4011 6.69789 13.4011L3.95612 13.4011C3.45904 13.401 3.05614 12.9981 3.05615 12.501L3.05627 6.64863C3.05628 6.24229 3.24629 5.85932 3.56985 5.61351L7.88271 2.33692C8.20532 2.09183 8.65193 2.09251 8.97379 2.33859Z" fill="#949494"/>
</svg>
