<svg width="17" height="17" viewBox="0 0 17 17" fill="none" xmlns="http://www.w3.org/2000/svg">
<path d="M9.95341 6.95936C9.60062 7.17372 9.18647 7.29716 8.74349 7.29716C8.70322 7.29716 8.66319 7.29614 8.62342 7.29412C8.20884 7.27311 7.82281 7.14389 7.49301 6.93414C7.4748 6.92256 7.45676 6.91073 7.4389 6.89866C6.81823 6.47935 6.41016 5.76924 6.41016 4.96383C6.41016 3.67516 7.45483 2.63049 8.74349 2.63049C10.0322 2.63049 11.0768 3.67516 11.0768 4.96383C11.0768 5.80095 10.636 6.53511 9.97379 6.94683C9.96702 6.95104 9.96023 6.95521 9.95341 6.95936Z" fill="#949494"/>
<path d="M5.27687 13.2376C4.94254 13.2376 4.66954 12.9633 4.70737 12.6311C4.91849 10.7769 5.9755 9.25282 7.3877 8.65725C7.40207 8.65119 7.41648 8.64522 7.43092 8.63935C7.83239 8.47626 8.26188 8.38794 8.70828 8.38794C8.72001 8.38794 8.73174 8.388 8.74345 8.38812C8.76354 8.38833 8.78364 8.38872 8.80367 8.38929C9.24383 8.40173 9.66658 8.50005 10.0611 8.67104C10.0929 8.68482 10.1245 8.69907 10.1559 8.71379C11.5042 9.34527 12.5044 10.833 12.7092 12.6311C12.747 12.9633 12.474 13.2376 12.1397 13.2376H5.27687Z" fill="#949494"/>
</svg>
