<svg width="17" height="17" viewBox="0 0 17 17" fill="none" xmlns="http://www.w3.org/2000/svg">
<path d="M5.23145 8.21167C4.9553 8.21167 4.73145 8.43553 4.73145 8.71167C4.73145 8.98781 4.9553 9.21167 5.23145 9.21167H6.10969L6.32469 10.0787C6.49833 10.7789 7.48953 10.7904 7.67942 10.0944L8.10663 8.52866L8.58571 10.1134C8.79448 10.804 9.78503 10.7655 9.93952 10.0607L10.1257 9.21167H11.0085C11.2846 9.21167 11.5085 8.98781 11.5085 8.71167C11.5085 8.43553 11.2846 8.21167 11.0085 8.21167H10.3449L10.5958 7.06727C10.6549 6.79754 10.4842 6.53093 10.2145 6.4718C9.94472 6.41267 9.67812 6.58339 9.61898 6.85313L9.20948 8.72103L8.7619 7.2405C8.55853 6.56777 7.60152 6.5808 7.41654 7.25881L7.01797 8.71964L6.55183 6.83986C6.48536 6.57183 6.21421 6.40844 5.94618 6.4749C5.67816 6.54136 5.51476 6.81252 5.58122 7.08054L5.86172 8.21167H5.23145Z" fill="#949494"/>
<path fill-rule="evenodd" clip-rule="evenodd" d="M13.4408 8.71163C13.4408 11.6571 11.053 14.045 8.1075 14.045C5.16198 14.045 2.77417 11.6571 2.77417 8.71163C2.77417 5.76611 5.16198 3.3783 8.1075 3.3783C11.053 3.3783 13.4408 5.76611 13.4408 8.71163ZM12.4408 8.71163C12.4408 11.1049 10.5007 13.045 8.1075 13.045C5.71427 13.045 3.77417 11.1049 3.77417 8.71163C3.77417 6.3184 5.71427 4.3783 8.1075 4.3783C10.5007 4.3783 12.4408 6.3184 12.4408 8.71163Z" fill="#949494"/>
</svg>
