<svg width="17" height="17" viewBox="0 0 17 17" fill="none" xmlns="http://www.w3.org/2000/svg">
<path fill-rule="evenodd" clip-rule="evenodd" d="M8.15894 4.40088C5.67365 4.40088 3.65894 6.4156 3.65894 8.90088C3.65894 11.3862 5.67365 13.4009 8.15894 13.4009C10.6442 13.4009 12.6589 11.3862 12.6589 8.90088C12.6589 6.4156 10.6442 4.40088 8.15894 4.40088ZM8.15894 3.40088C5.12137 3.40088 2.65894 5.86331 2.65894 8.90088C2.65894 11.9384 5.12137 14.4009 8.15894 14.4009C11.1965 14.4009 13.6589 11.9384 13.6589 8.90088C13.6589 5.86331 11.1965 3.40088 8.15894 3.40088Z" fill="#009BFF"/>
<path fill-rule="evenodd" clip-rule="evenodd" d="M4.88276 7.76396C4.88276 7.1697 5.71985 6.98335 5.93558 7.57594C6.09301 8.00841 6.2267 8.39776 6.36474 8.79978L6.36542 8.80174C6.43154 8.99431 6.49872 9.18995 6.57019 9.3953C6.5877 9.34491 6.60514 9.2947 6.62256 9.24455C6.80036 8.73261 6.97599 8.22691 7.20455 7.60348C7.41812 7.02094 8.26366 7.18674 8.26366 7.79248V10.2852C8.26366 10.4785 8.10696 10.6352 7.91366 10.6352C7.72036 10.6352 7.56366 10.4785 7.56366 10.2852L7.56366 8.67311C7.46709 8.9465 7.37744 9.20464 7.28666 9.46608C7.18867 9.74824 7.08935 10.0343 6.97854 10.3474C6.91799 10.5186 6.75578 10.6352 6.57174 10.6352C6.38806 10.6352 6.22698 10.5191 6.16589 10.35C5.98641 9.85341 5.84171 9.432 5.70336 9.02907C5.66284 8.91109 5.6229 8.79474 5.58276 8.6785L5.58276 10.2852C5.58277 10.4785 5.42607 10.6352 5.23277 10.6352C5.03947 10.6352 4.88277 10.4785 4.88277 10.2852L4.88276 7.76396Z" fill="#009BFF"/>
<path fill-rule="evenodd" clip-rule="evenodd" d="M11.3753 7.33103C11.5452 7.47216 11.5686 7.72435 11.4274 7.8943L10.3651 9.17351V10.2852C10.3651 10.5061 10.186 10.6852 9.96507 10.6852C9.74415 10.6852 9.56507 10.5061 9.56507 10.2852V9.17866L8.50227 7.95635C8.35731 7.78964 8.37495 7.53699 8.54166 7.39204C8.70837 7.24708 8.96102 7.26472 9.10597 7.43143L9.95807 8.41141L10.812 7.38319C10.9531 7.21324 11.2053 7.18989 11.3753 7.33103Z" fill="#009BFF"/>
</svg>
