<svg width="24" height="25" viewBox="0 0 24 25" fill="none" xmlns="http://www.w3.org/2000/svg">
<path fill-rule="evenodd" clip-rule="evenodd" d="M15.652 6.86284C14.5101 6.86284 13.5161 7.49472 13.0001 8.42693C12.9862 8.45201 12.9727 8.47733 12.9595 8.50287C12.7443 8.91917 12.6229 9.39167 12.6229 9.89194C12.6229 10.0059 12.6292 10.1185 12.6414 10.2293C12.7762 11.444 13.6285 12.4414 14.7647 12.789C15.0456 12.8749 15.3436 12.921 15.652 12.921C15.9616 12.921 16.2609 12.8745 16.5427 12.7879C17.7807 12.4075 18.6811 11.2551 18.6811 9.89194C18.6811 8.21901 17.3249 6.86284 15.652 6.86284ZM17.2811 9.89194C17.2811 10.7917 16.5517 11.521 15.652 11.521C14.7522 11.521 14.0229 10.7917 14.0229 9.89194C14.0229 8.99221 14.7522 8.26284 15.652 8.26284C16.5517 8.26284 17.2811 8.99221 17.2811 9.89194Z" fill="#949494"/>
<path fill-rule="evenodd" clip-rule="evenodd" d="M15.652 13.3353C15.341 13.3353 15.0359 13.3658 14.7384 13.4244C14.1244 13.5454 13.5448 13.7861 13.0162 14.1248C11.9506 13.1229 10.6081 12.521 9.14492 12.521C5.91966 12.521 3.30385 15.4284 2.88246 19.1292C2.81009 19.7648 3.33217 20.2711 3.94431 20.2711L20.2766 20.2711C20.8326 20.2711 21.3088 19.8109 21.2428 19.231C20.9075 16.2869 19.0177 13.9075 16.5657 13.4244C16.2682 13.3658 15.9629 13.3353 15.652 13.3353ZM19.7729 18.8711L4.33201 18.8711C4.8342 15.8758 6.94575 13.921 9.14492 13.921C10.2456 13.921 11.2918 14.3872 12.1501 15.2342C12.5589 15.6377 13.1964 15.6948 13.6705 15.3705C14.2747 14.9571 14.9484 14.7353 15.6521 14.7353C17.4869 14.7353 19.2888 16.341 19.7729 18.8711Z" fill="#949494"/>
<path fill-rule="evenodd" clip-rule="evenodd" d="M12.3619 8.29415C12.2102 6.65043 10.8277 5.36353 9.14451 5.36353C7.35998 5.36353 5.91333 6.81018 5.91333 8.59471C5.91333 10.3792 7.35998 11.8259 9.14451 11.8259C10.3836 11.8259 11.4595 11.1284 12.0014 10.1055C12.0237 10.0634 12.0451 10.0208 12.0656 9.97764C12.2645 9.55816 12.3757 9.08914 12.3757 8.59471C12.3757 8.49341 12.371 8.39315 12.3619 8.29415ZM10.9757 8.59471C10.9757 9.60604 10.1558 10.4259 9.14451 10.4259C8.13318 10.4259 7.31333 9.60604 7.31333 8.59471C7.31333 7.58337 8.13318 6.76353 9.14451 6.76353C10.1558 6.76353 10.9757 7.58337 10.9757 8.59471Z" fill="#949494"/>
</svg>
