<svg width="17" height="17" viewBox="0 0 17 17" fill="none" xmlns="http://www.w3.org/2000/svg">
<path fill-rule="evenodd" clip-rule="evenodd" d="M7.87014 11.4932V12.5518C7.87014 12.7058 8.03694 12.8021 8.17028 12.7249L10.2998 11.4932H12.2543C12.8066 11.4932 13.2543 11.0455 13.2543 10.4932V6.46497C13.2543 5.91268 12.8066 5.46497 12.2543 5.46497H5.58765C5.03536 5.46497 4.58765 5.91268 4.58765 6.46497V10.4932C4.58765 11.0455 5.03536 11.4932 5.58765 11.4932H7.87014ZM3.58765 6.46497C3.58765 5.3604 4.48308 4.46497 5.58765 4.46497H12.2543C13.3589 4.46497 14.2543 5.3604 14.2543 6.46497V10.4932C14.2543 11.5977 13.3589 12.4932 12.2543 12.4932H10.5682L8.67097 13.5906C7.87097 14.0533 6.87014 13.476 6.87014 12.5518V12.4932H5.58765C4.48308 12.4932 3.58765 11.5977 3.58765 10.4932V6.46497Z" fill="#949494"/>
</svg>
