<svg width="24" height="25" viewBox="0 0 24 25" fill="none" xmlns="http://www.w3.org/2000/svg">
<path d="M14.652 10.5278C15.0024 10.2588 15.5046 10.3248 15.7737 10.6753C16.0427 11.0257 15.9767 11.528 15.6262 11.797L13.2168 13.6466C12.7277 14.0221 12.1284 14.2256 11.5118 14.2256H8.8575C8.41568 14.2256 8.0575 13.8674 8.0575 13.4256C8.0575 12.9838 8.41568 12.6256 8.8575 12.6256L11.5118 12.6256C11.776 12.6256 12.0329 12.5384 12.2425 12.3775L14.652 10.5278Z" fill="#949494"/>
<path fill-rule="evenodd" clip-rule="evenodd" d="M4.83025 10.4796C4.10521 9.92012 3.63818 9.04256 3.63818 8.05591C3.63818 6.36615 5.008 4.99634 6.69775 4.99634C7.58917 4.99634 8.39155 5.37756 8.95075 5.98586C9.86736 5.58663 10.8793 5.36523 11.9429 5.36523C13.037 5.36523 14.0765 5.59954 15.0138 6.02073C15.5741 5.39216 16.39 4.99634 17.2983 4.99634C18.9881 4.99634 20.3579 6.36615 20.3579 8.05591C20.3579 9.08219 19.8526 9.99045 19.0772 10.5455C19.3146 11.276 19.4429 12.0556 19.4429 12.8652C19.4429 14.9003 18.6323 16.7461 17.3164 18.0974L18.4639 19.2449C18.7763 19.5573 18.7763 20.0638 18.4639 20.3762C18.1515 20.6887 17.6449 20.6887 17.3325 20.3762L16.1311 19.1748C16.1137 19.1574 16.0972 19.1394 16.0817 19.1208C14.8955 19.9072 13.4727 20.3652 11.9429 20.3652C10.4089 20.3652 8.98243 19.9047 7.79428 19.1143C7.76596 19.1563 7.73322 19.1962 7.69606 19.2334L6.55323 20.3762C6.24081 20.6887 5.73428 20.6887 5.42186 20.3762C5.10944 20.0638 5.10944 19.5573 5.42186 19.2449L6.56469 18.102L6.56937 18.0974C5.25345 16.7462 4.44287 14.9004 4.44287 12.8652C4.44287 12.0312 4.579 11.229 4.83025 10.4796ZM5.80772 9.2129C6.34737 9.62932 6.56394 10.3419 6.34726 10.9882C6.15027 11.5758 6.04287 12.2063 6.04287 12.8652C6.04287 16.1237 8.68439 18.7652 11.9429 18.7652C15.2014 18.7652 17.8429 16.1237 17.8429 12.8652C17.8429 12.2256 17.7416 11.6127 17.5555 11.0399C17.3401 10.3767 17.5789 9.65033 18.1459 9.24444C18.5196 8.97694 18.7579 8.54425 18.7579 8.05591C18.7579 7.24981 18.1044 6.59634 17.2983 6.59634C16.8652 6.59634 16.4777 6.78299 16.2081 7.08543C15.7436 7.60654 14.9948 7.76629 14.358 7.48015C13.6229 7.14981 12.8066 6.96523 11.9429 6.96523C11.1032 6.96523 10.3085 7.13967 9.58965 7.45277C8.9641 7.72522 8.2346 7.57101 7.77284 7.06869C7.50389 6.77613 7.123 6.59634 6.69775 6.59634C5.89166 6.59634 5.23818 7.24981 5.23818 8.05591C5.23818 8.52568 5.45836 8.94331 5.80772 9.2129Z" fill="#949494"/>
</svg>
