<svg width="25" height="25" viewBox="0 0 25 25" fill="none" xmlns="http://www.w3.org/2000/svg">
<path fill-rule="evenodd" clip-rule="evenodd" d="M17.7826 11.7694L9.24517 20.2525C9.10058 20.3962 8.91553 20.4923 8.71482 20.5278L5.2755 21.1373C4.59135 21.2585 3.99512 20.6623 4.11635 19.9782L4.72521 16.5423C4.76116 16.3394 4.85888 16.1526 5.00502 16.0074L16.7917 4.29565C17.1826 3.90725 17.814 3.90825 18.2037 4.2979L21.0321 7.12632C21.4235 7.51772 21.4225 8.15263 21.0299 8.54278L18.18 11.3745C18.1415 11.4583 18.0877 11.5369 18.0186 11.6059C17.9483 11.6762 17.8682 11.7307 17.7826 11.7694ZM15.4392 7.89511L17.4952 5.85218L19.4751 7.83207L17.4191 9.875L15.4392 7.89511ZM14.3043 9.02287L6.26752 17.0085L5.8416 19.4121L8.25067 18.9852L16.2841 11.0028L14.3043 9.02287Z" fill="#949494"/>
</svg>
