<svg width="17" height="16" viewBox="0 0 17 16" fill="none" xmlns="http://www.w3.org/2000/svg">
<path d="M8.70289 3.06931L4.48544 6.27341C4.29073 6.42133 4.17639 6.65179 4.17639 6.89631L4.17627 12.6192C4.17627 12.8353 4.35137 13.0104 4.5674 13.0104L7.24851 13.0104C7.46453 13.0105 7.63898 12.8353 7.63898 12.6193L7.63898 8.85987C7.63898 8.64385 7.8141 8.46872 8.03013 8.46872H9.85475C10.0708 8.46872 10.2459 8.64385 10.2459 8.85987L10.2459 12.6193C10.2459 12.8353 10.421 13.0105 10.637 13.0105L13.2829 13.0105C13.4989 13.0105 13.674 12.8354 13.674 12.6193L13.6741 6.89493C13.6741 6.65123 13.5606 6.42145 13.367 6.27344L9.17709 3.07004C9.0372 2.96309 8.8431 2.96279 8.70289 3.06931Z" fill="#949494"/>
</svg>
