<svg width="17" height="17" viewBox="0 0 17 17" fill="none" xmlns="http://www.w3.org/2000/svg">
<path fill-rule="evenodd" clip-rule="evenodd" d="M3.93755 2.82129C3.27481 2.82129 2.73755 3.35855 2.73755 4.02129V12.288C2.73755 12.9507 3.27481 13.488 3.93755 13.488H12.2042C12.867 13.488 13.4042 12.9507 13.4042 12.288V4.02129C13.4042 3.35855 12.867 2.82129 12.2042 2.82129H3.93755ZM10.4466 5.55483C10.5903 5.31905 10.898 5.24446 11.1338 5.38821C11.3695 5.53196 11.4441 5.83963 11.3004 6.0754L8.93786 9.95025C8.35353 10.9086 7.01724 11.0477 6.24814 10.2301L4.88451 8.78051C4.6953 8.57938 4.70497 8.26294 4.9061 8.07373C5.10724 7.88453 5.42367 7.89419 5.61288 8.09533L6.97651 9.5449C7.2932 9.88155 7.84344 9.8243 8.08404 9.42968L10.4466 5.55483Z" fill="#949494"/>
</svg>
