<svg width="24" height="25" viewBox="0 0 24 25" fill="none" xmlns="http://www.w3.org/2000/svg">
<path fill-rule="evenodd" clip-rule="evenodd" d="M7.51558 4.8418C7.9574 4.8418 8.31558 5.19997 8.31558 5.6418V6.89161L16.1926 6.89185C16.1926 6.89192 16.1926 6.89177 16.1926 6.89185V5.6418C16.1926 5.19997 16.5508 4.8418 16.9926 4.8418C17.4345 4.8418 17.7926 5.19997 17.7926 5.6418V6.89161C17.7926 6.89154 17.7926 6.89169 17.7926 6.89161L18.8 6.89185C19.4627 6.89185 20 7.4291 20 8.09185V19.6918C20 20.3546 19.4627 20.8918 18.8 20.8918H5.2C4.53726 20.8918 4 20.3546 4 19.6918V8.09185C4 7.4291 4.53726 6.89185 5.2 6.89185H6.71558V5.6418C6.71558 5.19997 7.07375 4.8418 7.51558 4.8418ZM5.6 10.7451V8.49185H18.4V10.7451H5.6ZM5.6 12.3451V19.2918H18.4V12.3451H5.6Z" fill="#949494"/>
</svg>
