<svg width="25" height="26" viewBox="0 0 25 26" fill="none" xmlns="http://www.w3.org/2000/svg">
<path d="M11.9047 5.5999L5.5785 10.5148C5.28644 10.7417 5.11493 11.0952 5.11492 11.4703L5.11475 20.2489C5.11474 20.5803 5.3774 20.8489 5.70144 20.8489L9.7231 20.849C10.0471 20.849 10.3088 20.5803 10.3088 20.249L10.3088 14.4822C10.3088 14.1509 10.5715 13.8822 10.8955 13.8822H13.6325C13.9565 13.8822 14.2192 14.1509 14.2192 14.4822L14.2192 20.249C14.2192 20.5804 14.4819 20.849 14.8059 20.849L18.7746 20.849C19.0987 20.849 19.3614 20.5804 19.3614 20.249L19.3615 11.4681C19.3615 11.0943 19.1912 10.7419 18.9008 10.5148L12.616 5.60101C12.4061 5.43696 12.115 5.4365 11.9047 5.5999Z" fill="#949494"/>
</svg>
