<svg width="17" height="17" viewBox="0 0 17 17" fill="none" xmlns="http://www.w3.org/2000/svg">
<path fill-rule="evenodd" clip-rule="evenodd" d="M9.74095 3.20916C9.51591 2.98412 9.21103 2.85803 8.89277 2.85803H7.17887C6.86061 2.85803 6.55572 2.98412 6.33068 3.20917L5.11871 4.42118H3.90239C3.23965 4.42118 2.70239 4.95844 2.70239 5.62118V5.74137C2.70239 6.20931 2.97024 6.6147 3.36098 6.81258L3.64434 12.3676C3.67689 13.0058 4.2038 13.5065 4.84278 13.5065H11.2338C11.8707 13.5065 12.3967 13.0089 12.4319 12.3729L12.741 6.79655C13.1151 6.59335 13.3691 6.19702 13.3691 5.74137V5.62118C13.3691 4.95844 12.8318 4.42118 12.1691 4.42118H10.953L9.74095 3.20916ZM6.82178 7.13208C7.09792 7.13208 7.32178 7.35594 7.32178 7.63208L7.32178 10.9065C7.32178 11.1826 7.09792 11.4065 6.82178 11.4065C6.54563 11.4065 6.32178 11.1826 6.32178 10.9065L6.32178 7.63208C6.32178 7.35594 6.54563 7.13208 6.82178 7.13208ZM9.74951 7.63208C9.74951 7.35594 9.52565 7.13208 9.24951 7.13208C8.97337 7.13208 8.74951 7.35594 8.74951 7.63208L8.74951 10.9065C8.74951 11.1826 8.97337 11.4065 9.24951 11.4065C9.52565 11.4065 9.74951 11.1826 9.74951 10.9065L9.74951 7.63208Z" fill="#949494"/>
</svg>
