<svg width="17" height="17" viewBox="0 0 17 17" fill="none" xmlns="http://www.w3.org/2000/svg">
<path d="M8.61768 4.04504C8.61768 3.7689 8.39382 3.54504 8.11768 3.54504C7.84153 3.54504 7.61768 3.7689 7.61768 4.04504V8.21167L3.45093 8.21167C3.17479 8.21167 2.95093 8.43553 2.95093 8.71167C2.95093 8.98781 3.17479 9.21167 3.45093 9.21167L7.61768 9.21167V13.3784C7.61768 13.6545 7.84153 13.8784 8.11768 13.8784C8.39382 13.8784 8.61768 13.6545 8.61768 13.3784V9.21167L12.7843 9.21167C13.0604 9.21167 13.2843 8.98781 13.2843 8.71167C13.2843 8.43553 13.0604 8.21167 12.7843 8.21167L8.61768 8.21167V4.04504Z" fill="#949494"/>
</svg>
