<svg width="16" height="17" viewBox="0 0 16 17" fill="none" xmlns="http://www.w3.org/2000/svg">
<path d="M8.24218 12.9867C7.96604 12.9867 7.74218 13.2105 7.74218 13.4867C7.74218 13.7628 7.96604 13.9867 8.24218 13.9867H11.3543C12.2932 13.9867 13.0543 13.2255 13.0543 12.2867V5.13652C13.0543 4.19764 12.2932 3.43652 11.3543 3.43652H9.20718C8.39808 3.43652 7.74218 4.09243 7.74218 4.90152C7.74218 5.17767 7.96604 5.40152 8.24218 5.40152C8.51832 5.40152 8.74218 5.17767 8.74218 4.90152C8.74218 4.64471 8.95037 4.43652 9.20718 4.43652H11.3543C11.7409 4.43652 12.0543 4.74992 12.0543 5.13652V12.2867C12.0543 12.6733 11.7409 12.9867 11.3543 12.9867H8.24218Z" fill="#949494"/>
<path d="M9.83865 8.7114C9.83853 8.43526 9.61457 8.2115 9.33843 8.21162L4.73861 8.21205L6.66634 6.28433C6.8616 6.08907 6.8616 5.77248 6.66634 5.57722C6.47107 5.38196 6.15449 5.38196 5.95923 5.57722L3.17794 8.35851C3.08417 8.45228 3.03149 8.57945 3.03149 8.71206C3.03149 8.84467 3.08417 8.97185 3.17794 9.06562L5.95923 11.8469C6.15449 12.0422 6.47107 12.0422 6.66634 11.8469C6.8616 11.6516 6.8616 11.3351 6.66634 11.1398L4.73859 9.21205L9.33887 9.21162C9.61502 9.2115 9.83878 8.98754 9.83865 8.7114Z" fill="#949494"/>
</svg>
