<svg width="17" height="17" viewBox="0 0 17 17" fill="none" xmlns="http://www.w3.org/2000/svg">
<path fill-rule="evenodd" clip-rule="evenodd" d="M8.15392 11.0226C8.43006 11.0226 8.65392 11.2465 8.65392 11.5226V13.656C8.65392 13.9321 8.43006 14.156 8.15392 14.156C7.87778 14.156 7.65392 13.9321 7.65392 13.656V11.5226C7.65392 11.2465 7.87778 11.0226 8.15392 11.0226Z" fill="#949494" fill-opacity="0.5"/>
<path fill-rule="evenodd" clip-rule="evenodd" d="M8.15392 3.26746C8.43006 3.26746 8.65392 3.49131 8.65392 3.76746V5.90079C8.65392 6.17693 8.43006 6.40079 8.15392 6.40079C7.87778 6.40079 7.65392 6.17693 7.65392 5.90079V3.76746C7.65392 3.49131 7.87778 3.26746 8.15392 3.26746Z" fill="#949494" fill-opacity="0.1"/>
<path fill-rule="evenodd" clip-rule="evenodd" d="M6.45083 10.4148C6.6461 10.6101 6.6461 10.9266 6.45084 11.1219L4.94234 12.6304C4.74708 12.8257 4.4305 12.8257 4.23523 12.6304C4.03997 12.4351 4.03997 12.1186 4.23523 11.9233L5.74373 10.4148C5.93899 10.2195 6.25557 10.2195 6.45083 10.4148Z" fill="#949494" fill-opacity="0.6"/>
<path fill-rule="evenodd" clip-rule="evenodd" d="M12.0576 4.80795C12.2529 5.00321 12.2529 5.31979 12.0576 5.51505L10.5491 7.02355C10.3538 7.21881 10.0373 7.21881 9.842 7.02355C9.64674 6.82828 9.64674 6.5117 9.842 6.31644L11.3505 4.80795C11.5458 4.61268 11.8623 4.61268 12.0576 4.80795Z" fill="#949494" fill-opacity="0.2"/>
<path fill-rule="evenodd" clip-rule="evenodd" d="M5.74539 8.71167C5.74539 8.98781 5.52154 9.21167 5.24539 9.21167H3.11206C2.83592 9.21167 2.61206 8.98781 2.61206 8.71167C2.61206 8.43553 2.83592 8.21167 3.11206 8.21167H5.24539C5.52154 8.21167 5.74539 8.43553 5.74539 8.71167Z" fill="#949494" fill-opacity="0.8"/>
<path fill-rule="evenodd" clip-rule="evenodd" d="M13.6744 8.71163C13.6744 8.98777 13.4506 9.21163 13.1744 9.21163H11.0411C10.765 9.21163 10.5411 8.98777 10.5411 8.71163C10.5411 8.43549 10.765 8.21163 11.0411 8.21163H13.1744C13.4506 8.21163 13.6744 8.43549 13.6744 8.71163Z" fill="#949494" fill-opacity="0.3"/>
<path fill-rule="evenodd" clip-rule="evenodd" d="M6.45084 7.00858C6.25557 7.20385 5.93899 7.20385 5.74373 7.00858L4.23523 5.50009C4.03997 5.30483 4.03997 4.98824 4.23523 4.79298C4.4305 4.59772 4.74708 4.59772 4.94234 4.79298L6.45084 6.30148C6.6461 6.49674 6.6461 6.81332 6.45084 7.00858Z" fill="#949494"/>
<path fill-rule="evenodd" clip-rule="evenodd" d="M12.0576 12.6152C11.8623 12.8105 11.5458 12.8105 11.3505 12.6152L9.842 11.1067C9.64674 10.9115 9.64674 10.5949 9.842 10.3996C10.0373 10.2044 10.3538 10.2044 10.5491 10.3996L12.0576 11.9081C12.2529 12.1034 12.2529 12.42 12.0576 12.6152Z" fill="#949494" fill-opacity="0.4"/>
</svg>
