<svg width="17" height="17" viewBox="0 0 17 17" fill="none" xmlns="http://www.w3.org/2000/svg">
<path fill-rule="evenodd" clip-rule="evenodd" d="M8.32658 3.85287C8.5979 3.05623 9.58362 2.77907 10.2304 3.31757L12.6136 5.30199C13.2594 5.83968 13.1668 6.85743 12.4346 7.26976L10.8111 8.18404C10.5679 8.321 10.3801 8.53846 10.2799 8.79898L9.18068 11.6578C8.88575 12.4248 7.92446 12.6752 7.29287 12.1494L6.13123 11.1823L3.95682 13.3567C3.76156 13.552 3.44498 13.552 3.24972 13.3567C3.05446 13.1615 3.05446 12.8449 3.24972 12.6496L5.35948 10.5399L4.2019 9.57623C3.53452 9.02066 3.65993 7.96211 4.43865 7.57785L7.14208 6.24387C7.42702 6.10326 7.64457 5.85539 7.747 5.55462L8.32658 3.85287ZM9.59048 4.08605L11.9737 6.07047C12.0814 6.16008 12.0659 6.32971 11.9439 6.39843L10.3204 7.31271C9.87455 7.56381 9.53015 7.96247 9.34651 8.44009L8.2473 11.2989C8.19815 11.4267 8.03793 11.4685 7.93267 11.3808L4.8417 8.80768C4.73047 8.71509 4.75137 8.53866 4.88116 8.47462L7.58459 7.14063C8.10697 6.88286 8.50581 6.42843 8.69361 5.87701L9.27319 4.17526C9.31841 4.04249 9.48269 3.9963 9.59048 4.08605Z" fill="#949494"/>
</svg>
