<svg width="24" height="25" viewBox="0 0 24 25" fill="none" xmlns="http://www.w3.org/2000/svg">
<path d="M15.4966 9.94866C15.4966 9.56206 15.1832 9.24866 14.7966 9.24866C14.41 9.24866 14.0966 9.56206 14.0966 9.94866V14.4671L10.7955 9.73331C10.1797 8.85033 8.79321 9.28603 8.79321 10.3625V16.0291C8.79321 16.4157 9.10661 16.7291 9.49321 16.7291C9.87981 16.7291 10.1932 16.4157 10.1932 16.0291V11.3172L13.4943 16.0509C14.11 16.9339 15.4966 16.4982 15.4966 15.4217V9.94866Z" fill="#949494"/>
<path fill-rule="evenodd" clip-rule="evenodd" d="M4.06445 12.8132C4.06445 8.39495 7.64618 4.81323 12.0645 4.81323C16.4827 4.81323 20.0645 8.39495 20.0645 12.8132C20.0645 17.2315 16.4827 20.8132 12.0645 20.8132C7.64618 20.8132 4.06445 17.2315 4.06445 12.8132ZM5.66445 12.8132C5.66445 9.27861 8.52983 6.41323 12.0645 6.41323C15.5991 6.41323 18.4645 9.27861 18.4645 12.8132C18.4645 16.3479 15.5991 19.2132 12.0645 19.2132C8.52983 19.2132 5.66445 16.3479 5.66445 12.8132Z" fill="#949494"/>
</svg>
