<svg width="17" height="17" viewBox="0 0 17 17" fill="none" xmlns="http://www.w3.org/2000/svg">
<path fill-rule="evenodd" clip-rule="evenodd" d="M6.39933 6.60771C6.39933 6.33156 6.62319 6.10771 6.89933 6.10771H8.41056C9.31603 6.10771 10.05 6.84173 10.05 7.74719C10.05 8.65266 9.31602 9.38668 8.41056 9.38668H7.39933V10.8157C7.39933 11.0919 7.17547 11.3157 6.89933 11.3157C6.62319 11.3157 6.39933 11.0919 6.39933 10.8157V6.60771ZM7.39933 8.38668V7.10771H8.41056C8.76374 7.10771 9.05005 7.39401 9.05005 7.74719C9.05005 8.10037 8.76374 8.38668 8.41056 8.38668H7.39933Z" fill="#949494"/>
<path fill-rule="evenodd" clip-rule="evenodd" d="M8.1932 3.37842C5.24768 3.37842 2.85986 5.76623 2.85986 8.71175C2.85986 11.6573 5.24768 14.0451 8.1932 14.0451C11.1387 14.0451 13.5265 11.6573 13.5265 8.71175C13.5265 5.76623 11.1387 3.37842 8.1932 3.37842ZM8.1932 4.37842C5.79996 4.37842 3.85986 6.31852 3.85986 8.71175C3.85986 11.105 5.79996 13.0451 8.1932 13.0451C10.5864 13.0451 12.5265 11.105 12.5265 8.71175C12.5265 6.31852 10.5864 4.37842 8.1932 4.37842Z" fill="#949494"/>
</svg>
