<svg width="24" height="25" viewBox="0 0 24 25" fill="none" xmlns="http://www.w3.org/2000/svg">
<path fill-rule="evenodd" clip-rule="evenodd" d="M3.91553 12.8932C3.91553 12.4514 4.2737 12.0932 4.71553 12.0932L17.237 12.0932L13.1547 8.01095C12.8423 7.69853 12.8423 7.192 13.1547 6.87958C13.4671 6.56716 13.9737 6.56716 14.2861 6.87958L19.734 12.3275C19.8841 12.4776 19.9684 12.681 19.9684 12.8932C19.9684 13.1054 19.8841 13.3089 19.734 13.4589L14.2861 18.9068C13.9737 19.2192 13.4671 19.2192 13.1547 18.9068C12.8423 18.5943 12.8423 18.0878 13.1547 17.7754L17.237 13.6932L4.71553 13.6932C4.2737 13.6932 3.91553 13.335 3.91553 12.8932Z" fill="#949494"/>
</svg>
