<svg width="16" height="17" viewBox="0 0 16 17" fill="none" xmlns="http://www.w3.org/2000/svg">
<path d="M5 8.71167C5 9.26395 4.55228 9.71167 4 9.71167C3.44772 9.71167 3 9.26395 3 8.71167C3 8.15939 3.44772 7.71167 4 7.71167C4.55228 7.71167 5 8.15939 5 8.71167Z" fill="#949494"/>
<path d="M9 8.71167C9 9.26395 8.55228 9.71167 8 9.71167C7.44772 9.71167 7 9.26395 7 8.71167C7 8.15939 7.44772 7.71167 8 7.71167C8.55228 7.71167 9 8.15939 9 8.71167Z" fill="#949494"/>
<path d="M13 8.71167C13 9.26395 12.5523 9.71167 12 9.71167C11.4477 9.71167 11 9.26395 11 8.71167C11 8.15939 11.4477 7.71167 12 7.71167C12.5523 7.71167 13 8.15939 13 8.71167Z" fill="#949494"/>
</svg>
