<svg width="25" height="25" viewBox="0 0 25 25" fill="none" xmlns="http://www.w3.org/2000/svg">
<path d="M8.506 4.36149C8.21309 4.65437 8.21307 5.12924 8.50594 5.42215L9.68987 6.6062H5.53789C4.87515 6.6062 4.33789 7.14346 4.33789 7.8062V9.4062C4.33789 9.82029 4.54763 10.1854 4.86667 10.4011C5.10845 10.5645 5.33154 10.8016 5.33154 11.0935V19.164C5.33154 19.8268 5.8688 20.364 6.53154 20.364H11.6382V6.6062H11.6363C11.6079 6.46727 11.5397 6.33484 11.432 6.22705L9.56666 4.36154C9.27378 4.06864 8.79891 4.06861 8.506 4.36149Z" fill="#949494"/>
<path d="M13.0382 6.6062V20.364H18.1315C18.7943 20.364 19.3315 19.8268 19.3315 19.164V11.1012C19.3315 10.8069 19.5582 10.5685 19.803 10.4052C20.1255 10.19 20.3379 9.82292 20.3379 9.4062V7.8062C20.3379 7.14346 19.8006 6.6062 19.1379 6.6062H14.9814L16.1654 5.42219C16.4583 5.12931 16.4584 4.65443 16.1655 4.36153C15.8726 4.06863 15.3977 4.06862 15.1048 4.3615L13.2522 6.21404C13.141 6.32518 13.072 6.46253 13.0452 6.6062H13.0382Z" fill="#949494"/>
</svg>
