<svg width="17" height="17" viewBox="0 0 17 17" fill="none" xmlns="http://www.w3.org/2000/svg">
<path d="M9.62703 6.44767C9.62703 6.81586 9.32856 7.11434 8.96037 7.11434C8.59218 7.11434 8.2937 6.81586 8.2937 6.44767C8.2937 6.07948 8.59218 5.78101 8.96037 5.78101C9.32856 5.78101 9.62703 6.07948 9.62703 6.44767Z" fill="#949494"/>
<path d="M9.46021 8.44763C9.46021 8.17149 9.23635 7.94763 8.96021 7.94763C8.68406 7.94763 8.46021 8.17149 8.46021 8.44763L8.4602 11.1143C8.4602 11.3904 8.68406 11.6143 8.9602 11.6143C9.23634 11.6143 9.4602 11.3904 9.4602 11.1143L9.46021 8.44763Z" fill="#949494"/>
<path fill-rule="evenodd" clip-rule="evenodd" d="M8.92098 14.045C11.8665 14.045 14.2543 11.6571 14.2543 8.71163C14.2543 5.76611 11.8665 3.3783 8.92098 3.3783C5.97546 3.3783 3.58765 5.76611 3.58765 8.71163C3.58765 11.6571 5.97546 14.045 8.92098 14.045ZM8.92098 13.045C11.3142 13.045 13.2543 11.1049 13.2543 8.71163C13.2543 6.3184 11.3142 4.3783 8.92098 4.3783C6.52775 4.3783 4.58765 6.3184 4.58765 8.71163C4.58765 11.1049 6.52775 13.045 8.92098 13.045Z" fill="#949494"/>
</svg>
