<svg width="17" height="17" viewBox="0 0 17 17" fill="none" xmlns="http://www.w3.org/2000/svg">
<path fill-rule="evenodd" clip-rule="evenodd" d="M10.9018 4.44591C11.1278 3.90543 11.6658 3.53601 12.2797 3.53601C13.0991 3.53601 13.7688 4.19209 13.7802 5.01142C13.8124 7.34375 13.7941 9.09107 13.7697 11.4168C13.761 12.2431 13.0888 12.9095 12.2625 12.9095C11.8372 12.9095 11.4475 12.7322 11.1741 12.4429L11.1728 12.4416C11.0784 12.3414 10.9978 12.2279 10.9345 12.1037C10.4592 12.038 10.0034 11.9431 9.57283 11.8226V13.0603C9.57283 13.1949 9.55067 13.3244 9.50978 13.4452L9.50514 13.4586C9.34087 13.9256 8.89594 14.2603 8.37283 14.2603H7.41932C6.75658 14.2603 6.21932 13.723 6.21932 13.0603V10.2227H5.18677C4.0822 10.2227 3.18677 9.32727 3.18677 8.2227C3.18677 7.11813 4.0822 6.2227 5.18677 6.2227H6.72356C7.64435 5.34609 9.13798 4.69517 10.9018 4.44591ZM10.9685 10.5153C10.9685 10.7914 11.1924 11.0153 11.4685 11.0153C11.7446 11.0153 11.9685 10.7914 11.9685 10.5153V6.07874C11.9685 5.80259 11.7446 5.57874 11.4685 5.57874C11.1924 5.57874 10.9685 5.80259 10.9685 6.07874L10.9685 10.5153Z" fill="#949494"/>
</svg>
