<svg width="17" height="17" viewBox="0 0 17 17" fill="none" xmlns="http://www.w3.org/2000/svg">
<path d="M7.71484 10.2062C7.41594 10.0333 7.21484 9.71011 7.21484 9.33997C7.21484 8.78768 7.66256 8.33997 8.21484 8.33997C8.76713 8.33997 9.21484 8.78768 9.21484 9.33997C9.21484 9.71011 9.01374 10.0333 8.71484 10.2062V11.3926C8.71484 11.6688 8.49099 11.8926 8.21484 11.8926C7.9387 11.8926 7.71484 11.6688 7.71484 11.3926V10.2062Z" fill="#949494"/>
<path fill-rule="evenodd" clip-rule="evenodd" d="M5.91528 5.69189V6.04504H4.76226C4.09951 6.04504 3.56226 6.5823 3.56226 7.24504V12.845C3.56226 13.5078 4.09951 14.045 4.76225 14.045H11.6956C12.3583 14.045 12.8956 13.5078 12.8956 12.845V7.24504C12.8956 6.5823 12.3583 6.04504 11.6956 6.04504H10.5835V5.69189C10.5835 4.4028 9.53847 3.35779 8.24938 3.35779C6.9603 3.35779 5.91528 4.4028 5.91528 5.69189ZM8.24938 4.35779C7.51258 4.35779 6.91528 4.95509 6.91528 5.69189V6.04504H9.58349V5.69189C9.58349 4.95509 8.98619 4.35779 8.24938 4.35779ZM4.76226 7.04504H11.6956C11.806 7.04504 11.8956 7.13459 11.8956 7.24504V12.845C11.8956 12.9555 11.806 13.045 11.6956 13.045H4.76225C4.6518 13.045 4.56226 12.9555 4.56226 12.845V7.24504C4.56226 7.13459 4.6518 7.04504 4.76226 7.04504Z" fill="#949494"/>
</svg>
