<svg width="25" height="25" viewBox="0 0 25 25" fill="none" xmlns="http://www.w3.org/2000/svg">
<path fill-rule="evenodd" clip-rule="evenodd" d="M5.3908 10.34C4.66576 9.78048 4.19873 8.90291 4.19873 7.91626C4.19873 6.22651 5.56855 4.85669 7.2583 4.85669C8.14972 4.85669 8.9521 5.23791 9.5113 5.84622C10.4279 5.44699 11.4398 5.22559 12.5034 5.22559C13.5976 5.22559 14.637 5.4599 15.5743 5.88108C16.1347 5.25251 16.9506 4.85669 17.8589 4.85669C19.5486 4.85669 20.9185 6.22651 20.9185 7.91626C20.9185 8.94254 20.4132 9.8508 19.6378 10.4058C19.8751 11.1363 20.0034 11.916 20.0034 12.7256C20.0034 14.7607 19.1928 16.6065 17.8769 17.9577L19.0244 19.1052C19.3368 19.4177 19.3368 19.9242 19.0244 20.2366C18.712 20.549 18.2055 20.549 17.8931 20.2366L16.6916 19.0352C16.6742 19.0178 16.6578 18.9997 16.6423 18.9812C15.4561 19.7676 14.0332 20.2256 12.5034 20.2256C10.9694 20.2256 9.54296 19.765 8.35481 18.9747C8.32649 19.0167 8.29375 19.0566 8.25658 19.0938L7.11376 20.2366C6.80134 20.549 6.29481 20.549 5.98239 20.2366C5.66997 19.9242 5.66997 19.4176 5.98239 19.1052L7.12521 17.9624L7.1299 17.9577C5.81399 16.6065 5.00342 14.7607 5.00342 12.7256C5.00342 11.8916 5.13955 11.0894 5.3908 10.34ZM15.2124 10.3882C15.5629 10.1192 16.0651 10.1852 16.3342 10.5357C16.6032 10.8861 16.5372 11.3883 16.1867 11.6574L13.7773 13.507C13.2882 13.8825 12.6888 14.086 12.0723 14.086H9.41799C8.97616 14.086 8.61799 13.7278 8.61799 13.286C8.61799 12.8442 8.97616 12.486 9.41799 12.486L12.0723 12.486C12.3365 12.486 12.5934 12.3988 12.803 12.2379L15.2124 10.3882Z" fill="#949494"/>
</svg>
