<svg width="24" height="25" viewBox="0 0 24 25" fill="none" xmlns="http://www.w3.org/2000/svg">
<path d="M18.2224 7.45748C18.5348 7.14506 18.5348 6.63853 18.2224 6.32611C17.9099 6.01369 17.4034 6.01369 17.091 6.32611L12 11.4171L6.90893 6.32611C6.59651 6.01369 6.08998 6.01369 5.77756 6.32611C5.46514 6.63853 5.46514 7.14506 5.77756 7.45748L10.8686 12.5485L5.77728 17.6398C5.46486 17.9522 5.46486 18.4588 5.77728 18.7712C6.0897 19.0836 6.59623 19.0836 6.90865 18.7712L12 13.6799L17.0913 18.7712C17.4037 19.0836 17.9102 19.0836 18.2226 18.7712C18.5351 18.4588 18.5351 17.9522 18.2226 17.6398L13.1313 12.5485L18.2224 7.45748Z" fill="#949494"/>
</svg>
