<svg width="24" height="25" viewBox="0 0 24 25" fill="none" xmlns="http://www.w3.org/2000/svg">
<path d="M11.7605 8.83145C12.132 8.72444 12.3464 8.33653 12.2394 7.96504C12.1324 7.59354 11.7445 7.37914 11.373 7.48615C9.85454 7.92354 8.80884 9.31298 8.80884 10.8931V12.1631C8.80884 12.5497 9.12224 12.8631 9.50884 12.8631C9.89544 12.8631 10.2088 12.5497 10.2088 12.1631V10.8931C10.2088 9.93693 10.8416 9.09613 11.7605 8.83145Z" fill="#949494"/>
<path fill-rule="evenodd" clip-rule="evenodd" d="M6.1875 10.7241C6.1875 7.46017 8.83346 4.81421 12.0974 4.81421C15.3614 4.81421 18.0073 7.46017 18.0073 10.7241V14.7129C19.1768 15.1147 20.0161 16.2238 20.0161 17.5265C20.0161 19.168 18.6843 20.4988 17.0428 20.4988L7.00994 20.4987C5.35721 20.4987 4.01611 19.1589 4.01611 17.5061C4.01611 16.1489 4.92168 14.9969 6.16731 14.6414C6.17394 14.6356 6.18068 14.63 6.1875 14.6245V10.7241ZM16.4073 10.7241V14.4463L7.7875 14.4463V10.7241C7.7875 8.34383 9.71712 6.41421 12.0974 6.41421C14.4777 6.41421 16.4073 8.34383 16.4073 10.7241ZM6.94293 16.0463L17.1228 16.0463C17.2344 16.1203 17.3565 16.1811 17.4874 16.226C18.0309 16.4128 18.4161 16.9282 18.4161 17.5265C18.4161 18.2836 17.8014 18.8988 17.0428 18.8988L7.00995 18.8987C6.23996 18.8987 5.61611 18.2743 5.61611 17.5061C5.61611 16.8709 6.04191 16.3367 6.61558 16.1774C6.73103 16.1453 6.84056 16.1011 6.94293 16.0463Z" fill="#949494"/>
</svg>
