<svg width="17" height="17" viewBox="0 0 17 17" fill="none" xmlns="http://www.w3.org/2000/svg">
<path fill-rule="evenodd" clip-rule="evenodd" d="M9.87165 11.1353C9.13794 11.7054 8.21608 12.045 7.21492 12.045C4.82169 12.045 2.88159 10.1049 2.88159 7.71163C2.88159 5.3184 4.82169 3.3783 7.21492 3.3783C9.60816 3.3783 11.5483 5.3184 11.5483 7.71163C11.5483 8.74338 11.1877 9.69091 10.5857 10.4351L12.8712 12.7206C13.0665 12.9159 13.0665 13.2325 12.8712 13.4277C12.6759 13.623 12.3594 13.623 12.1641 13.4277L9.87165 11.1353ZM10.5483 7.71163C10.5483 9.55258 9.05587 11.045 7.21492 11.045C5.37398 11.045 3.88159 9.55258 3.88159 7.71163C3.88159 5.87068 5.37398 4.3783 7.21492 4.3783C9.05587 4.3783 10.5483 5.87068 10.5483 7.71163Z" fill="#949494"/>
</svg>
