<svg width="17" height="17" viewBox="0 0 17 17" fill="none" xmlns="http://www.w3.org/2000/svg">
<path d="M3.62964 5.44519C3.62964 5.16905 3.8535 4.94519 4.12964 4.94519H13.6988C13.975 4.94519 14.1988 5.16905 14.1988 5.44519C14.1988 5.72133 13.975 5.94519 13.6988 5.94519L4.12964 5.94519C3.8535 5.94519 3.62964 5.72133 3.62964 5.44519Z" fill="#949494"/>
<path d="M5.5437 9.04505C5.5437 8.7689 5.76756 8.54505 6.0437 8.54505L11.9532 8.54505C12.2293 8.54505 12.4532 8.7689 12.4532 9.04505C12.4532 9.32119 12.2293 9.54505 11.9532 9.54505L6.0437 9.54505C5.76756 9.54505 5.5437 9.32119 5.5437 9.04505Z" fill="#949494"/>
<path d="M7.86646 12.2117C7.59031 12.2117 7.36646 12.4355 7.36646 12.7117C7.36646 12.9878 7.59031 13.2117 7.86646 13.2117H10.1298C10.4059 13.2117 10.6298 12.9878 10.6298 12.7117C10.6298 12.4355 10.4059 12.2117 10.1298 12.2117L7.86646 12.2117Z" fill="#949494"/>
</svg>
