<svg width="17" height="17" viewBox="0 0 17 17" fill="none" xmlns="http://www.w3.org/2000/svg">
<path d="M13.0457 5.06522C13.2409 4.86996 13.2409 4.55338 13.0457 4.35812C12.8504 4.16285 12.5338 4.16285 12.3386 4.35812L8.92097 7.77573L5.50335 4.35812C5.30809 4.16285 4.99151 4.16285 4.79625 4.35812C4.60099 4.55338 4.60099 4.86996 4.79625 5.06522L8.21386 8.48283L4.7961 11.9006C4.60084 12.0958 4.60084 12.4124 4.7961 12.6077C4.99137 12.803 5.30795 12.803 5.50321 12.6077L8.92097 9.18994L12.3387 12.6077C12.534 12.803 12.8506 12.803 13.0458 12.6077C13.2411 12.4124 13.2411 12.0958 13.0458 11.9006L9.62807 8.48283L13.0457 5.06522Z" fill="#949494"/>
</svg>
