<svg width="25" height="25" viewBox="0 0 25 25" fill="none" xmlns="http://www.w3.org/2000/svg">
<path d="M14.1546 7.15208C14.7014 7.69881 14.7014 8.58527 14.1546 9.13201L12.0787 11.2079C11.7663 11.5203 11.2597 11.5203 10.9473 11.2079C10.6349 10.8955 10.6349 10.3889 10.9473 10.0765L12.0684 8.95548C9.37522 9.15141 7.25112 11.3985 7.25112 14.1416C7.25112 17.0135 9.57924 19.3416 12.4511 19.3416C15.323 19.3416 17.6511 17.0135 17.6511 14.1416C17.6511 13.6998 18.0093 13.3416 18.4511 13.3416C18.893 13.3416 19.2511 13.6998 19.2511 14.1416C19.2511 17.8972 16.2067 20.9416 12.4511 20.9416C8.69559 20.9416 5.65112 17.8972 5.65112 14.1416C5.65112 10.507 8.50276 7.53833 12.0908 7.351L10.9473 6.20761C10.6349 5.8952 10.6349 5.38867 10.9473 5.07624C11.2597 4.76382 11.7663 4.76381 12.0787 5.07622L14.1546 7.15208Z" fill="#949494"/>
</svg>
