<svg width="24" height="25" viewBox="0 0 24 25" fill="none" xmlns="http://www.w3.org/2000/svg">
<path d="M9.76309 13.4623C9.43172 13.4623 9.16309 13.7309 9.16309 14.0623C9.16309 14.3937 9.43172 14.6623 9.76309 14.6623H14.2362C14.5676 14.6623 14.8362 14.3937 14.8362 14.0623C14.8362 13.7309 14.5676 13.4623 14.2362 13.4623H9.76309Z" fill="#949494"/>
<path fill-rule="evenodd" clip-rule="evenodd" d="M18.372 13.1691C19.2766 13.4553 19.9158 14.3065 19.9158 15.2909C19.9158 16.5125 18.9374 17.5098 17.716 17.5258C16.9419 17.5359 16.2069 17.5431 15.4966 17.5479C15.4151 19.4085 13.8808 20.892 12 20.892C10.1136 20.892 8.57572 19.3996 8.50272 17.5311C7.88686 17.5257 7.2526 17.5198 6.59056 17.5137L6.30716 17.511C5.07642 17.4996 4.08398 16.4988 4.08398 15.268C4.08398 14.3489 4.64079 13.5442 5.45281 13.2118C6.16058 8.76399 8.78569 5.46167 11.9158 5.46167C15.036 5.46167 17.6543 8.74285 18.372 13.1691ZM17.8893 14.6945C17.3135 14.5123 16.8893 14.0214 16.7927 13.4252C16.4705 11.4384 15.7326 9.79017 14.8111 8.67435C13.8913 7.56052 12.8739 7.06167 11.9158 7.06167C10.9548 7.06167 9.93377 7.56375 9.01178 8.68502C8.08832 9.80808 7.35069 11.4663 7.03292 13.4632C6.94513 14.015 6.57591 14.481 6.05886 14.6926C5.84501 14.7801 5.68398 15.0018 5.68398 15.268C5.68398 15.6201 5.96827 15.9078 6.32207 15.9111L6.60547 15.9137C7.26762 15.9199 7.90134 15.9258 8.51658 15.9311C8.59043 15.9318 8.66311 15.9374 8.73429 15.9478H15.5069C16.2073 15.943 16.932 15.9359 17.6951 15.9259C18.0354 15.9215 18.3158 15.6427 18.3158 15.2909C18.3158 15.0073 18.1317 14.7712 17.8893 14.6945ZM10.1015 17.4686C10.0999 17.4279 10.0968 17.3876 10.0922 17.3478H13.9091C13.9037 17.3906 13.9 17.434 13.8981 17.4778C13.8539 18.4867 13.0206 19.292 12 19.292C10.9763 19.292 10.1411 18.4818 10.1015 17.4686Z" fill="#949494"/>
</svg>
