<svg width="17" height="17" viewBox="0 0 17 17" fill="none" xmlns="http://www.w3.org/2000/svg">
<path d="M7.42969 8.99194C7.15355 8.99194 6.92969 9.2158 6.92969 9.49194C6.92969 9.76809 7.15355 9.99194 7.42969 9.99194H10.4118C10.6879 9.99194 10.9118 9.76809 10.9118 9.49194C10.9118 9.2158 10.6879 8.99194 10.4118 8.99194H7.42969Z" fill="#949494"/>
<path fill-rule="evenodd" clip-rule="evenodd" d="M5.12567 11.7911C4.30518 11.7834 3.64355 11.1162 3.64355 10.2957C3.64355 9.68302 4.01476 9.1465 4.5561 8.92494C5.02795 5.95973 6.77803 3.75818 8.8648 3.75818C10.9449 3.75818 12.6904 5.94564 13.1689 8.89645C13.7719 9.08727 14.1981 9.65471 14.1981 10.311C14.1981 11.1254 13.5458 11.7903 12.7315 11.8009C12.2155 11.8077 11.7255 11.8125 11.252 11.8156C11.1976 13.0561 10.1747 14.0451 8.9209 14.0451C7.66328 14.0451 6.63804 13.0501 6.58938 11.8045C6.18288 11.8009 5.76436 11.797 5.32774 11.793L5.12567 11.7911ZM12.8672 9.84985C12.5073 9.73597 12.2422 9.42913 12.1818 9.05651C11.9655 7.72255 11.4696 6.61213 10.8464 5.85751C10.2242 5.10414 9.52859 4.75818 8.8648 4.75818C8.19894 4.75818 7.50083 5.10638 6.87726 5.86473C6.25276 6.62421 5.75703 7.74134 5.54368 9.08209C5.4888 9.42692 5.25804 9.71816 4.93489 9.85042C4.7674 9.91897 4.64355 10.0911 4.64355 10.2957C4.64355 10.5671 4.86258 10.7886 5.135 10.7911L5.79199 10.7972V10.7954H11.5737C11.627 10.7954 11.6788 10.8011 11.7281 10.8119C12.0486 10.8091 12.3778 10.8055 12.7185 10.801C12.9821 10.7976 13.1981 10.5818 13.1981 10.311C13.1981 10.0927 13.0564 9.90971 12.8672 9.84985ZM8.9209 13.0451C8.21262 13.0451 7.63295 12.4925 7.59012 11.7954H10.2517C10.2089 12.4924 9.62917 13.0451 8.9209 13.0451Z" fill="#949494"/>
</svg>
