<svg width="16" height="17" viewBox="0 0 16 17" fill="none" xmlns="http://www.w3.org/2000/svg">
<path fill-rule="evenodd" clip-rule="evenodd" d="M9.4528 8.59188C10.3733 8.59188 11.1195 7.84569 11.1195 6.92521C11.1195 6.00474 10.3733 5.25854 9.4528 5.25854C8.53232 5.25854 7.78613 6.00474 7.78613 6.92521C7.78613 7.84569 8.53232 8.59188 9.4528 8.59188ZM9.4528 7.59188C9.82099 7.59188 10.1195 7.2934 10.1195 6.92521C10.1195 6.55702 9.82099 6.25854 9.4528 6.25854C9.08461 6.25854 8.78613 6.55702 8.78613 6.92521C8.78613 7.2934 9.08461 7.59188 9.4528 7.59188Z" fill="#949494"/>
<path fill-rule="evenodd" clip-rule="evenodd" d="M6.14147 8.33042C6.44939 7.79709 7.21919 7.79709 7.52712 8.33042L8.91276 10.7304C9.22068 11.2638 8.83578 11.9304 8.21994 11.9304H5.44865C4.83281 11.9304 4.44791 11.2638 4.75583 10.7304L6.14147 8.33042ZM5.72578 10.9704L6.83429 9.05042L7.94281 10.9704H5.72578Z" fill="#949494"/>
<path fill-rule="evenodd" clip-rule="evenodd" d="M3.86675 3.3783C3.20401 3.3783 2.66675 3.91555 2.66675 4.5783V12.845C2.66675 13.5077 3.20401 14.045 3.86675 14.045H12.1334C12.7962 14.045 13.3334 13.5077 13.3334 12.845V4.5783C13.3334 3.91555 12.7962 3.3783 12.1334 3.3783H3.86675ZM12.1334 4.3783H3.86675C3.75629 4.3783 3.66675 4.46784 3.66675 4.5783V12.845C3.66675 12.9554 3.75629 13.045 3.86675 13.045H12.1334C12.2439 13.045 12.3334 12.9554 12.3334 12.845V4.5783C12.3334 4.46784 12.2439 4.3783 12.1334 4.3783Z" fill="#949494"/>
</svg>
