<svg width="25" height="25" viewBox="0 0 25 25" fill="none" xmlns="http://www.w3.org/2000/svg">
<path fill-rule="evenodd" clip-rule="evenodd" d="M4.78008 4.89185C4.11734 4.89185 3.58008 5.4291 3.58008 6.09185V19.6918C3.58008 20.3546 4.11734 20.8918 4.78008 20.8918H7.92484C8.58758 20.8918 9.12484 20.3546 9.12484 19.6918V6.09185C9.12484 5.4291 8.58758 4.89185 7.92484 4.89185H4.78008ZM5.18008 6.49185V19.2918H7.52484V6.49185H5.18008Z" fill="#949494"/>
<path fill-rule="evenodd" clip-rule="evenodd" d="M11.0076 7.77661C10.3449 7.77661 9.80762 8.31387 9.80762 8.97661V19.6918C9.80762 20.3546 10.3449 20.8918 11.0076 20.8918H14.1524C14.8151 20.8918 15.3524 20.3546 15.3524 19.6918V8.97661C15.3524 8.31387 14.8151 7.77661 14.1524 7.77661H11.0076ZM11.4076 9.37661V19.2918H13.7524V9.37661H11.4076Z" fill="#949494"/>
<path fill-rule="evenodd" clip-rule="evenodd" d="M16.0352 12.1724C16.0352 11.5097 16.5724 10.9724 17.2352 10.9724H20.3799C21.0427 10.9724 21.5799 11.5097 21.5799 12.1724V19.6918C21.5799 20.3546 21.0427 20.8918 20.3799 20.8918H17.2352C16.5724 20.8918 16.0352 20.3546 16.0352 19.6918V12.1724ZM17.6352 19.2918V12.5724H19.9799V19.2918H17.6352Z" fill="#949494"/>
</svg>
