<svg width="17" height="17" viewBox="0 0 17 17" fill="none" xmlns="http://www.w3.org/2000/svg">
<path d="M8.06079 5.8783C8.33693 5.8783 8.56079 6.10215 8.56079 6.3783V8.21167L10.394 8.21167C10.6701 8.21167 10.894 8.43553 10.894 8.71167C10.894 8.98781 10.6701 9.21167 10.394 9.21167L8.56079 9.21167V11.045C8.56079 11.3211 8.33693 11.545 8.06079 11.545C7.78465 11.545 7.56079 11.3211 7.56079 11.045V9.21167L5.72729 9.21167C5.45115 9.21167 5.22729 8.98781 5.22729 8.71167C5.22729 8.43553 5.45115 8.21167 5.72729 8.21167L7.56079 8.21167V6.3783C7.56079 6.10215 7.78465 5.8783 8.06079 5.8783Z" fill="#949494"/>
<path fill-rule="evenodd" clip-rule="evenodd" d="M2.72729 4.648C2.72729 3.98526 3.26455 3.448 3.92729 3.448H12.194C12.8567 3.448 13.394 3.98526 13.394 4.648V12.9147C13.394 13.5774 12.8567 14.1147 12.194 14.1147H3.9273C3.26455 14.1147 2.72729 13.5774 2.72729 12.9147V4.648ZM3.92729 4.448H12.194C12.3044 4.448 12.394 4.53754 12.394 4.648V12.9147C12.394 13.0251 12.3044 13.1147 12.194 13.1147H3.9273C3.81684 13.1147 3.72729 13.0251 3.72729 12.9147V4.648C3.72729 4.53754 3.81684 4.448 3.92729 4.448Z" fill="#949494"/>
</svg>
