<svg width="17" height="17" viewBox="0 0 17 17" fill="none" xmlns="http://www.w3.org/2000/svg">
<path fill-rule="evenodd" clip-rule="evenodd" d="M13.4488 10.4776C13.4488 9.82134 13.0227 9.25389 12.4196 9.06307C11.9411 6.11226 10.1956 3.9248 8.11553 3.9248C6.02876 3.9248 4.27868 6.12635 3.80683 9.09156C3.26549 9.31313 2.89429 9.84964 2.89429 10.4623C2.89429 11.2829 3.55591 11.9501 4.37641 11.9577L4.57029 11.9595L4.57706 11.9596C5.01419 11.9636 5.43317 11.9676 5.84011 11.9711C5.88878 13.2168 6.91401 14.2117 8.17163 14.2117C9.42548 14.2117 10.4483 13.2227 10.5027 11.9823C10.9762 11.9791 11.4663 11.9743 11.9823 11.9676C12.7966 11.9569 13.4488 11.292 13.4488 10.4776ZM6.68066 9.15857C6.40452 9.15857 6.18066 9.38243 6.18066 9.65857C6.18066 9.93471 6.40452 10.1586 6.68066 10.1586H9.66276C9.9389 10.1586 10.1628 9.93471 10.1628 9.65857C10.1628 9.38243 9.9389 9.15857 9.66276 9.15857H6.68066Z" fill="#949494"/>
</svg>
