<svg width="17" height="17" viewBox="0 0 17 17" fill="none" xmlns="http://www.w3.org/2000/svg">
<path fill-rule="evenodd" clip-rule="evenodd" d="M10.4423 11.8333C10.3425 11.8188 10.2436 11.8032 10.1456 11.7862C9.79988 11.7264 9.46574 11.651 9.14559 11.5614V12.7991C9.14559 13.4618 8.60833 13.9991 7.94559 13.9991H6.99207C6.32933 13.9991 5.79207 13.4618 5.79207 12.7991V9.96147H4.75952C3.65495 9.96147 2.75952 9.06604 2.75952 7.96147C2.75952 6.8569 3.65495 5.96147 4.75952 5.96147H6.29632C7.21711 5.08486 8.71074 4.43394 10.4746 4.18468C10.7005 3.6442 11.2386 3.27478 11.8524 3.27478C12.6718 3.27478 13.3416 3.93086 13.3529 4.75019C13.3851 7.08252 13.3669 8.82984 13.3424 11.1556C13.3338 11.9819 12.6616 12.6483 11.8352 12.6483C11.2883 12.6483 10.8003 12.355 10.5425 11.9075C10.506 11.887 10.4724 11.862 10.4423 11.8333ZM11.2574 4.80689C11.314 4.73579 11.3612 4.65643 11.3972 4.57038C11.4684 4.40002 11.644 4.27478 11.8524 4.27478C12.1289 4.27478 12.3493 4.49544 12.353 4.764C12.385 7.0828 12.3669 8.81906 12.3425 11.1451C12.3396 11.4243 12.1123 11.6483 11.8352 11.6483C11.6399 11.6483 11.4749 11.5387 11.3982 11.3884C11.3669 11.3269 11.3297 11.2695 11.2874 11.2168V4.97762C11.2874 4.91766 11.2768 4.86016 11.2574 4.80689ZM10.2874 5.22669C8.81728 5.48537 7.66274 6.04131 6.98583 6.68574C6.7999 6.86274 6.55303 6.96147 6.29632 6.96147H4.75952C4.20724 6.96147 3.75952 7.40918 3.75952 7.96147C3.75952 8.51375 4.20724 8.96147 4.75952 8.96147H5.79207C6.34436 8.96147 6.79207 9.40918 6.79207 9.96147V12.7991C6.79207 12.9095 6.88161 12.9991 6.99207 12.9991H7.94559C8.05604 12.9991 8.14559 12.9095 8.14559 12.7991V11.5614C8.14559 11.2485 8.292 10.9537 8.54127 10.7646C8.79053 10.5756 9.11391 10.5141 9.41518 10.5984C9.69306 10.6762 9.98445 10.7425 10.2874 10.7958L10.2874 5.22669Z" fill="#949494"/>
</svg>
