<svg width="25" height="25" viewBox="0 0 25 25" fill="none" xmlns="http://www.w3.org/2000/svg">
<path fill-rule="evenodd" clip-rule="evenodd" d="M12.7734 4.85146C8.33284 4.85146 4.73306 8.45124 4.73306 12.8918C4.73306 17.3323 8.33284 20.9321 12.7734 20.9321C17.2139 20.9321 20.8137 17.3323 20.8137 12.8918C20.8137 8.45124 17.2139 4.85146 12.7734 4.85146ZM3.13306 12.8918C3.13306 7.56759 7.44918 3.25146 12.7734 3.25146C18.0976 3.25146 22.4137 7.56759 22.4137 12.8918C22.4137 18.216 18.0976 22.5321 12.7734 22.5321C7.44918 22.5321 3.13306 18.216 3.13306 12.8918Z" fill="#009BFF"/>
<path fill-rule="evenodd" clip-rule="evenodd" d="M6.55852 10.9745C6.55851 10.0815 7.7835 9.77799 8.17268 10.617C8.62863 11.5999 8.97621 12.4249 9.33861 13.285C9.47164 13.6007 9.60668 13.9212 9.7498 14.256C9.79295 14.1548 9.83583 14.0541 9.87865 13.9536C10.3005 12.963 10.7165 11.9862 11.3331 10.6433C11.7138 9.81425 12.9523 10.0866 12.9523 10.9974L12.9523 15.8745C12.9523 16.2334 12.6613 16.5245 12.3023 16.5245C11.9433 16.5245 11.6523 16.2334 11.6523 15.8745L11.6523 13.1159C11.4519 13.5773 11.268 14.009 11.0815 14.4471C10.8971 14.8801 10.7101 15.3192 10.502 15.799C10.3732 16.0961 10.0796 16.2911 9.75255 16.2911C9.42675 16.2911 9.1353 16.0975 9.00555 15.8046C8.65745 15.0187 8.38428 14.3694 8.1239 13.7506C8.03478 13.5388 7.94715 13.3305 7.85852 13.1215L7.85853 15.8745C7.85853 16.2335 7.56752 16.5245 7.20854 16.5245C6.84955 16.5245 6.55853 16.2335 6.55853 15.8745L6.55852 10.9745Z" fill="#009BFF"/>
<path fill-rule="evenodd" clip-rule="evenodd" d="M18.7929 10.4532C19.0869 10.7042 19.1216 11.1461 18.8705 11.4401L16.8444 13.8121V15.8744C16.8444 16.261 16.531 16.5744 16.1444 16.5744C15.7578 16.5744 15.4444 16.261 15.4444 15.8744V13.8212L13.4167 11.5539C13.159 11.2657 13.1837 10.8232 13.4719 10.5655C13.76 10.3078 14.2026 10.3325 14.4603 10.6206L16.1323 12.4902L17.806 10.5308C18.0571 10.2368 18.499 10.2021 18.7929 10.4532Z" fill="#009BFF"/>
</svg>
