<svg width="24" height="25" viewBox="0 0 24 25" fill="none" xmlns="http://www.w3.org/2000/svg">
<path fill-rule="evenodd" clip-rule="evenodd" d="M20.0289 12.8932C20.0289 12.4514 19.6707 12.0932 19.2289 12.0932L6.70745 12.0932L10.7897 8.01095C11.1021 7.69853 11.1021 7.192 10.7897 6.87958C10.4773 6.56716 9.97077 6.56716 9.65835 6.87958L4.21039 12.3275C4.06036 12.4776 3.97607 12.681 3.97607 12.8932C3.97608 13.1054 4.06036 13.3089 4.21039 13.4589L9.65834 18.9068C9.97076 19.2192 10.4773 19.2192 10.7897 18.9068C11.1021 18.5943 11.1021 18.0878 10.7897 17.7754L6.70746 13.6932L19.2289 13.6932C19.6707 13.6932 20.0289 13.335 20.0289 12.8932Z" fill="#949494"/>
</svg>
