<svg width="25" height="25" viewBox="0 0 25 25" fill="none" xmlns="http://www.w3.org/2000/svg">
<path fill-rule="evenodd" clip-rule="evenodd" d="M12.2378 4.89185C7.81952 4.89185 4.23779 8.47357 4.23779 12.8918C4.23779 17.3101 7.81951 20.8918 12.2378 20.8918C16.6561 20.8918 20.2378 17.3101 20.2378 12.8918C20.2378 8.47357 16.6561 4.89185 12.2378 4.89185ZM11.2158 16.4961C11.2158 15.9642 11.647 15.533 12.179 15.533C12.7109 15.533 13.1421 15.9642 13.1421 16.4961C13.1421 17.028 12.7109 17.4592 12.179 17.4592C11.647 17.4592 11.2158 17.028 11.2158 16.4961ZM11.3792 13.3245C11.3792 13.7663 11.7373 14.1245 12.1792 14.1245C12.621 14.1245 12.9792 13.7663 12.9792 13.3245V9.32451C12.9792 8.88268 12.621 8.52451 12.1792 8.52451C11.7373 8.52451 11.3792 8.88268 11.3792 9.32451L11.3792 13.3245Z" fill="#949494"/>
</svg>
