<svg width="24" height="25" viewBox="0 0 24 25" fill="none" xmlns="http://www.w3.org/2000/svg">
<path fill-rule="evenodd" clip-rule="evenodd" d="M4.01294 7.99214C4.01294 7.55031 4.37111 7.19214 4.81294 7.19214L19.1667 7.19214C19.6085 7.19214 19.9667 7.55031 19.9667 7.99214C19.9667 8.43397 19.6085 8.79214 19.1667 8.79214L4.81294 8.79214C4.37111 8.79214 4.01294 8.43397 4.01294 7.99214Z" fill="#949494"/>
<path fill-rule="evenodd" clip-rule="evenodd" d="M6.88403 13.3918C6.88403 12.95 7.24221 12.5918 7.68403 12.5918L16.5483 12.5918C16.9901 12.5918 17.3483 12.95 17.3483 13.3918C17.3483 13.8336 16.9901 14.1918 16.5483 14.1918L7.68403 14.1918C7.24221 14.1918 6.88403 13.8336 6.88403 13.3918Z" fill="#949494"/>
<path fill-rule="evenodd" clip-rule="evenodd" d="M9.61841 18.8918C9.61841 18.45 9.97658 18.0918 10.4184 18.0918L13.8134 18.0918C14.2552 18.0918 14.6134 18.45 14.6134 18.8918C14.6134 19.3336 14.2552 19.6918 13.8134 19.6918H10.4184C9.97658 19.6918 9.61841 19.3336 9.61841 18.8918Z" fill="#949494"/>
</svg>
