<svg width="17" height="16" viewBox="0 0 17 16" fill="none" xmlns="http://www.w3.org/2000/svg">
<path d="M8.0918 5.21387C8.0918 6.31844 7.19637 7.21387 6.0918 7.21387C4.98723 7.21387 4.0918 6.31844 4.0918 5.21387C4.0918 4.1093 4.98723 3.21387 6.0918 3.21387C7.19637 3.21387 8.0918 4.1093 8.0918 5.21387Z" fill="#949494"/>
<path d="M12.2521 6.06979C12.2521 7.10072 11.4164 7.93646 10.3855 7.93646C9.35453 7.93646 8.5188 7.10072 8.5188 6.06979C8.5188 5.03886 9.35453 4.20312 10.3855 4.20312C11.4164 4.20312 12.2521 5.03886 12.2521 6.06979Z" fill="#949494"/>
<path d="M2.66066 12.7861C2.32633 12.7861 2.05333 12.5117 2.09116 12.1795C2.36414 9.78209 4.05139 7.9364 6.09207 7.9364C7.05394 7.9364 7.93729 8.34646 8.63103 9.03107C9.14989 8.67612 9.74836 8.47372 10.3856 8.47372C12.2002 8.47372 13.7005 10.1149 13.9432 12.2467C13.9768 12.5421 13.7341 12.7861 13.4368 12.7861L2.66066 12.7861Z" fill="#949494"/>
</svg>
