<svg width="24" height="25" viewBox="0 0 24 25" fill="none" xmlns="http://www.w3.org/2000/svg">
<path d="M15.5314 9.07061C15.7614 8.69337 16.2537 8.57401 16.6309 8.80402C17.0081 9.03402 17.1275 9.52629 16.8975 9.90353L12.9439 16.388C12.2564 17.5155 10.6843 17.6791 9.77949 16.7172L7.19459 13.9694C6.89185 13.6476 6.90732 13.1413 7.22914 12.8386C7.55095 12.5358 8.05725 12.5513 8.35998 12.8731L10.9449 15.6209C11.1258 15.8133 11.4403 15.7806 11.5778 15.5551L15.5314 9.07061Z" fill="#949494"/>
<path fill-rule="evenodd" clip-rule="evenodd" d="M4.01074 6.19634C4.01074 5.5336 4.548 4.99634 5.21074 4.99634H18.8107C19.4735 4.99634 20.0107 5.5336 20.0107 6.19634V19.7963C20.0107 20.4591 19.4735 20.9963 18.8107 20.9963H5.21074C4.548 20.9963 4.01074 20.4591 4.01074 19.7963V6.19634ZM5.61074 19.3963V6.59634H18.4107V19.3963H5.61074Z" fill="#949494"/>
</svg>
