<svg width="17" height="17" viewBox="0 0 17 17" fill="none" xmlns="http://www.w3.org/2000/svg">
<path d="M9.86676 7.16211C10.0858 6.99396 10.3997 7.03522 10.5678 7.25426C10.736 7.4733 10.6947 7.78719 10.4757 7.95534L9.04895 9.05059C8.61227 9.38581 8.07715 9.56752 7.52663 9.56752H5.98349C5.70735 9.56752 5.48349 9.34367 5.48349 9.06752C5.48349 8.79138 5.70735 8.56752 5.98349 8.56752H7.52663C7.85694 8.56752 8.17801 8.4585 8.44002 8.25736L9.86676 7.16211Z" fill="#949494"/>
<path fill-rule="evenodd" clip-rule="evenodd" d="M3.29886 7.10351C2.8155 6.73052 2.50415 6.14548 2.50415 5.48771C2.50415 4.36121 3.41736 3.448 4.54386 3.448C5.13814 3.448 5.67306 3.70215 6.04586 4.10768C6.65694 3.84153 7.33154 3.69393 8.04061 3.69393C8.77006 3.69393 9.46303 3.85014 10.0879 4.13092C10.4615 3.71188 11.0054 3.448 11.6109 3.448C12.7374 3.448 13.6506 4.36121 13.6506 5.48771C13.6506 6.1719 13.3138 6.77741 12.7968 7.14742C12.9551 7.63441 13.0406 8.15418 13.0406 8.69393C13.0406 10.0627 12.4906 11.303 11.5996 12.2059L12.3642 12.9705C12.5595 13.1658 12.5595 13.4824 12.3642 13.6776C12.169 13.8729 11.8524 13.8729 11.6571 13.6776L10.8562 12.8767C10.8461 12.8667 10.8366 12.8564 10.8277 12.8457C10.0313 13.3814 9.07247 13.6939 8.04061 13.6939C7.00597 13.6939 6.04473 13.3797 5.24713 12.8414C5.22943 12.8676 5.20898 12.8926 5.18575 12.9158L4.42387 13.6777C4.22861 13.873 3.91203 13.873 3.71677 13.6777C3.5215 13.4824 3.5215 13.1658 3.71677 12.9706L4.47865 12.2087L4.48157 12.2058C3.59057 11.3029 3.04061 10.0626 3.04061 8.69393C3.04061 8.13792 3.13136 7.60312 3.29886 7.10351ZM3.90978 6.31182C4.24706 6.57208 4.38242 7.01746 4.247 7.42139C4.1134 7.81985 4.04061 8.24737 4.04061 8.69393C4.04061 10.9031 5.83147 12.6939 8.04061 12.6939C10.2497 12.6939 12.0406 10.9031 12.0406 8.69393C12.0406 8.2604 11.972 7.84485 11.8458 7.45645C11.7111 7.04195 11.8604 6.58796 12.2148 6.33428C12.4807 6.14396 12.6506 5.83569 12.6506 5.48771C12.6506 4.91349 12.1851 4.448 11.6109 4.448C11.3024 4.448 11.0262 4.58115 10.8343 4.79636C10.544 5.12206 10.076 5.2219 9.67801 5.04306C9.1795 4.81905 8.62601 4.69393 8.04061 4.69393C7.47151 4.69393 6.93265 4.81218 6.44518 5.0245C6.05421 5.19478 5.59827 5.0984 5.30966 4.78445C5.11828 4.57625 4.84678 4.448 4.54386 4.448C3.96965 4.448 3.50415 4.91349 3.50415 5.48771C3.50415 5.82243 3.66122 6.12001 3.90978 6.31182Z" fill="#949494"/>
</svg>
