<svg width="17" height="17" viewBox="0 0 17 17" fill="none" xmlns="http://www.w3.org/2000/svg">
<path d="M10.0594 7.97045C10.2321 7.75499 10.1975 7.44031 9.98203 7.26759C9.76658 7.09487 9.45189 7.12951 9.27917 7.34496L7.725 9.28364L6.57741 8.13605C6.38214 7.94079 6.06556 7.94079 5.8703 8.13605C5.67504 8.33131 5.67504 8.64789 5.8703 8.84316L7.4125 10.3854C7.51301 10.4859 7.65153 10.5388 7.79345 10.5311C7.93537 10.5233 8.06727 10.4554 8.15618 10.3446L10.0594 7.97045Z" fill="#949494"/>
<path fill-rule="evenodd" clip-rule="evenodd" d="M9.89028 4.12853L9.81647 3.96413C9.10958 2.38973 6.8743 2.38972 6.16741 3.96413L6.09359 4.12853L5.92515 4.06447C4.31203 3.45105 2.73145 5.03163 3.34487 6.64475L3.40892 6.8132L3.24452 6.88701C1.67012 7.5939 1.67012 9.82918 3.24452 10.5361L3.40892 10.6099L3.34487 10.7783C2.73145 12.3914 4.31202 13.972 5.92515 13.3586L6.09359 13.2946L6.16741 13.459C6.8743 15.0334 9.10957 15.0334 9.81647 13.459L9.89028 13.2946L10.0587 13.3586C11.6718 13.972 13.2524 12.3914 12.639 10.7783L12.5749 10.6099L12.7394 10.5361C14.3138 9.82918 14.3138 7.5939 12.7394 6.88701L12.5749 6.8132L12.639 6.64475C13.2524 5.03163 11.6718 3.45105 10.0587 4.06448L9.89028 4.12853ZM4.27957 11.1338L4.34362 10.9653C4.53184 10.4704 4.30159 9.91451 3.81852 9.69762L3.65412 9.62381C2.86692 9.27036 2.86692 8.15272 3.65412 7.79928L3.81852 7.72546C4.30159 7.50857 4.53184 6.9527 4.34362 6.45776L4.27957 6.28931C3.97286 5.48275 4.76315 4.69246 5.56971 4.99917L5.73815 5.06323C6.2331 5.25144 6.78896 5.0212 7.00586 4.53813L7.07967 4.37373C7.43312 3.58652 8.55076 3.58653 8.9042 4.37373L8.97802 4.53813C9.19491 5.0212 9.75078 5.25144 10.2457 5.06323L10.4142 4.99918C11.2207 4.69246 12.011 5.48275 11.7043 6.28931L11.6403 6.45776C11.452 6.9527 11.6823 7.50857 12.1654 7.72546L12.3298 7.79928C13.117 8.15272 13.117 9.27036 12.3298 9.62381L12.1653 9.69762C11.6823 9.91452 11.452 10.4704 11.6403 10.9653L11.7043 11.1338C12.011 11.9403 11.2207 12.7306 10.4142 12.4239L10.2457 12.3599C9.75078 12.1716 9.19491 12.4019 8.97802 12.885L8.9042 13.0494C8.55076 13.8366 7.43312 13.8366 7.07967 13.0494L7.00586 12.885C6.78896 12.4019 6.2331 12.1716 5.73815 12.3599L5.56971 12.4239C4.76315 12.7306 3.97286 11.9403 4.27957 11.1338Z" fill="#949494"/>
</svg>
