<svg width="24" height="25" viewBox="0 0 24 25" fill="none" xmlns="http://www.w3.org/2000/svg">
<path fill-rule="evenodd" clip-rule="evenodd" d="M9.07911 11.052C9.07911 9.43884 10.3868 8.13111 12 8.13111C13.6132 8.13111 14.9209 9.43884 14.9209 11.052C14.9209 12.6652 13.6132 13.9729 12 13.9729C10.3868 13.9729 9.0791 12.6652 9.07911 11.052ZM10.6791 11.052C10.6791 10.3225 11.2705 9.73111 12 9.73111C12.7295 9.73111 13.3209 10.3225 13.3209 11.052C13.3209 11.7815 12.7295 12.3729 12 12.3729C11.2705 12.3729 10.6791 11.7815 10.6791 11.052Z" fill="#949494"/>
<path fill-rule="evenodd" clip-rule="evenodd" d="M12 4.89185C8.55793 4.89185 5.76758 7.68219 5.76758 11.1243C5.76758 12.6192 6.29391 13.9912 7.17137 15.065C7.21648 15.183 7.27695 15.2989 7.35392 15.4105L10.6468 20.1844C11.2828 21.1065 12.645 21.1064 13.2809 20.1844L16.5736 15.4104C16.61 15.3577 16.6427 15.304 16.6718 15.2496C17.643 14.1506 18.2324 12.7062 18.2324 11.1243C18.2324 7.68219 15.4421 4.89185 12 4.89185ZM8.66576 14.4934L8.57369 14.2526L8.41035 14.0527C7.7578 13.254 7.36758 12.2369 7.36758 11.1243C7.36758 8.56585 9.44158 6.49184 12 6.49184C14.5584 6.49184 16.6324 8.56585 16.6324 11.1243C16.6324 12.3012 16.1956 13.3722 15.4729 14.1901L15.3492 14.33L15.2611 14.4946C15.2611 14.4946 15.2591 14.4983 15.2565 14.502L11.9638 19.2759L8.67101 14.502C8.66764 14.4971 8.66576 14.4934 8.66576 14.4934Z" fill="#949494"/>
</svg>
