<svg width="17" height="17" viewBox="0 0 17 17" fill="none" xmlns="http://www.w3.org/2000/svg">
<path fill-rule="evenodd" clip-rule="evenodd" d="M11.9944 7.84637L6.25905 13.5452C6.11445 13.6889 5.9294 13.785 5.72869 13.8205L4.00817 14.1254C3.32401 14.2467 2.72778 13.6504 2.84902 12.9663L3.15329 11.2492C3.18924 11.0464 3.28697 10.8596 3.43311 10.7143L10.9804 3.21508C11.3712 2.82668 12.0027 2.82769 12.3923 3.21733L13.8065 4.63154C14.1979 5.02294 14.1969 5.65785 13.8043 6.048L12.0238 7.81715C12.0195 7.8218 12.0151 7.82639 12.0105 7.83091C12.0052 7.83621 11.9999 7.84136 11.9944 7.84637ZM11.6852 3.92444L13.0994 5.33864L11.6578 6.77108L10.2436 5.35688L11.6852 3.92444ZM9.53424 6.06173L4.13795 11.4237L3.83368 13.1408L5.5542 12.8359L10.9484 7.47593L9.53424 6.06173Z" fill="#949494"/>
</svg>
