<svg width="17" height="16" viewBox="0 0 17 16" fill="none" xmlns="http://www.w3.org/2000/svg">
<path fill-rule="evenodd" clip-rule="evenodd" d="M8.56647 5.43526C8.83228 5.51007 8.98712 5.78621 8.91231 6.05202L8.77536 6.53862H9.73291L9.94008 5.78417C10.0132 5.51788 10.2883 5.36129 10.5546 5.43442C10.8209 5.50754 10.9775 5.78268 10.9044 6.04897L10.7699 6.53862H11.276C11.5522 6.53862 11.776 6.76247 11.776 7.03862C11.776 7.31476 11.5522 7.53862 11.276 7.53862H10.4953L10.1832 8.67521H10.8278C11.1039 8.67521 11.3278 8.89907 11.3278 9.17521C11.3278 9.45135 11.1039 9.67521 10.8278 9.67521H9.90862L9.72893 10.3296C9.65581 10.5959 9.38066 10.7525 9.11438 10.6794C8.84809 10.6062 8.6915 10.3311 8.76462 10.0648L8.87161 9.67521H7.89259L7.70756 10.3327C7.63275 10.5985 7.35661 10.7533 7.0908 10.6785C6.82498 10.6037 6.67014 10.3276 6.74495 10.0617L6.85374 9.67521H6.53157C6.25543 9.67521 6.03157 9.45135 6.03157 9.17521C6.03157 8.89907 6.25543 8.67521 6.53157 8.67521H7.13518L7.45507 7.53862H6.97982C6.70367 7.53862 6.47982 7.31476 6.47982 7.03862C6.47982 6.76247 6.70367 6.53862 6.97982 6.53862H7.73651L7.94971 5.7811C8.02452 5.51529 8.30065 5.36045 8.56647 5.43526ZM8.49392 7.53862L8.17403 8.67521H9.14621L9.45831 7.53862H8.49392Z" fill="#949494"/>
<path fill-rule="evenodd" clip-rule="evenodd" d="M8.96395 2.61426C6.01843 2.61426 3.63062 5.00207 3.63062 7.94759C3.63062 10.8931 6.01843 13.2809 8.96395 13.2809C11.9095 13.2809 14.2973 10.8931 14.2973 7.94759C14.2973 5.00207 11.9095 2.61426 8.96395 2.61426ZM8.96395 3.61426C6.57072 3.61426 4.63062 5.55436 4.63062 7.94759C4.63062 10.3408 6.57071 12.2809 8.96395 12.2809C11.3572 12.2809 13.2973 10.3408 13.2973 7.94759C13.2973 5.55436 11.3572 3.61426 8.96395 3.61426Z" fill="#949494"/>
</svg>
