<svg width="49" height="49" viewBox="0 0 49 49" fill="none" xmlns="http://www.w3.org/2000/svg">
<rect x="1.64844" y="1.66406" width="46" height="46" rx="23" fill="white"/>
<path fill-rule="evenodd" clip-rule="evenodd" d="M24.7108 32.6935C25.1526 32.6935 25.5108 32.3353 25.5108 31.8935L25.5108 19.372L29.593 23.4543C29.9054 23.7667 30.412 23.7667 30.7244 23.4543C31.0368 23.1418 31.0368 22.6353 30.7244 22.3229L25.2764 16.8749C25.1264 16.7249 24.9229 16.6406 24.7107 16.6406C24.4986 16.6406 24.2951 16.7249 24.1451 16.8749L18.6972 22.3229C18.3848 22.6353 18.3848 23.1418 18.6972 23.4543C19.0096 23.7667 19.5162 23.7667 19.8286 23.4543L23.9108 19.372L23.9108 31.8935C23.9108 32.3353 24.269 32.6935 24.7108 32.6935Z" fill="#949494"/>
<rect x="1.64844" y="1.66406" width="46" height="46" rx="23" stroke="#F0F5F8" stroke-width="2"/>
</svg>
