<svg width="17" height="16" viewBox="0 0 17 16" fill="none" xmlns="http://www.w3.org/2000/svg">
<path d="M14.8849 6.7533C14.8849 4.58399 13.3225 2.65649 11.1525 2.65649C10.0125 2.65649 9.12653 3.39468 8.54622 4.16099C7.96252 3.40409 7.07884 2.68909 5.94978 2.68909C3.79444 2.68909 2.21826 4.56101 2.21826 6.74767C2.21826 7.90485 2.64815 8.72641 3.21719 9.48083C3.25976 9.53728 3.30575 9.58921 3.354 9.63651L7.01328 13.2236C7.8691 14.0625 9.23896 14.0621 10.0943 13.2227L13.749 9.63598C13.7969 9.58896 13.8426 9.5374 13.8848 9.48143C14.4531 8.72881 14.8849 7.91171 14.8849 6.7533Z" fill="#949494"/>
</svg>
