<svg width="17" height="17" viewBox="0 0 17 17" fill="none" xmlns="http://www.w3.org/2000/svg">
<path fill-rule="evenodd" clip-rule="evenodd" d="M12.2191 4.448H3.95244C3.84199 4.448 3.75244 4.53754 3.75244 4.648V12.9147C3.75244 13.0251 3.84198 13.1147 3.95244 13.1147H12.2191C12.3296 13.1147 12.4191 13.0251 12.4191 12.9147V4.648C12.4191 4.53754 12.3296 4.448 12.2191 4.448ZM3.95244 3.448C3.2897 3.448 2.75244 3.98526 2.75244 4.648V12.9147C2.75244 13.5774 3.2897 14.1147 3.95244 14.1147H12.2191C12.8819 14.1147 13.4191 13.5774 13.4191 12.9147V4.648C13.4191 3.98526 12.8818 3.448 12.2191 3.448H3.95244Z" fill="#949494"/>
<path fill-rule="evenodd" clip-rule="evenodd" d="M11.1485 6.01494C10.9127 5.87118 10.6051 5.94578 10.4613 6.18155L8.09878 10.0564C7.85818 10.451 7.30794 10.5083 6.99125 10.1716L5.62762 8.72205C5.43841 8.52092 5.12198 8.51125 4.92085 8.70046C4.71971 8.88967 4.71004 9.2061 4.89925 9.40724L6.26289 10.8568C7.03198 11.6744 8.36827 11.5354 8.9526 10.577L11.3151 6.70213C11.4589 6.46636 11.3843 6.15869 11.1485 6.01494Z" fill="#949494"/>
</svg>
