<svg width="24" height="25" viewBox="0 0 24 25" fill="none" xmlns="http://www.w3.org/2000/svg">
<path fill-rule="evenodd" clip-rule="evenodd" d="M14.9766 5.68701C13.4403 5.68701 12.195 6.93239 12.195 8.46863C12.195 8.70125 12.2236 8.92742 12.2775 9.14373L9.18762 10.909C8.68578 10.4154 7.99685 10.1104 7.23694 10.1104C5.7007 10.1104 4.45532 11.3558 4.45532 12.892C4.45532 14.4283 5.7007 15.6737 7.23694 15.6737C7.99721 15.6737 8.68642 15.3684 9.18833 14.8743L12.2775 16.6403C12.2236 16.8566 12.195 17.0828 12.195 17.3154C12.195 18.8517 13.4403 20.0971 14.9766 20.0971C16.5128 20.0971 17.7582 18.8517 17.7582 17.3154C17.7582 15.7792 16.5128 14.5338 14.9766 14.5338C14.2163 14.5338 13.5271 14.839 13.0252 15.3331L9.93602 13.5672C9.98997 13.3509 10.0186 13.1247 10.0186 12.892C10.0186 12.6594 9.98997 12.4332 9.93603 12.2169L13.0259 10.4516C13.5278 10.9453 14.2167 11.2503 14.9766 11.2503C16.5128 11.2503 17.7582 10.0049 17.7582 8.46863C17.7582 6.93239 16.5128 5.68701 14.9766 5.68701ZM13.7008 8.46863C13.7008 7.76404 14.272 7.19286 14.9766 7.19286C15.6812 7.19286 16.2524 7.76404 16.2524 8.46863C16.2524 9.17322 15.6812 9.7444 14.9766 9.7444C14.272 9.7444 13.7008 9.17322 13.7008 8.46863ZM5.96117 12.892C5.96117 12.1874 6.53235 11.6163 7.23694 11.6163C7.94153 11.6163 8.51271 12.1874 8.51271 12.892C8.51271 13.5966 7.94153 14.1678 7.23694 14.1678C6.53236 14.1678 5.96117 13.5966 5.96117 12.892ZM13.7008 17.3154C13.7008 16.6108 14.272 16.0397 14.9766 16.0397C15.6812 16.0397 16.2524 16.6108 16.2524 17.3154C16.2524 18.02 15.6812 18.5912 14.9766 18.5912C14.272 18.5912 13.7008 18.02 13.7008 17.3154Z" fill="#949494"/>
</svg>
