<svg width="25" height="25" viewBox="0 0 25 25" fill="none" xmlns="http://www.w3.org/2000/svg">
<path d="M7.75044 12.0918C7.30861 12.0918 6.95044 12.45 6.95044 12.8918C6.95044 13.3336 7.30861 13.6918 7.75044 13.6918L9.12739 13.6918L9.13155 13.6918L9.53111 15.3031C9.75436 16.2034 11.0288 16.2182 11.2729 15.3233L12.0606 12.4364L12.9407 15.3476C13.2091 16.2355 14.4827 16.186 14.6813 15.2799L15.0296 13.6911C15.0412 13.6915 15.0528 13.6918 15.0644 13.6918H16.416C16.8578 13.6918 17.216 13.3336 17.216 12.8918C17.216 12.45 16.8578 12.0918 16.416 12.0918H15.3802L15.748 10.4145C15.8307 10.0369 15.5917 9.66364 15.2141 9.58086C14.8365 9.49807 14.4632 9.73709 14.3804 10.1147L13.725 13.1042L12.8975 10.3666C12.636 9.50168 11.4055 9.51841 11.1677 10.3901L10.4278 13.1022L9.68232 10.0961C9.58927 9.7209 9.20965 9.49215 8.83442 9.5852C8.45918 9.67825 8.23043 10.0579 8.32348 10.4331L8.7348 12.0918H7.75044Z" fill="#949494"/>
<path fill-rule="evenodd" clip-rule="evenodd" d="M20.0645 12.8918C20.0645 17.3101 16.4827 20.8918 12.0645 20.8918C7.64618 20.8918 4.06445 17.3101 4.06445 12.8918C4.06445 8.47357 7.64618 4.89185 12.0645 4.89185C16.4827 4.89185 20.0645 8.47357 20.0645 12.8918ZM18.4645 12.8918C18.4645 16.4265 15.5991 19.2918 12.0645 19.2918C8.52983 19.2918 5.66445 16.4265 5.66445 12.8918C5.66445 9.35722 8.52983 6.49185 12.0645 6.49185C15.5991 6.49185 18.4645 9.35722 18.4645 12.8918Z" fill="#949494"/>
</svg>
