<svg width="25" height="25" viewBox="0 0 25 25" fill="none" xmlns="http://www.w3.org/2000/svg">
<path fill-rule="evenodd" clip-rule="evenodd" d="M14.2437 12.7122C15.6244 12.7122 16.7437 11.5929 16.7437 10.2122C16.7437 8.83145 15.6244 7.71216 14.2437 7.71216C12.8629 7.71216 11.7437 8.83145 11.7437 10.2122C11.7437 11.5929 12.8629 12.7122 14.2437 12.7122ZM14.2437 11.3122C14.8512 11.3122 15.3437 10.8197 15.3437 10.2122C15.3437 9.60464 14.8512 9.11216 14.2437 9.11216C13.6361 9.11216 13.1437 9.60464 13.1437 10.2122C13.1437 10.8197 13.6361 11.3122 14.2437 11.3122Z" fill="#949494"/>
<path fill-rule="evenodd" clip-rule="evenodd" d="M9.27667 12.32C9.73855 11.52 10.8932 11.52 11.3551 12.32L13.4336 15.92C13.8955 16.72 13.3181 17.72 12.3944 17.72H8.23743C7.31367 17.72 6.73632 16.72 7.1982 15.92L9.27667 12.32ZM8.65313 16.28L10.3159 13.4L11.9787 16.28H8.65313Z" fill="#949494"/>
<path fill-rule="evenodd" clip-rule="evenodd" d="M5.26445 4.89185C4.60171 4.89185 4.06445 5.4291 4.06445 6.09185V19.6918C4.06445 20.3546 4.60171 20.8918 5.26445 20.8918H18.8645C19.5272 20.8918 20.0645 20.3546 20.0645 19.6918V6.09185C20.0645 5.4291 19.5272 4.89185 18.8645 4.89185H5.26445ZM5.66445 6.49185V19.2918H18.4645V6.49185H5.66445Z" fill="#949494"/>
</svg>
