<svg width="25" height="25" viewBox="0 0 25 25" fill="none" xmlns="http://www.w3.org/2000/svg">
<path fill-rule="evenodd" clip-rule="evenodd" d="M12.179 21.0638C17.1495 21.0638 21.179 17.0344 21.179 12.0638C21.179 7.09328 17.1495 3.06384 12.179 3.06384C7.20839 3.06384 3.17896 7.09328 3.17896 12.0638C3.17896 17.0344 7.20839 21.0638 12.179 21.0638ZM12.2375 7.26379C12.6793 7.26379 13.0375 7.62197 13.0375 8.06379V11.2638H16.1789C16.6207 11.2638 16.9789 11.622 16.9789 12.0638C16.9789 12.5056 16.6207 12.8638 16.1789 12.8638L13.0375 12.8638V16.0638C13.0375 16.5056 12.6793 16.8638 12.2375 16.8638C11.7957 16.8638 11.4375 16.5056 11.4375 16.0638V12.8638H8.17891C7.73708 12.8638 7.37891 12.5056 7.37891 12.0638C7.37891 11.622 7.73708 11.2638 8.17891 11.2638L11.4375 11.2638V8.06379C11.4375 7.62197 11.7957 7.26379 12.2375 7.26379Z" fill="#949494"/>
</svg>
