<svg width="24" height="25" viewBox="0 0 24 25" fill="none" xmlns="http://www.w3.org/2000/svg">
<path d="M12.8585 5.8918C12.8585 5.44997 12.5004 5.0918 12.0585 5.0918C11.6167 5.0918 11.2585 5.44997 11.2585 5.8918L11.2585 12.0918L5.05855 12.0918C4.61672 12.0918 4.25854 12.45 4.25854 12.8918C4.25854 13.3336 4.61672 13.6918 5.05855 13.6918L11.2585 13.6918L11.2585 19.8918C11.2585 20.3336 11.6167 20.6918 12.0585 20.6918C12.5004 20.6918 12.8585 20.3336 12.8585 19.8918V13.6918L19.0585 13.6918C19.5004 13.6918 19.8585 13.3336 19.8585 12.8918C19.8585 12.45 19.5004 12.0918 19.0585 12.0918L12.8585 12.0918V5.8918Z" fill="#949494"/>
</svg>
