<svg width="17" height="16" viewBox="0 0 17 16" fill="none" xmlns="http://www.w3.org/2000/svg">
<path fill-rule="evenodd" clip-rule="evenodd" d="M8.40758 2.68335C8.13144 2.68335 7.90758 2.90721 7.90758 3.18335L7.9076 11.6115L5.12919 8.83305C4.93393 8.63779 4.61734 8.63779 4.42208 8.83305C4.22682 9.02831 4.22682 9.34489 4.42208 9.54015L8.05405 13.1721C8.14782 13.2659 8.275 13.3186 8.40761 13.3186C8.54022 13.3186 8.66739 13.2659 8.76116 13.1721L12.3931 9.54016C12.5883 9.3449 12.5883 9.02831 12.3931 8.83305C12.1978 8.63779 11.8812 8.63779 11.686 8.83306L8.9076 11.6115L8.90758 3.18335C8.90758 2.90721 8.68372 2.68335 8.40758 2.68335Z" fill="#949494"/>
</svg>
