<svg width="25" height="25" viewBox="0 0 25 25" fill="none" xmlns="http://www.w3.org/2000/svg">
<path fill-rule="evenodd" clip-rule="evenodd" d="M12.1984 20.2266C16.6166 20.2266 20.1984 16.6448 20.1984 12.2266C20.1984 7.80828 16.6166 4.22656 12.1984 4.22656C7.78009 4.22656 4.19836 7.80828 4.19836 12.2266C4.19836 16.6448 7.78009 20.2266 12.1984 20.2266ZM12.1984 22.2266C17.7212 22.2266 22.1984 17.7494 22.1984 12.2266C22.1984 6.70371 17.7212 2.22656 12.1984 2.22656C6.67552 2.22656 2.19836 6.70371 2.19836 12.2266C2.19836 17.7494 6.67552 22.2266 12.1984 22.2266Z" fill="#009BFF"/>
<path d="M17.1984 12.2266C17.1984 14.988 14.9598 17.2266 12.1984 17.2266C9.43694 17.2266 7.19836 14.988 7.19836 12.2266C7.19836 9.46514 9.43694 7.22656 12.1984 7.22656C14.9598 7.22656 17.1984 9.46514 17.1984 12.2266Z" fill="#009BFF"/>
</svg>
