<svg width="25" height="25" viewBox="0 0 25 25" fill="none" xmlns="http://www.w3.org/2000/svg">
<rect x="0.808594" y="0.890625" width="24" height="24" rx="12" fill="#F0F5F8"/>
<path fill-rule="evenodd" clip-rule="evenodd" d="M15.1312 6.49072L15.1309 8.52033H19.2135V19.2903H6.41348V8.52033H10.4135L10.4138 6.49182L15.1312 6.49072ZM6.01348 6.92033H8.8137L8.81383 6.09173C8.81393 5.42917 9.35099 4.89207 10.0135 4.89191L15.531 4.89063C16.188 4.89047 16.7218 5.41839 16.7311 6.07319L16.7313 6.0908L16.7311 6.92033H19.6135C20.2762 6.92033 20.8135 7.45759 20.8135 8.12033V19.6903C20.8135 20.353 20.2762 20.8903 19.6135 20.8903H6.01348C5.35073 20.8903 4.81348 20.353 4.81348 19.6903V8.12033C4.81348 7.45759 5.35073 6.92033 6.01348 6.92033ZM15.5421 13.7905C15.5421 15.2975 14.3204 16.5191 12.8135 16.5191C11.3065 16.5191 10.0849 15.2975 10.0849 13.7905C10.0849 12.2836 11.3065 11.0619 12.8135 11.0619C14.3204 11.0619 15.5421 12.2836 15.5421 13.7905ZM17.1421 13.7905C17.1421 16.1812 15.2041 18.1191 12.8135 18.1191C10.4228 18.1191 8.48486 16.1812 8.48486 13.7905C8.48486 11.3999 10.4228 9.46191 12.8135 9.46191C15.2041 9.46191 17.1421 11.3999 17.1421 13.7905Z" fill="#949494"/>
</svg>
