<svg width="25" height="25" viewBox="0 0 25 25" fill="none" xmlns="http://www.w3.org/2000/svg">
<path d="M12.7644 15.1612C13.2402 14.9098 13.5645 14.4099 13.5645 13.8342C13.5645 13.0058 12.8929 12.3342 12.0645 12.3342C11.236 12.3342 10.5645 13.0058 10.5645 13.8342C10.5645 14.4098 10.8887 14.9097 11.3644 15.1612L11.3644 16.9134C11.3644 17.3 11.6778 17.6134 12.0644 17.6134C12.451 17.6134 12.7644 17.3 12.7644 16.9134V15.1612Z" fill="#949494"/>
<path fill-rule="evenodd" clip-rule="evenodd" d="M8.66528 8.89185V8.36228C8.66528 6.45627 10.2104 4.91113 12.1164 4.91113C14.0225 4.91113 15.5676 6.45627 15.5676 8.36229V8.89185H17.8854C18.5482 8.89185 19.0854 9.4291 19.0854 10.0918V19.6918C19.0854 20.3546 18.5482 20.8918 17.8854 20.8918H6.28545C5.62271 20.8918 5.08545 20.3546 5.08545 19.6918V10.0918C5.08545 9.4291 5.62271 8.89185 6.28545 8.89185H8.66528ZM10.0653 8.36228C10.0653 7.22947 10.9836 6.31113 12.1164 6.31113C13.2493 6.31113 14.1676 7.22947 14.1676 8.36229V8.89185H10.0653V8.36228ZM6.68545 10.4918V19.2918H17.4854V10.4918H6.68545Z" fill="#949494"/>
</svg>
