<svg width="25" height="25" viewBox="0 0 25 25" fill="none" xmlns="http://www.w3.org/2000/svg">
<path d="M15.5622 9.39159C15.8747 9.70401 15.8747 10.2105 15.5622 10.523L13.1367 12.9485L15.4488 15.2606C15.7613 15.573 15.7613 16.0796 15.4488 16.392C15.1364 16.7044 14.6299 16.7044 14.3175 16.392L12.0053 14.0799L9.69326 16.3919C9.38084 16.7044 8.87431 16.7044 8.56189 16.3919C8.24947 16.0795 8.24947 15.573 8.56189 15.2606L10.874 12.9485L8.44847 10.523C8.13606 10.2106 8.13606 9.70403 8.44847 9.39161C8.76089 9.07919 9.26743 9.07919 9.57985 9.39161L12.0053 11.8171L14.4309 9.39159C14.7433 9.07917 15.2498 9.07917 15.5622 9.39159Z" fill="#C1C6CA"/>
<path fill-rule="evenodd" clip-rule="evenodd" d="M4.00537 6.09185C4.00537 5.4291 4.54263 4.89185 5.20537 4.89185H18.8054C19.4681 4.89185 20.0054 5.4291 20.0054 6.09185V19.6918C20.0054 20.3546 19.4681 20.8918 18.8054 20.8918H5.20537C4.54263 20.8918 4.00537 20.3546 4.00537 19.6918V6.09185ZM5.60537 19.2918V6.49185H18.4054V19.2918H5.60537Z" fill="#C1C6CA"/>
</svg>
