<svg width="25" height="25" viewBox="0 0 25 25" fill="none" xmlns="http://www.w3.org/2000/svg">
<path fill-rule="evenodd" clip-rule="evenodd" d="M19.9241 15.2909C19.9241 14.3065 19.2849 13.4553 18.3803 13.1691C17.6626 8.74285 15.0443 5.46167 11.9241 5.46167C8.79399 5.46167 6.16888 8.76399 5.46111 13.2118C4.64909 13.5442 4.09229 14.3489 4.09229 15.268C4.09229 16.4988 5.08472 17.4996 6.31546 17.511L6.59886 17.5137C7.2609 17.5198 7.89516 17.5257 8.51102 17.5311C8.58402 19.3996 10.1219 20.892 12.0083 20.892C13.8891 20.892 15.4234 19.4085 15.5049 17.5479C16.2152 17.5431 16.9502 17.5359 17.7243 17.5258C18.9457 17.5098 19.9241 16.5125 19.9241 15.2909ZM9.77187 13.4623C9.4405 13.4623 9.17188 13.7309 9.17188 14.0623C9.17188 14.3937 9.4405 14.6623 9.77187 14.6623H14.245C14.5764 14.6623 14.845 14.3937 14.845 14.0623C14.845 13.7309 14.5764 13.4623 14.245 13.4623H9.77187Z" fill="#949494"/>
</svg>
