<svg width="17" height="17" viewBox="0 0 17 17" fill="none" xmlns="http://www.w3.org/2000/svg">
<path fill-rule="evenodd" clip-rule="evenodd" d="M5.9314 3.3783C6.20754 3.3783 6.4314 3.60215 6.4314 3.8783V4.71151L11.7493 4.71167V3.8783C11.7493 3.60215 11.9731 3.3783 12.2493 3.3783C12.5254 3.3783 12.7493 3.60215 12.7493 3.8783V4.71151L13.0543 4.71167C13.7171 4.71167 14.2543 5.24893 14.2543 5.91167V12.845C14.2543 13.5077 13.7171 14.045 13.0543 14.045H4.78765C4.12491 14.045 3.58765 13.5077 3.58765 12.845V5.91167C3.58765 5.24893 4.1249 4.71167 4.78765 4.71167H5.4314V3.8783C5.4314 3.60215 5.65525 3.3783 5.9314 3.3783ZM4.78765 5.71167H13.0543C13.1648 5.71167 13.2543 5.80121 13.2543 5.91167V7.31384H4.58765V5.91167C4.58765 5.80121 4.67719 5.71167 4.78765 5.71167ZM4.58765 8.31384V12.845C4.58765 12.9555 4.67719 13.045 4.78765 13.045H13.0543C13.1648 13.045 13.2543 12.9555 13.2543 12.845V8.31384H4.58765Z" fill="#949494"/>
</svg>
