<svg width="25" height="25" viewBox="0 0 25 25" fill="none" xmlns="http://www.w3.org/2000/svg">
<path fill-rule="evenodd" clip-rule="evenodd" d="M16.0581 12.8916C16.0581 14.8246 14.4911 16.3916 12.5581 16.3916C10.6251 16.3916 9.05811 14.8246 9.05811 12.8916C9.05811 10.9586 10.6251 9.3916 12.5581 9.3916C14.4911 9.3916 16.0581 10.9586 16.0581 12.8916ZM14.4581 12.8916C14.4581 13.9409 13.6074 14.7916 12.5581 14.7916C11.5088 14.7916 10.6581 13.9409 10.6581 12.8916C10.6581 11.8423 11.5088 10.9916 12.5581 10.9916C13.6074 10.9916 14.4581 11.8423 14.4581 12.8916Z" fill="#949494"/>
<path fill-rule="evenodd" clip-rule="evenodd" d="M11.2084 5.19042C11.8459 4.28695 13.1857 4.28695 13.8231 5.19042L14.4264 6.04543C14.7825 6.55014 15.3973 6.8048 16.006 6.69971L17.0371 6.52169C18.1267 6.33357 19.0741 7.28098 18.886 8.37057L18.708 9.40171C18.6029 10.0104 18.8575 10.6252 19.3622 10.9813L20.2172 11.5845C21.1207 12.222 21.1207 13.5618 20.2172 14.1992L19.3622 14.8025C18.8575 15.1586 18.6029 15.7734 18.708 16.3821L18.886 17.4132C19.0741 18.5028 18.1267 19.4502 17.0371 19.2621L16.006 19.0841C15.3973 18.979 14.7825 19.2336 14.4264 19.7383L13.8231 20.5933C13.1857 21.4968 11.8459 21.4968 11.2084 20.5933L10.6052 19.7383C10.2491 19.2336 9.63429 18.979 9.02561 19.0841L7.99447 19.2621C6.90488 19.4502 5.95747 18.5028 6.14559 17.4132L6.32361 16.3821C6.4287 15.7734 6.17404 15.1586 5.66933 14.8025L4.81432 14.1992C3.91085 13.5618 3.91085 12.222 4.81432 11.5845L5.66933 10.9813C6.17404 10.6252 6.4287 10.0104 6.32361 9.40171L6.14559 8.37057C5.95747 7.28098 6.90488 6.33357 7.99447 6.52168L9.02561 6.69971C9.63429 6.8048 10.2491 6.55014 10.6052 6.04543L11.2084 5.19042ZM12.5158 6.11282L13.119 6.96783C13.8312 7.97724 15.0608 8.48656 16.2782 8.27638L17.3093 8.09836L17.1313 9.1295C16.9211 10.3469 17.4304 11.5765 18.4398 12.2886L19.2948 12.8919L18.4398 13.4951C17.4304 14.2073 16.9211 15.4369 17.1313 16.6543L17.3093 17.6854L16.2782 17.5074C15.0608 17.2972 13.8312 17.8065 13.119 18.8159L12.5158 19.6709L11.9125 18.8159C11.2004 17.8065 9.97075 17.2972 8.7534 17.5074L7.72226 17.6854L7.90029 16.6543C8.11046 15.4369 7.60114 14.2073 6.59173 13.4951L5.73672 12.8919L6.59173 12.2886C7.60114 11.5765 8.11046 10.3469 7.90029 9.1295L7.72226 8.09836L8.7534 8.27638C9.97075 8.48656 11.2004 7.97724 11.9125 6.96783L12.5158 6.11282Z" fill="#949494"/>
</svg>
