<svg width="17" height="16" viewBox="0 0 17 16" fill="none" xmlns="http://www.w3.org/2000/svg">
<path fill-rule="evenodd" clip-rule="evenodd" d="M13.7251 8.00084C13.7251 7.7247 13.5012 7.50084 13.2251 7.50084L4.79695 7.50086L7.57537 4.72245C7.77063 4.52719 7.77063 4.21061 7.57537 4.01534C7.38011 3.82008 7.06352 3.82008 6.86826 4.01534L3.23629 7.64731C3.14252 7.74108 3.08984 7.86826 3.08984 8.00087C3.08984 8.13348 3.14252 8.26066 3.23629 8.35442L6.86826 11.9863C7.06352 12.1816 7.3801 12.1816 7.57536 11.9863C7.77062 11.7911 7.77062 11.4745 7.57536 11.2792L4.79696 8.50086L13.2251 8.50084C13.5012 8.50084 13.7251 8.27698 13.7251 8.00084Z" fill="#949494"/>
</svg>
