<svg width="17" height="17" viewBox="0 0 17 17" fill="none" xmlns="http://www.w3.org/2000/svg">
<path fill-rule="evenodd" clip-rule="evenodd" d="M4.77002 7.18681C4.77002 4.89209 6.63025 3.03186 8.92497 3.03186C11.2197 3.03186 13.0799 4.89209 13.0799 7.18681C13.0799 8.28896 12.6508 9.29089 11.9505 10.0346C11.9188 10.1092 11.8788 10.1824 11.8299 10.2533L9.88868 13.0677C9.4117 13.7593 8.39004 13.7593 7.91304 13.0678L5.97177 10.2533C5.90327 10.154 5.85219 10.0502 5.81712 9.94457C5.16567 9.21095 4.77002 8.24508 4.77002 7.18681ZM8.92505 5.19141C7.84961 5.19141 6.97779 6.06323 6.97779 7.13867C6.97779 8.21412 7.84961 9.08594 8.92505 9.08594C10.0005 9.08594 10.8723 8.21412 10.8723 7.13867C10.8723 6.06323 10.0005 5.19141 8.92505 5.19141Z" fill="#949494"/>
</svg>
