<svg width="17" height="17" viewBox="0 0 17 17" fill="none" xmlns="http://www.w3.org/2000/svg">
<path fill-rule="evenodd" clip-rule="evenodd" d="M8.9726 6.37838C8.9726 7.66704 7.92793 8.71171 6.63927 8.71171C5.3506 8.71171 4.30593 7.66704 4.30593 6.37838C4.30593 5.08971 5.3506 4.04504 6.63927 4.04504C7.92793 4.04504 8.9726 5.08971 8.9726 6.37838ZM7.9726 6.37838C7.9726 7.11476 7.37565 7.71171 6.63927 7.71171C5.90289 7.71171 5.30593 7.11476 5.30593 6.37838C5.30593 5.642 5.90289 5.04504 6.63927 5.04504C7.37565 5.04504 7.9726 5.642 7.9726 6.37838Z" fill="#949494"/>
<path fill-rule="evenodd" clip-rule="evenodd" d="M10.0679 13.9991C10.6521 13.9991 11.2431 13.4955 11.1036 12.7954C10.7094 10.8157 8.83287 9.36889 6.63905 9.36889C4.44524 9.36889 2.5687 10.8157 2.17446 12.7954C2.03505 13.4955 2.62597 13.9991 3.21023 13.9991L10.0679 13.9991ZM6.63905 10.3689C8.40713 10.3689 9.82662 11.5259 10.1212 12.9822C10.1125 12.9895 10.0944 12.9991 10.0679 12.9991L3.21023 12.9991C3.1837 12.9991 3.16563 12.9895 3.1569 12.9822C3.45149 11.5259 4.87097 10.3689 6.63905 10.3689Z" fill="#949494"/>
<path d="M9.77761 8.37183C9.77761 8.09568 10.0015 7.87183 10.2776 7.87183L11.4444 7.87183V6.71167C11.4444 6.43553 11.6682 6.21167 11.9444 6.21167C12.2205 6.21167 12.4444 6.43553 12.4444 6.71167V7.87183L13.6109 7.87183C13.8871 7.87183 14.1109 8.09568 14.1109 8.37183C14.1109 8.64797 13.8871 8.87183 13.6109 8.87183H12.4444V10.045C12.4444 10.3211 12.2205 10.545 11.9444 10.545C11.6682 10.545 11.4444 10.3211 11.4444 10.045V8.87183H10.2776C10.0015 8.87183 9.77761 8.64797 9.77761 8.37183Z" fill="#949494"/>
</svg>
