<svg width="17" height="17" viewBox="0 0 17 17" fill="none" xmlns="http://www.w3.org/2000/svg">
<path fill-rule="evenodd" clip-rule="evenodd" d="M10.1445 9.41157C10.5032 9.26489 10.8873 9.18541 11.2866 9.18539C11.2865 9.18539 11.2866 9.18539 11.2866 9.18539C11.6859 9.18539 12.07 9.26486 12.4288 9.41152C13.7007 9.9314 14.655 11.2957 14.8443 12.9584C14.878 13.2538 14.6352 13.4978 14.3379 13.4978L3.56179 13.4977C3.22745 13.4977 2.95446 13.2234 2.99228 12.8912C3.22249 10.8694 4.45855 9.23994 6.06417 8.77901C6.36236 8.6934 6.67331 8.6481 6.99292 8.64807C6.99283 8.64807 6.99301 8.64807 6.99292 8.64807C7.31253 8.64807 7.62374 8.69335 7.92193 8.77892C8.52116 8.95089 9.06892 9.28561 9.53215 9.74274C9.72586 9.61022 9.93067 9.49897 10.1445 9.41157ZM10.0968 10.5681C9.70169 10.8384 9.17046 10.7908 8.82974 10.4545C8.29688 9.92866 7.65741 9.64807 6.99319 9.64807C5.73134 9.64807 4.45644 10.7332 4.06966 12.4977L13.7464 12.4978C13.3778 11.0463 12.3106 10.1854 11.2867 10.1854C10.8678 10.1854 10.4638 10.317 10.0968 10.5681Z" fill="#949494"/>
<path fill-rule="evenodd" clip-rule="evenodd" d="M9.55673 7.48422C9.46852 7.2673 9.41992 7.03006 9.41992 6.78146C9.41992 6.47295 9.49476 6.18192 9.62728 5.92554C9.7144 5.757 9.82643 5.60344 9.95851 5.46972C10.2969 5.12711 10.767 4.91479 11.2866 4.91479C12.3175 4.91479 13.1533 5.75053 13.1533 6.78146C13.1533 7.42195 12.8307 7.9871 12.3391 8.3233C12.0395 8.52823 11.6771 8.6481 11.2867 8.64813C11.2868 8.64813 11.2867 8.64813 11.2867 8.64813C10.8979 8.64813 10.5366 8.52922 10.2377 8.32579C9.93521 8.11994 9.69635 7.82755 9.55673 7.48422ZM11.2866 7.64813C11.7652 7.64813 12.1533 7.26011 12.1533 6.78146C12.1533 6.30281 11.7652 5.91479 11.2866 5.91479C10.8079 5.91479 10.4199 6.30281 10.4199 6.78146C10.4199 7.26011 10.8079 7.64813 11.2866 7.64813Z" fill="#949494"/>
<path fill-rule="evenodd" clip-rule="evenodd" d="M8.8712 5.23689C8.59053 4.4716 7.8555 3.92554 6.99292 3.92554C5.88835 3.92554 4.99292 4.82097 4.99292 5.92554C4.99292 6.72211 5.45861 7.40992 6.13259 7.73155C6.39319 7.85592 6.68492 7.92554 6.99292 7.92554C6.99283 7.92554 6.99301 7.92554 6.99292 7.92554C7.29965 7.9255 7.59052 7.85641 7.85029 7.73296C8.08287 7.62244 8.29073 7.46835 8.46334 7.28123C8.59961 7.1335 8.71391 6.96518 8.80103 6.78146C8.92408 6.52198 8.99292 6.2318 8.99292 5.92554C8.99292 5.68354 8.94994 5.45159 8.8712 5.23689ZM6.99292 6.92554C7.54521 6.92554 7.99292 6.47782 7.99292 5.92554C7.99292 5.37325 7.54521 4.92554 6.99292 4.92554C6.44063 4.92554 5.99292 5.37325 5.99292 5.92554C5.99292 6.47782 6.44063 6.92554 6.99292 6.92554Z" fill="#949494"/>
</svg>
