<svg width="25" height="25" viewBox="0 0 25 25" fill="none" xmlns="http://www.w3.org/2000/svg">
<path d="M14.6895 10.7388C15.04 10.4698 15.5422 10.5358 15.8112 10.8862C16.0803 11.2367 16.0142 11.7389 15.6638 12.008L13.2543 13.8576C12.7652 14.2331 12.1659 14.4366 11.5493 14.4366H8.89504C8.45321 14.4366 8.09504 14.0784 8.09504 13.6366C8.09504 13.1948 8.45321 12.8366 8.89504 12.8366L11.5493 12.8366C11.8136 12.8366 12.0704 12.7494 12.28 12.5885L14.6895 10.7388Z" fill="#949494"/>
<path fill-rule="evenodd" clip-rule="evenodd" d="M20.0352 12.8918C20.0352 17.3101 16.4534 20.8918 12.0352 20.8918C7.61688 20.8918 4.03516 17.3101 4.03516 12.8918C4.03516 8.47357 7.61688 4.89185 12.0352 4.89185C16.4534 4.89185 20.0352 8.47357 20.0352 12.8918ZM18.4352 12.8918C18.4352 16.4265 15.5698 19.2918 12.0352 19.2918C8.50053 19.2918 5.63516 16.4265 5.63516 12.8918C5.63516 9.35722 8.50053 6.49185 12.0352 6.49185C15.5698 6.49185 18.4352 9.35722 18.4352 12.8918Z" fill="#949494"/>
</svg>
