<svg width="25" height="25" viewBox="0 0 25 25" fill="none" xmlns="http://www.w3.org/2000/svg">
<path fill-rule="evenodd" clip-rule="evenodd" d="M9.87167 12.8918C11.8047 12.8918 13.3717 11.3248 13.3717 9.39185C13.3717 7.45885 11.8047 5.89185 9.87167 5.89185C7.93867 5.89185 6.37167 7.45885 6.37167 9.39185C6.37167 11.3248 7.93867 12.8918 9.87167 12.8918ZM9.87167 11.2918C10.921 11.2918 11.7717 10.4412 11.7717 9.39185C11.7717 8.3425 10.921 7.49185 9.87167 7.49185C8.82233 7.49185 7.97167 8.3425 7.97167 9.39185C7.97167 10.4412 8.82233 11.2918 9.87167 11.2918Z" fill="#949494"/>
<path fill-rule="evenodd" clip-rule="evenodd" d="M16.6758 19.3559C16.7963 20.2333 16.0725 20.873 15.3197 20.873L4.42304 20.873C3.67028 20.873 2.94643 20.2333 3.06692 19.3559C3.50249 16.1839 6.43425 13.8276 9.87138 13.8276C13.3085 13.8276 16.2403 16.1839 16.6758 19.3559ZM15.0383 19.273C14.5844 17.1297 12.4901 15.4276 9.87138 15.4276C7.2527 15.4276 5.15837 17.1297 4.70445 19.273L15.0383 19.273Z" fill="#949494"/>
<path d="M20.8237 10.3202C21.1 9.97543 21.0446 9.47194 20.6999 9.19559C20.3552 8.91923 19.8517 8.97466 19.5753 9.31939L17.279 12.1839L15.597 10.5019C15.2846 10.1895 14.7781 10.1895 14.4657 10.5019C14.1532 10.8144 14.1532 11.3209 14.4657 11.6333L16.779 13.9466C16.9398 14.1074 17.1614 14.1922 17.3885 14.1797C17.6156 14.1673 17.8266 14.0588 17.9688 13.8813L20.8237 10.3202Z" fill="#949494"/>
</svg>
