<svg width="17" height="17" viewBox="0 0 17 17" fill="none" xmlns="http://www.w3.org/2000/svg">
<path fill-rule="evenodd" clip-rule="evenodd" d="M10.8129 8.71151C10.8129 10.0002 9.76824 11.0448 8.47957 11.0448C7.19091 11.0448 6.14624 10.0002 6.14624 8.71151C6.14624 7.42284 7.19091 6.37817 8.47957 6.37817C9.76824 6.37817 10.8129 7.42284 10.8129 8.71151ZM9.81291 8.71151C9.81291 9.44789 9.21595 10.0448 8.47957 10.0448C7.74319 10.0448 7.14624 9.44789 7.14624 8.71151C7.14624 7.97513 7.74319 7.37817 8.47957 7.37817C9.21595 7.37817 9.81291 7.97513 9.81291 8.71151Z" fill="#949494"/>
<path fill-rule="evenodd" clip-rule="evenodd" d="M7.30152 3.97162C7.86209 3.1771 9.04036 3.1771 9.60093 3.97162C9.91408 4.41547 10.4547 4.63942 10.99 4.547C11.9482 4.38157 12.7814 5.21474 12.6159 6.17293C12.5235 6.7082 12.7475 7.24887 13.1913 7.56202C13.9858 8.12259 13.9858 9.30086 13.1913 9.86142C12.7475 10.1746 12.5235 10.7152 12.6159 11.2505C12.7814 12.2087 11.9482 13.0419 10.99 12.8764C10.4547 12.784 9.91408 13.008 9.60093 13.4518C9.04036 14.2463 7.86209 14.2463 7.30152 13.4518C6.98837 13.008 6.44771 12.784 5.91243 12.8764C4.95424 13.0419 4.12107 12.2087 4.2865 11.2505C4.37892 10.7152 4.15497 10.1746 3.71113 9.86142C2.9166 9.30086 2.9166 8.12259 3.71113 7.56202C4.15497 7.24887 4.37892 6.7082 4.2865 6.17293C4.12107 5.21474 4.95424 4.38157 5.91243 4.547C6.44771 4.63942 6.98837 4.41547 7.30152 3.97162ZM5.7423 5.53242C6.658 5.69052 7.58291 5.30741 8.11862 4.54812C8.28079 4.31827 8.62166 4.31827 8.78383 4.54812C9.31953 5.30741 10.2444 5.69052 11.1601 5.53242C11.4373 5.48457 11.6784 5.7256 11.6305 6.0028C11.4724 6.9185 11.8555 7.84341 12.6148 8.37912C12.8447 8.54129 12.8447 8.88215 12.6148 9.04433C11.8555 9.58003 11.4724 10.5049 11.6305 11.4206C11.6784 11.6978 11.4373 11.9389 11.1601 11.891C10.2444 11.7329 9.31953 12.116 8.78383 12.8753C8.62166 13.1052 8.28079 13.1052 8.11862 12.8753C7.58291 12.116 6.658 11.7329 5.7423 11.891C5.4651 11.9389 5.22407 11.6978 5.27193 11.4206C5.43002 10.5049 5.04691 9.58003 4.28762 9.04433C4.05777 8.88215 4.05777 8.54129 4.28762 8.37912C5.04691 7.84341 5.43002 6.9185 5.27193 6.0028C5.22407 5.7256 5.4651 5.48457 5.7423 5.53242Z" fill="#949494"/>
</svg>
