<svg width="25" height="25" viewBox="0 0 25 25" fill="none" xmlns="http://www.w3.org/2000/svg">
<path fill-rule="evenodd" clip-rule="evenodd" d="M13.3512 9.39185C13.3512 11.3248 11.7842 12.8918 9.85116 12.8918C7.91816 12.8918 6.35116 11.3248 6.35116 9.39185C6.35116 7.45885 7.91816 5.89185 9.85116 5.89185C11.7842 5.89185 13.3512 7.45885 13.3512 9.39185ZM11.7512 9.39185C11.7512 10.4412 10.9005 11.2918 9.85116 11.2918C8.80182 11.2918 7.95116 10.4412 7.95116 9.39185C7.95116 8.3425 8.80182 7.49185 9.85116 7.49185C10.9005 7.49185 11.7512 8.3425 11.7512 9.39185Z" fill="#949494"/>
<path fill-rule="evenodd" clip-rule="evenodd" d="M15.2992 20.873C16.052 20.873 16.7758 20.2333 16.6553 19.3559C16.2198 16.1839 13.288 13.8276 9.85088 13.8276C6.41374 13.8276 3.48199 16.1839 3.04641 19.3559C2.92592 20.2333 3.64977 20.873 4.40253 20.873L15.2992 20.873ZM9.85088 15.4276C12.4696 15.4276 14.5639 17.1297 15.0178 19.273L4.68394 19.273C5.13786 17.1297 7.23219 15.4276 9.85088 15.4276Z" fill="#949494"/>
<path d="M15.3021 9.32616C15.6145 9.01374 16.121 9.01374 16.4334 9.32616L17.9889 10.8816L19.5443 9.32616C19.8567 9.01374 20.3632 9.01374 20.6756 9.32616C20.9881 9.63858 20.9881 10.1451 20.6756 10.4575L19.1202 12.0129L20.6761 13.5688C20.9885 13.8812 20.9885 14.3878 20.6761 14.7002C20.3637 15.0126 19.8571 15.0126 19.5447 14.7002L17.9889 13.1443L16.433 14.7002C16.1206 15.0126 15.614 15.0126 15.3016 14.7002C14.9892 14.3878 14.9892 13.8812 15.3016 13.5688L16.8575 12.0129L15.3021 10.4575C14.9897 10.1451 14.9897 9.63858 15.3021 9.32616Z" fill="#949494"/>
</svg>
