<svg width="17" height="17" viewBox="0 0 17 17" fill="none" xmlns="http://www.w3.org/2000/svg">
<path d="M4.51978 6.8783C4.24363 6.8783 4.01978 7.10215 4.01978 7.3783C4.01978 7.65444 4.24363 7.8783 4.51978 7.8783L12.8977 7.8783C13.1738 7.8783 13.3977 7.65444 13.3977 7.3783C13.3977 7.10215 13.1738 6.8783 12.8977 6.8783H4.51978Z" fill="#949494"/>
<path d="M4.51978 9.54505C4.24363 9.54505 4.01978 9.7689 4.01978 10.045C4.01978 10.3212 4.24363 10.545 4.51978 10.545L12.8977 10.545C13.1738 10.545 13.3977 10.3212 13.3977 10.045C13.3977 9.7689 13.1738 9.54504 12.8977 9.54504L4.51978 9.54505Z" fill="#949494"/>
</svg>
