<svg width="17" height="17" viewBox="0 0 17 17" fill="none" xmlns="http://www.w3.org/2000/svg">
<path d="M9.96372 7.30273C10.1828 7.13458 10.4966 7.17584 10.6648 7.39488C10.833 7.61392 10.7917 7.9278 10.5727 8.09596L9.14592 9.19121C8.70923 9.52643 8.17411 9.70814 7.62359 9.70814H6.08046C5.80432 9.70814 5.58046 9.48429 5.58046 9.20814C5.58046 8.932 5.80432 8.70814 6.08046 8.70814H7.62359C7.9539 8.70814 8.27498 8.59912 8.53699 8.39798L9.96372 7.30273Z" fill="#949494"/>
<path fill-rule="evenodd" clip-rule="evenodd" d="M13.5072 8.71163C13.5072 11.6571 11.1194 14.045 8.17391 14.045C5.22839 14.045 2.84058 11.6571 2.84058 8.71163C2.84058 5.76611 5.22839 3.3783 8.17391 3.3783C11.1194 3.3783 13.5072 5.76611 13.5072 8.71163ZM12.5072 8.71163C12.5072 11.1049 10.5671 13.045 8.17391 13.045C5.78068 13.045 3.84058 11.1049 3.84058 8.71163C3.84058 6.3184 5.78068 4.3783 8.17391 4.3783C10.5671 4.3783 12.5072 6.3184 12.5072 8.71163Z" fill="#949494"/>
</svg>
