<svg width="17" height="17" viewBox="0 0 17 17" fill="none" xmlns="http://www.w3.org/2000/svg">
<path fill-rule="evenodd" clip-rule="evenodd" d="M13.2148 5.00907C13.4101 4.81381 13.4101 4.49723 13.2148 4.30196C13.0195 4.1067 12.703 4.1067 12.5077 4.30196L4.02242 12.7872C3.82716 12.9825 3.82716 13.2991 4.02242 13.4944C4.21768 13.6896 4.53426 13.6896 4.72953 13.4944L6.33767 11.8862C6.93729 12.0975 7.57585 12.228 8.23836 12.228C10.4263 12.228 12.3532 10.8042 13.4785 9.75178C14.1357 9.13717 14.1512 8.14308 13.5158 7.50597C13.1116 7.10076 12.6 6.64011 12.007 6.21683L13.2148 5.00907ZM10.4471 7.77682L9.89128 8.3326C9.90024 8.40261 9.90487 8.47398 9.90487 8.54643C9.90487 9.4669 9.15867 10.2131 8.2382 10.2131C8.16575 10.2131 8.09438 10.2085 8.02437 10.1995L7.48384 10.74C7.72054 10.8209 7.97436 10.8647 8.23844 10.8647C9.5271 10.8647 10.5718 9.82008 10.5718 8.53142C10.5718 8.26734 10.5279 8.01351 10.4471 7.77682Z" fill="#949494"/>
<path d="M8.23836 4.83484C8.9164 4.83484 9.56935 4.98028 10.1811 5.21433L9.05174 6.34374C8.7985 6.24955 8.52448 6.19808 8.23844 6.19808C6.94977 6.19808 5.90511 7.24275 5.90511 8.53142C5.90511 8.81746 5.95658 9.09148 6.05076 9.34472L4.46791 10.9276C3.89379 10.5421 3.39593 10.1237 2.99819 9.75178C2.34098 9.13717 2.32552 8.14308 2.96094 7.50597C4.08073 6.3832 6.02604 4.83484 8.23836 4.83484Z" fill="#949494"/>
<path d="M8.2382 6.87976C8.32585 6.87976 8.41192 6.88653 8.49591 6.89956L6.59134 8.80414C6.5783 8.72015 6.57153 8.63408 6.57153 8.54643C6.57153 7.62595 7.31773 6.87976 8.2382 6.87976Z" fill="#949494"/>
</svg>
