<svg width="17" height="17" viewBox="0 0 17 17" fill="none" xmlns="http://www.w3.org/2000/svg">
<path d="M8.65837 10.5799C9.57884 10.5799 10.325 9.83372 10.325 8.91325C10.325 7.99277 9.57884 7.24658 8.65837 7.24658C7.73789 7.24658 6.9917 7.99277 6.9917 8.91325C6.9917 9.83372 7.73789 10.5799 8.65837 10.5799Z" fill="#949494"/>
<path fill-rule="evenodd" clip-rule="evenodd" d="M3.41811 10.1186C2.7609 9.50399 2.74544 8.5099 3.38086 7.87279C4.50065 6.75002 6.44596 5.20166 8.65828 5.20166C10.8706 5.20166 12.8159 6.75002 13.9357 7.87279C14.5711 8.5099 14.5557 9.50399 13.8984 10.1186C12.7731 11.171 10.8463 12.5948 8.65828 12.5948C6.47029 12.5948 4.54348 11.171 3.41811 10.1186ZM10.9917 8.89824C10.9917 10.1869 9.94702 11.2316 8.65836 11.2316C7.3697 11.2316 6.32503 10.1869 6.32503 8.89824C6.32503 7.60957 7.3697 6.5649 8.65836 6.5649C9.94702 6.5649 10.9917 7.60957 10.9917 8.89824Z" fill="#949494"/>
</svg>
