<svg width="17" height="17" viewBox="0 0 17 17" fill="none" xmlns="http://www.w3.org/2000/svg">
<path d="M12.2382 3.81677C12.2382 3.54063 12.0143 3.31677 11.7382 3.31677C11.462 3.31677 11.2382 3.54063 11.2382 3.81677V8.92108C11.2382 9.5286 10.7457 10.0211 10.1382 10.0211H4.12782L6.45153 7.69743C6.64679 7.50217 6.64679 7.18559 6.45153 6.99032C6.25627 6.79506 5.93969 6.79505 5.74443 6.99031L3.10295 9.63172C2.67336 10.0613 2.67336 10.7578 3.10296 11.1874L5.74443 13.8288C5.9397 14.024 6.25628 14.024 6.45154 13.8287C6.64679 13.6335 6.64679 13.3169 6.45152 13.1216L4.35089 11.0211H10.1382C11.298 11.0211 12.2382 10.0809 12.2382 8.92108V3.81677Z" fill="#949494"/>
</svg>
