<svg width="17" height="17" viewBox="0 0 17 17" fill="none" xmlns="http://www.w3.org/2000/svg">
<path d="M8.14611 3.97632C8.42225 3.97644 8.64601 4.2004 8.64588 4.47654L8.64545 9.07636L10.5732 7.14863C10.7684 6.95337 11.085 6.95337 11.2803 7.14863C11.4755 7.3439 11.4755 7.66048 11.2803 7.85574L8.49899 10.637C8.40523 10.7308 8.27805 10.7835 8.14544 10.7835C8.01283 10.7835 7.88566 10.7308 7.79189 10.637L5.0106 7.85574C4.81534 7.66048 4.81534 7.3439 5.0106 7.14863C5.20586 6.95337 5.52245 6.95337 5.71771 7.14863L7.64545 9.07638L7.64588 4.4761C7.64601 4.19995 7.86996 3.9762 8.14611 3.97632Z" fill="#949494"/>
<path d="M3.87085 9.1868C3.87085 8.91066 3.64699 8.6868 3.37085 8.6868C3.09471 8.6868 2.87085 8.91066 2.87085 9.1868V12.299C2.87085 13.2379 3.63196 13.999 4.57085 13.999H11.721C12.6599 13.999 13.421 13.2379 13.421 12.299V9.1868C13.421 8.91066 13.1971 8.6868 12.921 8.6868C12.6448 8.6868 12.421 8.91066 12.421 9.1868V12.299C12.421 12.6856 12.1076 12.999 11.721 12.999H4.57085C4.18425 12.999 3.87085 12.6856 3.87085 12.299V9.1868Z" fill="#949494"/>
</svg>
