<svg width="24" height="25" viewBox="0 0 24 25" fill="none" xmlns="http://www.w3.org/2000/svg">
<path fill-rule="evenodd" clip-rule="evenodd" d="M12.0623 20.9197C12.5042 20.9197 12.8623 20.5615 12.8623 20.1197L12.8623 7.5982L16.9446 11.6805C17.257 11.9929 17.7635 11.9929 18.076 11.6805C18.3884 11.368 18.3884 10.8615 18.076 10.5491L12.628 5.10114C12.478 4.95111 12.2745 4.86682 12.0623 4.86682C11.8501 4.86682 11.6466 4.95111 11.4966 5.10114L6.04876 10.5491C5.73635 10.8615 5.73635 11.368 6.04877 11.6805C6.36119 11.9929 6.86773 11.9929 7.18014 11.6804L11.2623 7.59821L11.2623 20.1197C11.2623 20.5615 11.6205 20.9197 12.0623 20.9197Z" fill="#949494"/>
</svg>
