<svg width="17" height="17" viewBox="0 0 17 17" fill="none" xmlns="http://www.w3.org/2000/svg">
<path fill-rule="evenodd" clip-rule="evenodd" d="M11.2154 4.76086H4.94878C4.83832 4.76086 4.74878 4.85041 4.74878 4.96086V12.2192C4.74878 12.3724 4.91391 12.4687 5.04723 12.3933L6.99912 11.2895C7.67111 10.9094 8.49312 10.9094 9.1651 11.2895L11.117 12.3933C11.2503 12.4687 11.4154 12.3724 11.4154 12.2192V4.96086C11.4154 4.85041 11.3259 4.76086 11.2154 4.76086ZM4.94878 3.76086C4.28604 3.76086 3.74878 4.29812 3.74878 4.96086V12.2192C3.74878 13.1383 4.73955 13.7162 5.5395 13.2638L7.49139 12.1599C7.85793 11.9526 8.3063 11.9526 8.67283 12.1599L10.6247 13.2638C11.4247 13.7162 12.4154 13.1383 12.4154 12.2192V4.96086C12.4154 4.29812 11.8782 3.76086 11.2154 3.76086H4.94878Z" fill="#949494"/>
</svg>
