<svg width="17" height="17" viewBox="0 0 17 17" fill="none" xmlns="http://www.w3.org/2000/svg">
<path fill-rule="evenodd" clip-rule="evenodd" d="M6.36565 4.20035C6.17039 4.00509 6.17039 3.6885 6.36566 3.49324C6.56092 3.29798 6.8775 3.29799 7.07276 3.49325L8.39564 4.81616H9.44257L10.7653 3.49348C10.9606 3.29823 11.2772 3.29824 11.4724 3.4935C11.6677 3.68877 11.6677 4.00535 11.4724 4.20061L10.8568 4.81616H13.0543C13.7171 4.81616 14.2543 5.35342 14.2543 6.01616V6.28283C14.2543 6.62183 14.1137 6.92799 13.8877 7.14622C13.7232 7.30503 13.5834 7.50501 13.5834 7.73366V12.788C13.5834 13.4508 13.0462 13.988 12.3834 13.988H5.45008C4.78734 13.988 4.25008 13.4508 4.25008 12.788V7.72617C4.25008 7.49924 4.11227 7.30038 3.94982 7.14193C3.72638 6.92399 3.58765 6.61961 3.58765 6.28283V6.01616C3.58765 5.35342 4.1249 4.81616 4.78765 4.81616H6.98144L6.36565 4.20035ZM4.58765 6.01616C4.58765 5.90571 4.67719 5.81616 4.78765 5.81616H8.4209V12.988H5.45008C5.33962 12.988 5.25008 12.8985 5.25008 12.788V7.72617C5.25008 7.09043 4.87346 6.64592 4.64806 6.42607C4.60961 6.38856 4.58765 6.33915 4.58765 6.28283V6.01616ZM9.4209 12.988V5.81616H13.0543C13.1648 5.81616 13.2543 5.90571 13.2543 6.01616V6.28283C13.2543 6.33949 13.2321 6.38922 13.1931 6.4268C12.9654 6.6467 12.5834 7.09314 12.5834 7.73366V12.788C12.5834 12.8985 12.4939 12.988 12.3834 12.988H9.4209Z" fill="#949494"/>
</svg>
