<svg width="25" height="25" viewBox="0 0 25 25" fill="none" xmlns="http://www.w3.org/2000/svg">
<path d="M8.8356 5.6418C8.8356 5.19997 8.47742 4.8418 8.0356 4.8418C7.59377 4.8418 7.2356 5.19997 7.2356 5.6418V6.89185H5.72002C5.05728 6.89185 4.52002 7.4291 4.52002 8.09185V10.7451H20.52V8.09185C20.52 7.4291 19.9828 6.89185 19.32 6.89185L18.3122 6.89161V5.6418C18.3122 5.19997 17.954 4.8418 17.5122 4.8418C17.0703 4.8418 16.7122 5.19997 16.7122 5.6418V6.89185L8.8356 6.89161V5.6418Z" fill="#949494"/>
<path d="M20.52 12.3451H4.52002V18.6918C4.52002 19.3546 5.05728 19.8918 5.72002 19.8918H19.32C19.9828 19.8918 20.52 19.3546 20.52 18.6918V12.3451Z" fill="#949494"/>
</svg>
