<svg width="24" height="25" viewBox="0 0 24 25" fill="none" xmlns="http://www.w3.org/2000/svg">
<path fill-rule="evenodd" clip-rule="evenodd" d="M15.6373 17.5873C15.4905 17.5669 15.3449 17.5447 15.2006 17.5207C14.6464 17.4284 14.1116 17.3095 13.6006 17.1665V19.623C13.6006 20.2857 13.0633 20.823 12.4006 20.823H9.77031C9.10757 20.823 8.57031 20.2857 8.57031 19.623V14.7666H7.02148C5.36463 14.7666 4.02148 13.4235 4.02148 11.7666C4.02148 10.1097 5.36463 8.7666 7.02148 8.7666H9.32668C10.7079 7.45169 12.9483 6.47531 15.594 6.10143C15.933 5.2907 16.7401 4.73657 17.6609 4.73657C18.89 4.73657 19.8946 5.72069 19.9116 6.94968C19.9599 10.4482 19.9325 13.0692 19.8959 16.5578C19.8829 17.7972 18.8745 18.7969 17.6351 18.7969C16.7778 18.7969 16.0171 18.3165 15.646 17.5938C15.6431 17.5917 15.6402 17.5895 15.6373 17.5873ZM16.7572 7.20015C16.8878 7.0619 16.9946 6.89947 17.0702 6.71854C17.1616 6.50001 17.3887 6.33657 17.6609 6.33657C18.0212 6.33657 18.3069 6.62402 18.3117 6.97179C18.3212 7.65891 18.3278 8.31191 18.3319 8.94437C18.3302 8.96438 18.3293 8.98463 18.3293 9.00508V12.9579C18.3217 14.0907 18.3094 15.2558 18.296 16.541C18.2921 16.9051 17.9957 17.1969 17.6351 17.1969C17.3797 17.1969 17.1666 17.0538 17.0686 16.8615C16.9889 16.7051 16.8852 16.5651 16.763 16.4453V7.29077C16.763 7.26006 16.761 7.22982 16.7572 7.20015ZM15.363 7.75726C13.1559 8.14037 11.4321 8.97131 10.4299 9.92543C10.1324 10.2086 9.73741 10.3666 9.32668 10.3666H7.02148C6.24829 10.3666 5.62148 10.9934 5.62148 11.7666C5.62148 12.5398 6.24829 13.1666 7.02148 13.1666H8.57031C9.45396 13.1666 10.1703 13.8829 10.1703 14.7666V19.223H12.0006V17.1665C12.0006 16.6659 12.2348 16.1942 12.6337 15.8917C13.0325 15.5892 13.5499 15.4907 14.0319 15.6257C14.4554 15.7442 14.9001 15.8449 15.363 15.9253L15.363 7.75726Z" fill="#949494"/>
</svg>
