<svg width="25" height="25" viewBox="0 0 25 25" fill="none" xmlns="http://www.w3.org/2000/svg">
<path fill-rule="evenodd" clip-rule="evenodd" d="M15.3166 4.89233L9.79919 4.89362C9.13663 4.89378 8.59957 5.43088 8.59947 6.09344L8.59935 6.92204H5.79912C5.13638 6.92204 4.59912 7.4593 4.59912 8.12205V19.692C4.59912 20.3547 5.13638 20.892 5.79912 20.892H19.3991C20.0619 20.892 20.5991 20.3547 20.5991 19.692V8.12205C20.5991 7.4593 20.0619 6.92204 19.3991 6.92204H16.5168L16.5169 6.09251L16.5168 6.0749C16.5163 6.03947 16.5142 6.00441 16.5107 5.96979C16.4493 5.36452 15.9381 4.89219 15.3166 4.89233ZM12.5996 18.1208C14.9902 18.1208 16.9282 16.1829 16.9282 13.7922C16.9282 11.4016 14.9902 9.46362 12.5996 9.46362C10.209 9.46362 8.271 11.4016 8.271 13.7922C8.271 16.1829 10.209 18.1208 12.5996 18.1208Z" fill="#949494"/>
</svg>
