<svg width="17" height="17" viewBox="0 0 17 17" fill="none" xmlns="http://www.w3.org/2000/svg">
<path fill-rule="evenodd" clip-rule="evenodd" d="M8.96528 6.37838C8.96528 7.66704 7.92061 8.71171 6.63194 8.71171C5.34328 8.71171 4.29861 7.66704 4.29861 6.37838C4.29861 5.08971 5.34328 4.04504 6.63194 4.04504C7.92061 4.04504 8.96528 5.08971 8.96528 6.37838ZM7.96528 6.37838C7.96528 7.11476 7.36832 7.71171 6.63194 7.71171C5.89556 7.71171 5.29861 7.11476 5.29861 6.37838C5.29861 5.642 5.89556 5.04504 6.63194 5.04504C7.36832 5.04504 7.96528 5.642 7.96528 6.37838Z" fill="#949494"/>
<path fill-rule="evenodd" clip-rule="evenodd" d="M10.0606 13.9991C10.6448 13.9991 11.2357 13.4955 11.0963 12.7954C10.7021 10.8157 8.82554 9.36889 6.63173 9.36889C4.43791 9.36889 2.56137 10.8157 2.16714 12.7954C2.02772 13.4955 2.61864 13.9991 3.2029 13.9991L10.0606 13.9991ZM6.63173 10.3689C8.39981 10.3689 9.81929 11.5259 10.1139 12.9822C10.1052 12.9895 10.0871 12.9991 10.0606 12.9991L3.2029 12.9991C3.17638 12.9991 3.1583 12.9895 3.14957 12.9822C3.44416 11.5259 4.86364 10.3689 6.63173 10.3689Z" fill="#949494"/>
<path d="M10.2893 6.35807C10.4846 6.16281 10.8011 6.16281 10.9964 6.35807L12.057 7.41869L13.1176 6.35812C13.3129 6.16285 13.6294 6.16285 13.8247 6.35812C14.02 6.55338 14.02 6.86996 13.8247 7.06522L12.7641 8.12579L13.8248 9.1865C14.0201 9.38176 14.0201 9.69834 13.8248 9.8936C13.6296 10.0889 13.313 10.0889 13.1177 9.8936L12.057 8.8329L10.9963 9.89365C10.801 10.0889 10.4844 10.0889 10.2892 9.89365C10.0939 9.69839 10.0939 9.38181 10.2892 9.18654L11.3499 8.12579L10.2893 7.06518C10.094 6.86991 10.094 6.55333 10.2893 6.35807Z" fill="#949494"/>
</svg>
