<svg width="25" height="25" viewBox="0 0 25 25" fill="none" xmlns="http://www.w3.org/2000/svg">
<path fill-rule="evenodd" clip-rule="evenodd" d="M12.0806 16.3082C12.5224 16.3082 12.8806 16.6663 12.8806 17.1082V20.3082C12.8806 20.75 12.5224 21.1082 12.0806 21.1082C11.6387 21.1082 11.2806 20.75 11.2806 20.3082V17.1082C11.2806 16.6663 11.6387 16.3082 12.0806 16.3082Z" fill="#949494" fill-opacity="0.5"/>
<path fill-rule="evenodd" clip-rule="evenodd" d="M12.0806 4.67542C12.5224 4.67542 12.8806 5.03359 12.8806 5.47541V8.67542C12.8806 9.11724 12.5224 9.47542 12.0806 9.47542C11.6387 9.47542 11.2806 9.11724 11.2806 8.67542V5.47542C11.2806 5.03359 11.6387 4.67542 12.0806 4.67542Z" fill="#949494" fill-opacity="0.1"/>
<path fill-rule="evenodd" clip-rule="evenodd" d="M9.56129 15.4111C9.87371 15.7235 9.87371 16.23 9.56129 16.5424L7.29855 18.8052C6.98613 19.1176 6.4796 19.1176 6.16718 18.8052C5.85476 18.4928 5.85476 17.9862 6.16718 17.6738L8.42992 15.4111C8.74234 15.0987 9.24887 15.0987 9.56129 15.4111Z" fill="#949494" fill-opacity="0.6"/>
<path fill-rule="evenodd" clip-rule="evenodd" d="M17.9714 7.00079C18.2839 7.31321 18.2839 7.81975 17.9714 8.13216L15.7087 10.3949C15.3963 10.7073 14.8898 10.7073 14.5773 10.3949C14.2649 10.0825 14.2649 9.57596 14.5773 9.26354L16.8401 7.00079C17.1525 6.68837 17.659 6.68837 17.9714 7.00079Z" fill="#949494" fill-opacity="0.2"/>
<path fill-rule="evenodd" clip-rule="evenodd" d="M8.51777 12.8917C8.51777 13.3336 8.1596 13.6917 7.71777 13.6917H4.51777C4.07595 13.6917 3.71777 13.3336 3.71777 12.8917C3.71777 12.4499 4.07595 12.0917 4.51777 12.0917L7.71777 12.0917C8.1596 12.0917 8.51777 12.4499 8.51777 12.8917Z" fill="#949494" fill-opacity="0.8"/>
<path fill-rule="evenodd" clip-rule="evenodd" d="M20.4113 12.8917C20.4113 13.3335 20.0532 13.6917 19.6113 13.6917H16.4113C15.9695 13.6917 15.6113 13.3335 15.6113 12.8917C15.6113 12.4498 15.9695 12.0917 16.4113 12.0917L19.6113 12.0917C20.0532 12.0917 20.4113 12.4498 20.4113 12.8917Z" fill="#949494" fill-opacity="0.3"/>
<path fill-rule="evenodd" clip-rule="evenodd" d="M9.56129 10.3725C9.24887 10.6849 8.74234 10.6849 8.42992 10.3725L6.16718 8.10972C5.85476 7.7973 5.85476 7.29077 6.16718 6.97835C6.4796 6.66593 6.98613 6.66593 7.29855 6.97835L9.56129 9.24109C9.87371 9.55351 9.87371 10.06 9.56129 10.3725Z" fill="#949494"/>
<path fill-rule="evenodd" clip-rule="evenodd" d="M17.9714 18.7824C17.659 19.0949 17.1525 19.0949 16.8401 18.7824L14.5773 16.5197C14.2649 16.2073 14.2649 15.7007 14.5773 15.3883C14.8898 15.0759 15.3963 15.0759 15.7087 15.3883L17.9714 17.6511C18.2839 17.9635 18.2839 18.47 17.9714 18.7824Z" fill="#949494" fill-opacity="0.4"/>
</svg>
