<svg width="17" height="17" viewBox="0 0 17 17" fill="none" xmlns="http://www.w3.org/2000/svg">
<path fill-rule="evenodd" clip-rule="evenodd" d="M8.39242 3.58777C6.21645 3.58777 4.45248 5.35174 4.45248 7.52771V10.1354C3.61513 10.3679 3.00488 11.1393 3.00488 12.049C3.00488 13.1509 3.89895 14.0441 5.00077 14.0441L11.6894 14.0441C12.7837 14.0441 13.6715 13.157 13.6715 12.0626C13.6715 11.1942 13.112 10.4548 12.3324 10.1869V7.52771C12.3324 5.35174 10.5684 3.58777 8.39242 3.58777ZM7.96809 6.14612C8.23344 6.06968 8.38658 5.79261 8.31015 5.52726C8.23371 5.2619 7.95664 5.10876 7.69128 5.18519C6.66473 5.4809 5.95776 6.42025 5.95776 7.48855V8.33518C5.95776 8.61132 6.18162 8.83518 6.45776 8.83518C6.73391 8.83518 6.95776 8.61132 6.95776 8.33518V7.48855C6.95776 6.86593 7.36979 6.31846 7.96809 6.14612Z" fill="#949494"/>
</svg>
